<?xml version="1.0" encoding="UTF-8"?>
<svg width="30px" height="30px" viewBox="0 0 30 30" version="1.1" xmlns="http://www.w3.org/2000/svg" xmlns:xlink="http://www.w3.org/1999/xlink">
    <!-- Generator: Sketch 3.8.3 (29802) - http://www.bohemiancoding.com/sketch -->
    <title>1471313973_facebook</title>
    <desc>Created with Sketch.</desc>
    <defs>
        <linearGradient x1="100.00245%" y1="100%" x2="34.6563202%" y2="34.6552041%" id="linearGradient-1">
            <stop stop-color="#FFFFFF" stop-opacity="0" offset="31.63%"></stop>
            <stop stop-color="#E9E9E9" stop-opacity="0.0504" offset="35.08%"></stop>
            <stop stop-color="#ACACAC" stop-opacity="0.2018" offset="45.43%"></stop>
            <stop stop-color="#787878" stop-opacity="0.3523" offset="55.72%"></stop>
            <stop stop-color="#4D4D4D" stop-opacity="0.4981" offset="65.69%"></stop>
            <stop stop-color="#2B2B2B" stop-opacity="0.6385" offset="75.28%"></stop>
            <stop stop-color="#131313" stop-opacity="0.7719" offset="84.41%"></stop>
            <stop stop-color="#050505" stop-opacity="0.8956" offset="92.86%"></stop>
            <stop stop-color="#000000" offset="100%"></stop>
        </linearGradient>
        <circle id="path-2" cx="12.6468421" cy="12.6315789" r="12.6315789"></circle>
        <linearGradient x1="107.229454%" y1="83.6395161%" x2="0.49321799%" y2="14.8409677%" id="linearGradient-4">
            <stop stop-color="#000000" stop-opacity="0" offset="58.16%"></stop>
            <stop stop-color="#000000" stop-opacity="0.117" offset="63.06%"></stop>
            <stop stop-color="#000000" offset="100%"></stop>
        </linearGradient>
    </defs>
    <g id="Page-1" stroke="none" stroke-width="1" fill="none" fill-rule="evenodd">
        <g id="Home" transform="translate(-1181.000000, -2957.000000)">
            <g id="footer" transform="translate(0.000000, 2842.000000)">
                <g id="social" transform="translate(1179.000000, 36.000000)">
                    <g id="1471313973_facebook" transform="translate(2.000000, 79.000000)">
                        <g id="Facebook">
                            <polygon id="Circle_Shadow" fill="url(#linearGradient-1)" opacity="0.2" points="29.4889474 29.4736842 29.4889474 11.61 21.5789474 3.69947368 3.71526316 21.5636842 11.6252632 29.4736842"></polygon>
                            <ellipse id="Circle" fill="#FFFFFF" cx="12.6315789" cy="12.6315789" rx="12.6315789" ry="12.6315789"></ellipse>
                            <g id="f_shadow">
                                <g id="Clipped">
                                    <mask id="mask-3" fill="white">
                                        <use xlink:href="#path-2"></use>
                                    </mask>
                                    <g id="SVGID_1_"></g>
                                    <path d="M32.6468421,24.2105263 L33.6994737,24.2105263 L33.6994737,21.5789474 L33.6442105,21.5789474 L33.6442105,21.5236842 L33.5878947,21.5236842 L33.5878947,21.4684211 L33.5331579,21.4684211 L33.5331579,21.4131579 L33.4784211,21.4131579 L33.4784211,21.3584211 L33.4226316,21.3584211 L33.4226316,21.3026316 L33.3668421,21.3026316 L33.3668421,21.2478947 L33.3121053,21.2478947 L33.3121053,21.1921053 L33.2573684,21.1921053 L33.2573684,21.1368421 L33.2015789,21.1368421 L33.2015789,21.0815789 L33.1457895,21.0815789 L33.1457895,21.0263158 L33.0910526,21.0263158 L33.0910526,20.9631579 L33.0363158,20.9631579 L33.0363158,20.9078947 L32.9810526,20.9078947 L32.9810526,20.8526316 L32.9252632,20.8526316 L32.9252632,20.7978947 L32.8694737,20.7978947 L32.8694737,20.7421053 L32.8147368,20.7421053 L32.8147368,20.6863158 L32.76,20.6863158 L32.76,20.6315789 L32.7042105,20.6315789 L32.7042105,20.5757895 L32.6484211,20.5757895 L32.6484211,20.5157895 L32.5936842,20.5157895 L32.5936842,20.46 L32.5378947,20.46 L32.5378947,20.4042105 L32.4826316,20.4042105 L32.4826316,20.3494737 L32.4273684,20.3494737 L32.4273684,20.2947368 L32.3726316,20.2947368 L32.3726316,20.2368421 L32.3168421,20.2368421 L32.3168421,20.1810526 L32.2615789,20.1810526 L32.2615789,20.1263158 L32.2063158,20.1263158 L32.2063158,20.0684211 L32.1510526,20.0684211 L32.1510526,20.0126316 L32.0957895,20.0126316 L32.0957895,19.9578947 L32.0405263,19.9578947 L32.0405263,19.9031579 L31.9852632,19.9031579 L31.9852632,19.8473684 L31.93,19.8473684 L31.93,19.7926316 L31.8742105,19.7926316 L31.8742105,19.7368421 L31.8194737,19.7368421 L31.8194737,19.6821053 L31.7642105,19.6821053 L31.7642105,19.6268421 L31.7089474,19.6268421 L31.7089474,19.5715789 L31.6542105,19.5715789 L31.6542105,19.5105263 L31.5984211,19.5105263 L31.5984211,19.4526316 L31.5431579,19.4526316 L31.5431579,19.3968421 L31.4878947,19.3968421 L31.4878947,19.3421053 L31.4331579,19.3421053 L31.4331579,19.2873684 L31.3773684,19.2873684 L31.3773684,19.2321053 L31.3221053,19.2321053 L31.3221053,19.1768421 L31.2668421,19.1768421 L31.2668421,19.1215789 L31.2115789,19.1215789 L31.2115789,19.0663158 L31.1557895,19.0663158 L31.1557895,19.0110526 L31.1010526,19.0110526 L31.1010526,18.9557895 L31.0457895,18.9557895 L31.0457895,18.8947368 L30.9905263,18.8947368 L30.9905263,18.84 L30.9347368,18.84 L30.9347368,18.7842105 L30.88,18.7842105 L30.88,18.7294737 L30.8247368,18.7294737 L30.8247368,18.6736842 L30.7694737,18.6736842 L30.7694737,18.6178947 L30.7136842,18.6178947 L30.7136842,18.5578947 L30.6589474,18.5578947 L30.6589474,18.5015789 L30.6026316,18.5015789 L30.6026316,18.4468421 L30.5473684,18.4468421 L30.5473684,18.3905263 L30.4921053,18.3905263 L30.4921053,18.3352632 L30.4373684,18.3352632 L30.4373684,18.2789474 L30.3815789,18.2789474 L30.3815789,18.2236842 L30.3263158,18.2236842 L30.3263158,18.1684211 L30.2710526,18.1684211 L30.2710526,18.1136842 L30.2163158,18.1136842 L30.2163158,18.0578947 L30.1605263,18.0578947 L30.1605263,18.0031579 L30.1057895,18.0031579 L30.1057895,17.9421053 L30.05,17.9421053 L30.05,17.8868421 L29.9952632,17.8868421 L29.9952632,17.8315789 L29.9394737,17.8315789 L29.9394737,17.7763158 L29.8847368,17.7763158 L29.8847368,17.7215789 L29.8289474,17.7215789 L29.8289474,17.6657895 L29.7736842,17.6657895 L29.7736842,17.6110526 L29.7189474,17.6110526 L29.7189474,17.5526316 L29.6631579,17.5526316 L29.6631579,17.4973684 L29.6078947,17.4973684 L29.6078947,17.4421053 L29.5526316,17.4421053 L29.5526316,17.3868421 L29.4973684,17.3868421 L29.4973684,17.3263158 L29.4421053,17.3263158 L29.4421053,17.2710526 L29.3868421,17.2710526 L29.3868421,17.2157895 L29.3315789,17.2157895 L29.3315789,17.1610526 L29.2763158,17.1610526 L29.2763158,17.1052632 L29.2210526,17.1052632 L29.2210526,17.0494737 L29.1657895,17.0494737 L29.1657895,16.9947368 L29.1105263,16.9947368 L29.1105263,16.9368421 L29.0552632,16.9368421 L29.0552632,16.8789474 L28.9994737,16.8789474 L28.9994737,16.8226316 L28.9447368,16.8226316 L28.9447368,16.7673684 L28.8889474,16.7673684 L28.8889474,16.7126316 L28.8331579,16.7126316 L28.8331579,16.6578947 L28.7784211,16.6578947 L28.7784211,16.6 L28.7236842,16.6 L28.7236842,16.5442105 L28.6678947,16.5442105 L28.6678947,16.4894737 L28.6121053,16.4894737 L28.6121053,16.4331579 L28.5573684,16.4331579 L28.5573684,16.3773684 L28.5026316,16.3773684 L28.5026316,16.3210526 L28.4468421,16.3210526 L28.4468421,16.2631579 L28.3921053,16.2631579 L28.3921053,16.2073684 L28.3363158,16.2073684 L28.3363158,16.1515789 L28.2815789,16.1515789 L28.2815789,16.0968421 L28.2252632,16.0968421 L28.2252632,16.0415789 L28.1705263,16.0415789 L28.1705263,15.9863158 L28.1142105,15.9863158 L28.1142105,15.9310526 L28.0594737,15.9310526 L28.0594737,15.8757895 L28.0047368,15.8757895 L28.0047368,15.8157895 L27.9489474,15.8157895 L27.9489474,15.76 L27.8931579,15.76 L27.8931579,15.7052632 L27.8384211,15.7052632 L27.8384211,15.6473684 L27.7836842,15.6473684 L27.7836842,15.5921053 L27.7278947,15.5921053 L27.7278947,15.5357895 L27.6721053,15.5357895 L27.6721053,15.4810526 L27.6173684,15.4810526 L27.6173684,15.4257895 L27.5615789,15.4257895 L27.5615789,15.3705263 L27.5063158,15.3705263 L27.5063158,15.3152632 L27.4510526,15.3152632 L27.4510526,15.26 L27.3963158,15.26 L27.3963158,15.2047368 L27.3405263,15.2047368 L27.3405263,15.1494737 L27.2852632,15.1494737 L27.2852632,15.0942105 L27.23,15.0942105 L27.23,15.0368421 L27.1747368,15.0368421 L27.1747368,14.9789474 L27.1194737,14.9789474 L27.1194737,14.9231579 L27.0642105,14.9231579 L27.0642105,14.8684211 L27.0089474,14.8684211 L27.0089474,14.8136842 L26.9536842,14.8136842 L26.9536842,14.7542105 L26.8978947,14.7542105 L26.8978947,14.6989474 L26.8431579,14.6989474 L26.8431579,14.6421053 L26.7878947,14.6421053 L26.7878947,14.5868421 L26.7326316,14.5868421 L26.7326316,14.5321053 L26.6778947,14.5321053 L26.6778947,14.4736842 L26.6221053,14.4736842 L26.6221053,14.4184211 L26.5668421,14.4184211 L26.5668421,14.3631579 L26.5115789,14.3631579 L26.5115789,14.3052632 L26.4568421,14.3052632 L26.4568421,14.2505263 L26.4010526,14.2505263 L26.4010526,14.1947368 L26.3457895,14.1947368 L26.3457895,14.1384211 L26.2905263,14.1384211 L26.2905263,14.0831579 L26.2352632,14.0831579 L26.2352632,14.0263158 L26.1794737,14.0263158 L26.1794737,13.9715789 L26.1247368,13.9715789 L26.1247368,13.9168421 L26.0694737,13.9168421 L26.0694737,13.8610526 L26.0142105,13.8610526 L26.0142105,13.8052632 L25.9584211,13.8052632 L25.9584211,13.7505263 L25.9036842,13.7505263 L25.9036842,13.6894737 L25.8484211,13.6894737 L25.8484211,13.6347368 L25.7931579,13.6347368 L25.7931579,13.5789474 L25.7373684,13.5789474 L25.7373684,13.5242105 L25.6826316,13.5242105 L25.6826316,13.4684211 L25.6268421,13.4684211 L25.6268421,13.4105263 L25.5721053,13.4105263 L25.5721053,13.3552632 L25.5168421,13.3552632 L25.5168421,13.3 L25.4610526,13.3 L25.4610526,13.2447368 L25.4063158,13.2447368 L25.4063158,13.1894737 L25.35,13.1894737 L25.35,13.1342105 L25.2952632,13.1342105 L25.2952632,13.0789474 L25.2394737,13.0789474 L25.2394737,13.0210526 L25.1847368,13.0210526 L25.1847368,12.9652632 L25.1294737,12.9652632 L25.1294737,12.9094737 L25.0742105,12.9094737 L25.0742105,12.8547368 L25.0184211,12.8547368 L25.0184211,12.7947368 L24.9636842,12.7947368 L24.9636842,12.7384211 L24.9078947,12.7384211 L24.9078947,12.6826316 L24.8521053,12.6826316 L24.8521053,12.6263158 L24.7973684,12.6263158 L24.7973684,12.5705263 L24.7426316,12.5705263 L24.7426316,12.5142105 L24.6868421,12.5142105 L24.6868421,12.4584211 L24.6310526,12.4584211 L24.6310526,12.4026316 L24.5763158,12.4026316 L24.5763158,12.3473684 L24.5205263,12.3473684 L24.5205263,12.2910526 L24.4647368,12.2910526 L24.4647368,12.2352632 L24.4094737,12.2352632 L24.4094737,12.1789474 L24.3547368,12.1789474 L24.3547368,12.1231579 L24.2984211,12.1231579 L24.2984211,12.0673684 L24.2431579,12.0673684 L24.2431579,12.0105263 L24.1878947,12.0105263 L24.1878947,11.9552632 L24.1326316,11.9552632 L24.1326316,11.8994737 L24.0773684,11.8994737 L24.0773684,11.8436842 L24.0221053,11.8436842 L24.0221053,11.7873684 L23.9668421,11.7873684 L23.9668421,11.7315789 L23.9115789,11.7315789 L23.9115789,11.6757895 L23.8563158,11.6757895 L23.8563158,11.62 L23.8010526,11.62 L23.8010526,11.5631579 L23.7457895,11.5631579 L23.7457895,11.5078947 L23.6905263,11.5078947 L23.6905263,11.4521053 L23.6342105,11.4521053 L23.6342105,11.3963158 L23.5794737,11.3963158 L23.5794737,11.3405263 L23.5247368,11.3405263 L23.5247368,11.2842105 L23.4694737,11.2842105 L23.4694737,11.2289474 L23.4142105,11.2289474 L23.4142105,11.1726316 L23.3589474,11.1726316 L23.3589474,11.1157895 L23.3036842,11.1157895 L23.3036842,11.06 L23.2484211,11.06 L23.2484211,11.0042105 L23.1931579,11.0042105 L23.1931579,10.9484211 L23.1378947,10.9484211 L23.1378947,10.8926316 L23.0826316,10.8926316 L23.0826316,10.8368421 L23.0273684,10.8368421 L23.0273684,10.7815789 L22.9721053,10.7815789 L22.9721053,10.7252632 L22.9163158,10.7252632 L22.9163158,10.6694737 L22.8610526,10.6694737 L22.8610526,10.6142105 L22.8063158,10.6142105 L22.8063158,10.5584211 L22.7505263,10.5584211 L22.7505263,10.5 L22.6947368,10.5 L22.6947368,10.4442105 L22.64,10.4442105 L22.64,10.3884211 L22.5847368,10.3884211 L22.5847368,10.3326316 L22.5294737,10.3326316 L22.5294737,10.2768421 L22.4731579,10.2768421 L22.4731579,10.2205263 L22.4184211,10.2205263 L22.4184211,10.1652632 L22.3631579,10.1652632 L22.3631579,10.1094737 L22.3078947,10.1094737 L22.3078947,10.0526316 L22.2515789,10.0526316 L22.2515789,9.99684211 L22.1968421,9.99684211 L22.1968421,9.94105263 L22.1421053,9.94105263 L22.1421053,9.88526316 L22.0868421,9.88526316 L22.0868421,9.82894737 L22.0305263,9.82894737 L22.0305263,9.77315789 L21.9752632,9.77315789 L21.9752632,9.71736842 L21.9205263,9.71736842 L21.9205263,9.66157895 L21.8657895,9.66157895 L21.8657895,9.60526316 L21.8094737,9.60526316 L21.8094737,9.54947368 L21.7542105,9.54947368 L21.7542105,9.49368421 L21.6994737,9.49368421 L21.6994737,9.43842105 L21.6436842,9.43842105 L21.6436842,9.38210526 L21.5884211,9.38210526 L21.5884211,9.32631579 L21.5331579,9.32631579 L21.5331579,9.27105263 L21.4784211,9.27105263 L21.4784211,9.21526316 L21.4226316,9.21526316 L21.4226316,9.15947368 L21.3673684,9.15947368 L21.3673684,9.10315789 L21.3121053,9.10315789 L21.3121053,9.04736842 L21.2573684,9.04736842 L21.2573684,8.98947368 L21.2015789,8.98947368 L21.2015789,8.93368421 L21.1468421,8.93368421 L21.1468421,8.87789474 L21.0905263,8.87789474 L21.0905263,8.82210526 L21.0352632,8.82210526 L21.0352632,8.76631579 L20.9805263,8.76631579 L20.9805263,8.71052632 L20.9247368,8.71052632 L20.9247368,8.65473684 L20.8694737,8.65473684 L20.8694737,8.59894737 L20.8142105,8.59894737 L20.8142105,8.54315789 L20.7594737,8.54315789 L20.7594737,8.48736842 L20.7036842,8.48736842 L20.7036842,8.43157895 L20.6484211,8.43157895 L20.6484211,8.37368421 L20.5931579,8.37368421 L20.5931579,8.31789474 L20.5384211,8.31789474 L20.5384211,8.26210526 L20.4826316,8.26210526 L20.4826316,8.20631579 L20.4273684,8.20631579 L20.4273684,8.15 L20.3721053,8.15 L20.3721053,8.09421053 L20.3168421,8.09421053 L20.3168421,8.03842105 L20.2615789,8.03842105 L20.2615789,7.98263158 L20.2063158,7.98263158 L20.2063158,7.92631579 L20.1510526,7.92631579 L20.1510526,7.87052632 L20.0957895,7.87052632 L20.0957895,7.81473684 L20.04,7.81473684 L20.04,7.75894737 L19.9852632,7.75894737 L19.9852632,7.70315789 L19.93,7.70315789 L19.93,7.64736842 L19.8747368,7.64736842 L19.8747368,7.59157895 L19.8189474,7.59157895 L19.8189474,7.53526316 L19.7642105,7.53526316 L19.7642105,7.47947368 L19.7084211,7.47947368 L19.7084211,7.42315789 L19.6536842,7.42315789 L19.6536842,7.36789474 L19.5978947,7.36789474 L19.5978947,7.31052632 L19.5431579,7.31052632 L19.5431579,7.25473684 L19.4878947,7.25473684 L19.4878947,7.19894737 L19.4326316,7.19894737 L19.4326316,7.14368421 L19.3773684,7.14368421 L19.3773684,7.08736842 L19.3215789,7.08736842 L19.3215789,7.03157895 L19.2657895,7.03157895 L19.2657895,6.97578947 L19.2110526,6.97578947 L19.2110526,6.92 L19.1557895,6.92 L19.1557895,6.86315789 L19.1,6.86315789 L19.1,6.80736842 L19.0452632,6.80736842 L19.0452632,6.75157895 L18.9894737,6.75157895 L18.9894737,6.69578947 L18.9336842,6.69578947 L18.9336842,6.64 L18.8789474,6.64 L18.8789474,6.58421053 L18.8242105,6.58421053 L18.8242105,6.52842105 L18.7684211,6.52842105 L18.7684211,6.47263158 L18.7126316,6.47263158 L18.7126316,6.41684211 L18.6578947,6.41684211 L18.6578947,6.36105263 L18.6031579,6.36105263 L18.6031579,6.30526316 L18.5473684,6.30526316 L18.5473684,6.24947368 L18.4915789,6.24947368 L18.4915789,6.19315789 L18.4363158,6.19315789 L18.4363158,6.13736842 L18.3810526,6.13736842 L18.3810526,6.08157895 L18.3257895,6.08157895 L18.3257895,6.02578947 L18.2705263,6.02578947 L18.2705263,5.97 L18.2152632,5.97 L18.2152632,5.91421053 L18.16,5.91421053 L18.16,5.85842105 L18.1047368,5.85842105 L18.1047368,5.8 L18.0494737,5.8 L18.0494737,5.74421053 L17.9942105,5.74421053 L17.9942105,5.68842105 L17.9389474,5.68842105 L17.9389474,5.63263158 L17.8842105,5.63263158 L17.8842105,5.57684211 L17.8284211,5.57684211 L17.8284211,5.52105263 L17.7726316,5.52105263 L17.7726316,5.46473684 L17.7178947,5.46473684 L17.7178947,5.40947368 L17.6621053,5.40947368 L17.6621053,5.35315789 L17.6068421,5.35315789 L17.6068421,5.29736842 L17.5515789,5.29736842 L17.5515789,5.24105263 L17.4963158,5.24105263 L17.4963158,5.18526316 L17.4410526,5.18526316 L17.4410526,5.12947368 L17.3857895,5.12947368 L17.3857895,5.07368421 L17.3305263,5.07368421 L17.3305263,5.01736842 L17.2752632,5.01736842 L17.2752632,4.96210526 L17.22,4.96210526 L17.22,4.90578947 L17.1647368,4.90578947 L17.1647368,4.85 L17.1094737,4.85 L17.1094737,4.79421053 L17.0542105,4.79421053 L17.0542105,4.73684211 L14.9489474,4.73684211 C12.8052632,4.73684211 11.2647368,6.01842105 11.2647368,8.42105263 L11.2647368,10.5263158 L8.63315789,10.5263158 L8.63315789,13.1578947 L8.68894737,13.1578947 L8.68894737,13.2131579 L8.74473684,13.2131579 L8.74473684,13.2684211 L8.80105263,13.2684211 L8.80105263,13.3236842 L8.85684211,13.3236842 L8.85684211,13.3789474 L8.91263158,13.3789474 L8.91263158,13.4342105 L8.96894737,13.4342105 L8.96894737,13.4889474 L9.02473684,13.4889474 L9.02473684,13.5447368 L9.08052632,13.5447368 L9.08052632,13.6 L9.13684211,13.6 L9.13684211,13.6552632 L9.19263158,13.6552632 L9.19263158,13.7105263 L9.24842105,13.7105263 L9.24842105,13.7657895 L9.30473684,13.7657895 L9.30473684,13.8210526 L9.36052632,13.8210526 L9.36052632,13.8757895 L9.41631579,13.8757895 L9.41631579,13.9315789 L9.47263158,13.9315789 L9.47263158,13.9863158 L9.52789474,13.9863158 L9.52789474,14.0410526 L9.58368421,14.0410526 L9.58368421,14.1052632 L9.64,14.1052632 L9.64,14.1610526 L9.69578947,14.1610526 L9.69578947,14.2157895 L9.75157895,14.2157895 L9.75157895,14.2721053 L9.80736842,14.2721053 L9.80736842,14.3268421 L9.86315789,14.3268421 L9.86315789,14.3826316 L9.91894737,14.3826316 L9.91894737,14.4384211 L9.97473684,14.4384211 L9.97473684,14.4931579 L10.0305263,14.4931579 L10.0305263,14.5484211 L10.0863158,14.5484211 L10.0863158,14.6042105 L10.1426316,14.6042105 L10.1426316,14.6589474 L10.1984211,14.6589474 L10.1984211,14.7147368 L10.2542105,14.7147368 L10.2542105,14.7694737 L10.31,14.7694737 L10.31,14.8247368 L10.3657895,14.8247368 L10.3657895,14.88 L10.4215789,14.88 L10.4215789,14.9347368 L10.4773684,14.9347368 L10.4773684,14.9905263 L10.5331579,14.9905263 L10.5331579,15.0526316 L10.5894737,15.0526316 L10.5894737,15.1078947 L10.6452632,15.1078947 L10.6452632,15.1642105 L10.6315789,15.1642105 L10.6315789,15.2189474 L10.6878947,15.2189474 L10.6878947,15.2742105 L10.7436842,15.2742105 L10.7436842,15.3294737 L10.7989474,15.3294737 L10.7989474,15.3847368 L10.8547368,15.3847368 L10.8547368,15.44 L10.9110526,15.44 L10.9110526,15.4947368 L10.8947368,15.4947368 L10.8947368,15.5510526 L10.9510526,15.5510526 L10.9510526,15.6063158 L11.0068421,15.6063158 L11.0068421,15.6610526 L11.0626316,15.6610526 L11.0626316,15.7168421 L11.0526316,15.7168421 L11.0526316,20.5263158 L11.1084211,20.5263158 L11.1084211,20.5815789 L11.1642105,20.5815789 L11.1642105,20.6368421 L11.22,20.6368421 L11.22,20.6921053 L11.2757895,20.6921053 L11.2757895,20.7473684 L11.3315789,20.7473684 L11.3315789,20.8026316 L11.3878947,20.8026316 L11.3878947,20.8573684 L11.4436842,20.8573684 L11.4436842,20.9131579 L11.4994737,20.9131579 L11.4994737,20.9684211 L11.5552632,20.9684211 L11.5552632,21.0236842 L11.6110526,21.0236842 L11.6110526,21.0789474 L11.6673684,21.0789474 L11.6673684,21.1342105 L11.7231579,21.1342105 L11.7231579,21.1894737 L11.7789474,21.1894737 L11.7789474,21.2442105 L11.8347368,21.2442105 L11.8347368,21.3 L11.8905263,21.3 L11.8905263,21.3547368 L11.9463158,21.3547368 L11.9463158,21.4210526 L12.0026316,21.4210526 L12.0026316,21.4768421 L12.0584211,21.4768421 L12.0584211,21.5321053 L12.1142105,21.5321053 L12.1142105,21.5868421 L12.1705263,21.5868421 L12.1705263,21.6431579 L12.2263158,21.6431579 L12.2263158,21.6984211 L12.2821053,21.6984211 L12.2821053,21.7531579 L12.3384211,21.7531579 L12.3384211,21.8078947 L12.3942105,21.8078947 L12.3942105,21.8631579 L12.45,21.8631579 L12.45,21.9194737 L12.5057895,21.9194737 L12.5057895,21.9742105 L12.5615789,21.9742105 L12.5615789,22.0289474 L12.6178947,22.0289474 L12.6178947,22.0852632 L12.6736842,22.0852632 L12.6736842,22.14 L12.7294737,22.14 L12.7294737,22.1957895 L12.7852632,22.1957895 L12.7852632,22.2510526 L12.8410526,22.2510526 L12.8410526,22.3057895 L12.8973684,22.3057895 L12.8973684,22.3684211 L12.9531579,22.3684211 L12.9531579,22.4247368 L13.0078947,22.4247368 L13.0078947,22.4794737 L13.0636842,22.4794737 L13.0636842,22.5347368 L13.1189474,22.5347368 L13.1189474,22.59 L13.1742105,22.59 L13.1742105,22.6452632 L13.2294737,22.6452632 L13.2294737,22.7005263 L13.2842105,22.7005263 L13.2842105,22.7557895 L13.3389474,22.7557895 L13.3389474,22.8110526 L13.3947368,22.8110526 L13.3947368,22.8663158 L13.4505263,22.8663158 L13.4505263,22.9226316 L13.5057895,22.9226316 L13.5057895,22.9773684 L13.5610526,22.9773684 L13.5610526,23.0326316 L13.6157895,23.0326316 L13.6157895,23.0878947 L13.6715789,23.0878947 L13.6715789,23.1431579 L13.7263158,23.1431579 L13.7263158,23.1978947 L13.7894737,23.1978947 L13.7894737,23.2526316 L13.8452632,23.2526316 L13.8452632,23.3157895 L13.9005263,23.3157895 L13.9005263,23.3715789 L13.9552632,23.3715789 L13.9552632,23.4263158 L14.0110526,23.4263158 L14.0110526,23.4821053 L14.0668421,23.4821053 L14.0668421,23.5368421 L14.1215789,23.5368421 L14.1215789,23.5931579 L14.1763158,23.5931579 L14.1763158,23.6484211 L14.2321053,23.6484211 L14.2321053,23.7031579 L14.2878947,23.7031579 L14.2878947,23.7578947 L14.3426316,23.7578947 L14.3426316,23.8136842 L14.3984211,23.8136842 L14.3984211,23.8694737 L14.4536842,23.8694737 L14.4536842,23.9242105 L14.5089474,23.9242105 L14.5089474,23.9789474 L14.5636842,23.9789474 L14.5636842,24.0347368 L14.6189474,24.0347368 L14.6189474,24.0894737 L14.6747368,24.0894737 L14.6747368,24.1447368 L14.73,24.1447368 L14.73,24.2 L14.7894737,24.2 L14.7894737,24.2631579 L14.8447368,24.2631579 L14.8447368,24.3189474 L14.8994737,24.3189474 L14.8994737,24.3747368 L14.9557895,24.3747368 L14.9557895,24.4294737 L15.0110526,24.4294737 L15.0110526,24.4847368 L15.0657895,24.4847368 L15.0657895,24.54 L15.1215789,24.54 L15.1215789,24.5952632 L15.1768421,24.5952632 L15.1768421,24.6505263 L15.2321053,24.6505263 L15.2321053,24.7057895 L15.2878947,24.7057895 L15.2878947,24.7610526 L15.3426316,24.7610526 L15.3426316,24.8163158 L15.4210526,24.8163158 L15.4210526,24.8710526 L15.4768421,24.8710526 L15.4768421,24.9268421 L15.5321053,24.9268421 L15.5321053,24.9821053 L15.5873684,24.9821053 L15.5873684,25.0373684 L15.6426316,25.0373684 L15.6426316,25.0926316 L15.6978947,25.0926316 L15.6978947,25.1478947 L15.7531579,25.1478947 L15.7531579,25.2105263 L15.8084211,25.2105263 L15.8084211,25.2652632 L15.8636842,25.2652632 L15.8636842,25.32 L15.9189474,25.32 L15.9189474,25.3752632 L15.9742105,25.3752632 L15.9742105,25.4305263 L16.0294737,25.4305263 L16.0294737,25.4857895 L16.0842105,25.4857895 L16.0842105,25.5415789 L16.1405263,25.5415789 L16.1405263,25.5963158 L16.1957895,25.5963158 L16.1957895,25.6521053 L16.2515789,25.6521053 L16.2515789,25.7068421 L16.3063158,25.7068421 L16.3063158,25.7621053 L16.3615789,25.7621053 L16.3615789,25.8421053 L16.4210526,25.8421053 L16.4210526,25.8978947 L16.4768421,25.8978947 L16.4768421,25.9536842 L16.5315789,25.9536842 L16.5315789,26.0084211 L16.5868421,26.0084211 L16.5868421,26.0636842 L16.6421053,26.0636842 L16.6421053,26.1189474 L16.6973684,26.1189474 L16.6973684,26.1752632 L16.7526316,26.1752632 L16.7526316,26.23 L16.8078947,26.23 L16.8078947,26.2852632 L16.8642105,26.2852632 L16.8642105,26.3405263 L16.9189474,26.3405263 L16.9189474,26.3957895 L16.9747368,26.3957895 L16.9747368,26.4505263 L17.0294737,26.4505263 L17.0294737,26.5068421 L17.0847368,26.5068421 L17.0847368,26.5615789 L17.14,26.5615789 L17.14,26.6168421 L17.1957895,26.6168421 L17.1957895,26.6721053 L17.2505263,26.6721053 L17.2505263,26.7273684 L17.3057895,26.7273684 L17.3057895,26.7894737 L17.3615789,26.7894737 L17.3615789,26.8442105 L17.4210526,26.8442105 L17.4210526,26.8989474 L17.4757895,26.8989474 L17.4757895,26.9542105 L17.5315789,26.9542105 L17.5315789,27.0105263 L17.5868421,27.0105263 L17.5868421,27.0652632 L17.6421053,27.0652632 L17.6421053,27.1205263 L17.6968421,27.1205263 L17.6968421,27.1752632 L17.7526316,27.1752632 L17.7526316,27.2310526 L17.8078947,27.2310526 L17.8078947,27.2857895 L17.8626316,27.2857895 L17.8626316,27.3410526 L17.9184211,27.3410526 L17.9184211,27.3963158 L17.9742105,27.3963158 L17.9742105,27.4515789 L18.0289474,27.4515789 L18.0289474,27.5068421 L18.0852632,27.5068421 L18.0852632,27.5615789 L18.14,27.5615789 L18.14,27.6173684 L18.2084211,27.6173684 L18.2084211,27.6726316 L18.2631579,27.6726316 L18.2631579,27.7368421 L18.3189474,27.7368421 L18.3189474,27.7915789 L18.3736842,27.7915789 L18.3736842,27.8468421 L18.4284211,27.8468421 L18.4284211,27.9021053 L18.4842105,27.9021053 L18.4842105,27.9573684 L18.54,27.9573684 L18.54,28.0126316 L18.5947368,28.0126316 L18.5947368,28.0673684 L18.6505263,28.0673684 L18.6505263,28.1231579 L18.7052632,28.1231579 L18.7052632,28.1778947 L18.76,28.1778947 L18.76,28.2336842 L18.8157895,28.2336842 L18.8157895,28.2884211 L18.8715789,28.2884211 L18.8715789,28.3431579 L18.9268421,28.3431579 L18.9268421,28.3989474 L18.9821053,28.3989474 L18.9821053,28.4547368 L19.0373684,28.4547368 L19.0373684,28.5094737 L19.0926316,28.5094737 L19.0926316,28.5642105 L19.1578947,28.5642105 L19.1578947,28.6205263 L19.2126316,28.6205263 L19.2126316,28.6752632 L19.2678947,28.6752632 L19.2678947,28.7310526 L19.3236842,28.7310526 L19.3236842,28.7857895 L19.3794737,28.7857895 L19.3794737,28.8405263 L19.4342105,28.8405263 L19.4342105,28.8963158 L19.4905263,28.8963158 L19.4905263,28.9510526 L19.5452632,28.9510526 L19.5452632,29.0068421 L19.6010526,29.0068421 L19.6010526,29.0615789 L19.6568421,29.0615789 L19.6568421,29.1168421 L19.7121053,29.1168421 L19.7121053,29.1721053 L19.7863158,29.1721053 L19.7863158,29.2278947 L19.8421053,29.2278947 L19.8421053,29.2826316 L19.8968421,29.2826316 L19.8968421,29.3378947 L19.9521053,29.3378947 L19.9521053,29.3931579 L20.0073684,29.3931579 L20.0073684,29.4478947 L20.0626316,29.4478947 L20.0626316,29.5036842 L20.1178947,29.5036842 L20.1178947,29.5589474 L20.1731579,29.5589474 L20.1731579,29.6142105 L20.2284211,29.6142105 L20.2284211,29.6694737 L20.2842105,29.6694737 L20.2842105,29.7247368 L20.3389474,29.7247368 L20.3389474,29.7894737 L20.3942105,29.7894737 L20.3942105,29.8447368 L20.4494737,29.8447368 L20.4494737,29.9 L20.5052632,29.9 L20.5052632,29.9547368 L20.56,29.9547368 L20.56,30.0105263 L20.6152632,30.0105263 L20.6152632,30.0657895 L20.6710526,30.0657895 L20.6710526,30.1205263 L20.7268421,30.1205263 L20.7268421,30.1763158 L20.7815789,30.1763158 L20.7815789,30.2310526 L20.8421053,30.2310526 L20.8421053,30.2873684 L20.8978947,30.2873684 L20.8978947,30.3421053 L20.9526316,30.3421053 L20.9526316,30.3978947 L21.0084211,30.3978947 L21.0084211,30.4531579 L21.0631579,30.4531579 L21.0631579,30.5078947 L21.1184211,30.5078947 L21.1184211,30.5789474 L21.1747368,30.5789474 L21.1747368,30.6336842 L21.2294737,30.6336842 L21.2294737,30.6894737 L21.2842105,30.6894737 L21.2842105,30.7442105 L21.3405263,30.7442105 L21.3405263,30.7989474 L21.3952632,30.7989474 L21.3952632,30.8547368 L21.4510526,30.8547368 L21.4510526,30.9105263 L21.5063158,30.9105263 L21.5063158,30.9652632 L21.5621053,30.9652632 L21.5621053,31.02 L21.6173684,31.02 L21.6173684,31.0752632 L21.6726316,31.0752632 L21.6726316,31.1305263 L21.7273684,31.1305263 L21.7273684,31.1863158 L21.7831579,31.1863158 L21.7831579,31.2415789 L21.8421053,31.2415789 L21.8421053,31.2963158 L21.8973684,31.2963158 L21.8973684,31.3521053 L21.9521053,31.3521053 L21.9521053,31.4068421 L22.0078947,31.4068421 L22.0078947,31.4626316 L22.0631579,31.4626316 L22.0631579,31.5173684 L22.1178947,31.5173684 L22.1178947,31.5726316 L22.1736842,31.5726316 L22.1736842,31.6278947 L22.2294737,31.6278947 L22.2294737,31.6831579 L22.2847368,31.6831579 L22.2847368,31.7384211 L22.34,31.7384211 L22.34,31.7936842 L22.3952632,31.7936842 L22.3952632,31.8489474 L22.45,31.8489474 L22.45,31.9036842 L22.5057895,31.9036842 L22.5057895,31.9594737 L22.5610526,31.9594737 L22.5610526,32.0526316 L22.6163158,32.0526316 L22.6163158,32.1073684 L22.6721053,32.1073684 L22.6721053,32.1621053 L22.7268421,32.1621053 L22.7268421,32.2178947 L22.7821053,32.2178947 L22.7821053,32.2736842 L22.8373684,32.2736842 L22.8373684,32.3284211 L22.8926316,32.3284211 L22.8926316,32.3836842 L22.9478947,32.3836842 L22.9478947,32.4384211 L23.0031579,32.4384211 L23.0031579,32.4942105 L23.0584211,32.4942105 L23.0584211,32.55 L23.1136842,32.55 L23.1136842,32.6047368 L23.1689474,32.6047368 L23.1689474,32.66 L23.2242105,32.66 L23.2242105,32.7152632 L23.2794737,32.7152632 L23.2794737,32.7715789 L23.3347368,32.7715789 L23.3347368,32.8263158 L23.3905263,32.8263158 L23.3905263,32.8815789 L23.4452632,32.8815789 L23.4452632,32.9368421 L23.5005263,32.9368421 L23.5005263,33 L23.5568421,33 L23.5568421,33.0547368 L23.6115789,33.0547368 L23.6115789,33.11 L23.6668421,33.11 L23.6668421,33.1652632 L23.7226316,33.1652632 L23.7226316,33.2205263 L23.7784211,33.2205263 L23.7784211,33.2757895 L23.8331579,33.2757895 L23.8331579,33.3310526 L23.8878947,33.3310526 L23.8878947,33.3863158 L23.9431579,33.3863158 L23.9431579,33.4415789 L23.9984211,33.4415789 L23.9984211,33.4968421 L24.0536842,33.4968421 L24.0536842,33.5515789 L24.1089474,33.5515789 L24.1089474,33.6073684 L24.1652632,33.6073684 L24.1652632,33.6626316 L24.2205263,33.6626316 L24.2205263,33.7178947 L24.2757895,33.7178947 L24.2757895,33.7726316 L24.3305263,33.7726316 L24.3305263,33.8284211 L24.3852632,33.8284211 L24.3852632,33.8831579 L24.4410526,33.8831579 L24.4410526,33.9473684 L24.4968421,33.9473684 L24.4968421,34.0026316 L24.5515789,34.0026316 L24.5515789,34.0573684 L24.6063158,34.0573684 L24.6063158,34.1121053 L24.6621053,34.1121053 L24.6621053,34.1678947 L24.7178947,34.1678947 L24.7178947,34.2236842 L24.7726316,34.2236842 L24.7726316,34.2784211 L24.8273684,34.2784211 L24.8273684,34.3331579 L24.8836842,34.3331579 L24.8836842,34.3884211 L24.9389474,34.3884211 L24.9389474,34.4442105 L24.9936842,34.4442105 L24.9936842,34.5 L25.0494737,34.5 L25.0494737,34.5547368 L25.1047368,34.5547368 L25.1047368,34.6094737 L25.16,34.6094737 L25.16,34.6652632 L25.2152632,34.6652632 L25.2152632,34.7210526 L25.2705263,34.7210526 L25.2705263,34.7757895 L25.3257895,34.7757895 L25.3257895,34.8310526 L25.3810526,34.8310526 L25.3810526,34.8863158 L25.4363158,34.8863158 L25.4363158,34.9415789 L25.4910526,34.9415789 L25.4910526,34.9973684 L25.5468421,34.9973684 L25.5468421,35.0521053 L25.6021053,35.0521053 L25.6021053,35.1073684 L25.6573684,35.1073684 L25.6573684,35.1626316 L25.7131579,35.1626316 L25.7131579,35.2173684 L25.7678947,35.2173684 L25.7678947,35.2731579 L25.8231579,35.2731579 L25.8231579,35.3284211 L25.8784211,35.3284211 L25.8784211,35.3836842 L25.9336842,35.3836842 L25.9336842,35.4389474 L25.9889474,35.4389474 L25.9889474,35.4936842 L26.0442105,35.4936842 L26.0442105,35.5494737 L26.0994737,35.5494737 L26.0994737,35.6047368 L26.1547368,35.6047368 L26.1547368,35.66 L26.2105263,35.66 L26.2105263,35.7147368 L26.2652632,35.7147368 L26.2652632,35.7705263 L26.3205263,35.7705263 L26.3205263,35.8421053 L26.3757895,35.8421053 L26.3757895,35.8973684 L26.4315789,35.8973684 L26.4315789,35.9526316 L26.4863158,35.9526316 L26.4863158,36.0073684 L26.5415789,36.0073684 L26.5415789,36.0631579 L26.5968421,36.0631579 L26.5968421,36.1184211 L26.6526316,36.1184211 L26.6526316,36.1736842 L26.7073684,36.1736842 L26.7073684,36.2284211 L26.7626316,36.2284211 L26.7626316,36.2842105 L26.8189474,36.2842105 L26.8189474,36.3389474 L26.8742105,36.3389474 L26.8742105,36.3942105 L26.9289474,36.3942105 L26.9289474,36.45 L26.9836842,36.45 L26.9836842,36.5052632 L27.0389474,36.5052632 L27.0389474,36.56 L27.0952632,36.56 L27.0952632,36.6157895 L27.15,36.6157895 L27.15,36.6705263 L27.2631579,36.6705263 L27.2631579,36.7263158 L27.3178947,36.7263158 L27.3178947,36.7810526 L27.3731579,36.7810526 L27.3731579,36.8363158 L27.4289474,36.8363158 L27.4289474,36.8915789 L27.4836842,36.8915789 L27.4836842,36.9473684 L27.5394737,36.9473684 L27.5394737,37.0021053 L27.5952632,37.0021053 L27.5952632,37.0573684 L27.65,37.0573684 L27.65,37.1126316 L27.7047368,37.1126316 L27.7047368,37.1673684 L27.7605263,37.1673684 L27.7605263,37.2231579 L27.8163158,37.2231579 L27.8163158,37.2784211 L27.8710526,37.2784211 L27.8710526,37.3684211 L31.0289474,37.3684211 L31.0289474,30 L33.1342105,30 L33.6605263,27.3684211 L33.5936842,27.3684211 L33.6047368,27.3131579 L33.5421053,27.3131579 L33.5531579,27.2578947 L33.4857895,27.2578947 L33.4968421,27.2031579 L33.4289474,27.2031579 L33.44,27.1473684 L33.3721053,27.1473684 L33.3831579,27.0915789 L33.3157895,27.0915789 L33.3268421,27.0368421 L33.26,27.0368421 L33.2710526,26.9810526 L33.2036842,26.9810526 L33.2147368,26.9257895 L33.1831579,26.9257895 L33.1942105,26.8705263 L33.1273684,26.8705263 L33.1384211,26.8152632 L33.0710526,26.8152632 L33.0821053,26.7605263 L33.0157895,26.7605263 L33.0268421,26.7057895 L32.9594737,26.7057895 L32.9705263,26.65 L32.9026316,26.65 L32.9136842,26.5942105 L32.8463158,26.5942105 L32.8573684,26.5394737 L32.7905263,26.5394737 L32.8015789,26.4847368 L32.7342105,26.4847368 L32.7452632,26.4289474 L32.6778947,26.4289474 L32.6889474,26.3731579 L32.6210526,26.3731579 L32.6321053,26.3184211 L32.5684211,26.3184211 L32.5794737,26.2631579 L32.5126316,26.2631579 L32.5236842,26.2078947 L32.4563158,26.2078947 L32.4673684,26.1526316 L32.3994737,26.1526316 L32.4105263,26.0968421 L32.3431579,26.0968421 L32.3542105,26.0421053 L32.2873684,26.0421053 L32.2984211,25.9868421 L32.2310526,25.9868421 L32.2421053,25.9310526 L32.1747368,25.9310526 L32.1857895,25.8763158 L32.1178947,25.8763158 L32.1289474,25.8205263 L32.0615789,25.8205263 L32.0726316,25.7652632 L32.0057895,25.7652632 L32.0168421,25.71 L31.9494737,25.71 L31.9605263,25.6547368 L31.8926316,25.6547368 L31.9036842,25.6 L31.8363158,25.6 L31.8473684,25.5442105 L31.7805263,25.5442105 L31.7915789,25.4889474 L31.7236842,25.4889474 L31.7347368,25.4336842 L31.6678947,25.4336842 L31.6789474,25.3789474 L31.6121053,25.3789474 L31.6231579,25.3231579 L31.5557895,25.3231579 L31.5668421,25.2678947 L31.4989474,25.2678947 L31.51,25.2126316 L31.4426316,25.2126316 L31.4536842,25.1578947 L31.3868421,25.1578947 L31.3978947,25.1031579 L31.3305263,25.1031579 L31.3415789,25.0478947 L31.2736842,25.0478947 L31.2847368,24.9921053 L31.2168421,24.9921053 L31.2278947,24.9368421 L31.1689474,24.9368421 L31.18,24.8815789 L31.1252632,24.8815789 C31.2668421,24.3710526 31.7121053,24.2105263 32.6468421,24.2105263 L32.6468421,24.2105263 Z" id="Shape" fill="url(#linearGradient-4)" opacity="0.5" mask="url(#mask-3)"></path>
                                </g>
                            </g>
                            <path d="M16.3157895,13.1578947 L16.8421053,10.5263158 L14.2105263,10.5268421 L14.2105263,8.42105263 C14.2105263,7.60842105 14.6231579,7.36842105 15.7894737,7.36842105 L16.8421053,7.36842105 L16.8421053,4.73684211 L14.7368421,4.73684211 C12.5936842,4.73684211 11.0526316,6.01842105 11.0526316,8.42105263 L11.0526316,10.5263158 L8.42105263,10.5263158 L8.42105263,13.1578947 L11.0526316,13.1578947 L11.0526316,20.5263158 L14.2105263,20.5263158 L14.2105263,13.1578947 L16.3157895,13.1578947 L16.3157895,13.1578947 Z" id="f_1_" fill="#F26631"></path>
                        </g>
                    </g>
                </g>
            </g>
        </g>
    </g>
</svg>