<?xml version="1.0" encoding="UTF-8"?>
<svg width="30px" height="30px" viewBox="0 0 30 30" version="1.1" xmlns="http://www.w3.org/2000/svg" xmlns:xlink="http://www.w3.org/1999/xlink">
    <!-- Generator: Sketch 3.8.3 (29802) - http://www.bohemiancoding.com/sketch -->
    <title>Linked.in</title>
    <desc>Created with Sketch.</desc>
    <defs>
        <linearGradient x1="100.004493%" y1="100%" x2="34.6569328%" y2="34.6537747%" id="linearGradient-1">
            <stop stop-color="#FFFFFF" stop-opacity="0" offset="31.63%"></stop>
            <stop stop-color="#E9E9E9" stop-opacity="0.0504" offset="35.08%"></stop>
            <stop stop-color="#ACACAC" stop-opacity="0.2018" offset="45.43%"></stop>
            <stop stop-color="#787878" stop-opacity="0.3523" offset="55.72%"></stop>
            <stop stop-color="#4D4D4D" stop-opacity="0.4981" offset="65.69%"></stop>
            <stop stop-color="#2B2B2B" stop-opacity="0.6385" offset="75.28%"></stop>
            <stop stop-color="#131313" stop-opacity="0.7719" offset="84.41%"></stop>
            <stop stop-color="#050505" stop-opacity="0.8956" offset="92.86%"></stop>
            <stop stop-color="#000000" offset="100%"></stop>
        </linearGradient>
        <circle id="path-2" cx="12.6468421" cy="12.6315789" r="12.6315789"></circle>
        <linearGradient x1="95.1626308%" y1="104.844138%" x2="-3.27042617%" y2="6.33586207%" id="linearGradient-4">
            <stop stop-color="#000000" stop-opacity="0" offset="52.55%"></stop>
            <stop stop-color="#000000" stop-opacity="0.1133" offset="57.92%"></stop>
            <stop stop-color="#000000" offset="100%"></stop>
        </linearGradient>
    </defs>
    <g id="Page-1" stroke="none" stroke-width="1" fill="none" fill-rule="evenodd">
        <g id="Home" transform="translate(-1253.000000, -2957.000000)">
            <g id="footer" transform="translate(0.000000, 2842.000000)">
                <g id="social" transform="translate(1179.000000, 36.000000)">
                    <g id="1471313984_linkedin" transform="translate(74.000000, 79.000000)">
                        <g id="Linked.in">
                            <polygon id="Circle_Shadow" fill="url(#linearGradient-1)" opacity="0.2" points="29.4889474 29.4736842 29.4889474 11.61 21.5789474 3.69947368 3.71526316 21.5636842 11.6252632 29.4736842"></polygon>
                            <ellipse id="Circle" fill="#FFFFFF" cx="12.6315789" cy="12.6315789" rx="12.6315789" ry="12.6315789"></ellipse>
                            <g id="in_Shadow">
                                <g id="Clipped">
                                    <mask id="mask-3" fill="white">
                                        <use xlink:href="#path-2"></use>
                                    </mask>
                                    <g id="SVGID_1_"></g>
                                    <path d="M35.5357895,27.8384211 C35.5163158,27.82 35.4989474,27.7994737 35.4789474,27.7831579 C35.4594737,27.7647368 35.4421053,27.7442105 35.4215789,27.7268421 C35.4036842,27.7094737 35.3863158,27.69 35.3668421,27.6721053 C35.3473684,27.6536842 35.33,27.6331579 35.3094737,27.6152632 C35.2905263,27.5978947 35.2747368,27.5784211 35.2542105,27.5605263 C35.2347368,27.5426316 35.2184211,27.5221053 35.1978947,27.5047368 C35.1789474,27.4868421 35.1621053,27.4673684 35.1426316,27.45 C35.1231579,27.4321053 35.1057895,27.4115789 35.0863158,27.3942105 C35.0663158,27.3752632 35.0484211,27.3547368 35.0273684,27.3373684 C35.0094737,27.32 34.9931579,27.3015789 34.9731579,27.2831579 C34.9526316,27.2647368 34.9357895,27.2436842 34.9147368,27.2263158 C34.8957895,27.2089474 34.88,27.1894737 34.86,27.1715789 C34.8394737,27.1531579 34.8221053,27.1326316 34.8021053,27.1157895 C34.7831579,27.0973684 34.7657895,27.0778947 34.7463158,27.0605263 C34.7268421,27.0426316 34.7105263,27.0226316 34.69,27.0052632 C34.6710526,26.9868421 34.6542105,26.9663158 34.6336842,26.9494737 C34.6142105,26.9315789 34.5978947,26.9115789 34.5773684,26.8936842 C34.5578947,26.8752632 34.5405263,26.8557895 34.5205263,26.8384211 C34.5015789,26.8215789 34.4852632,26.8015789 34.4657895,26.7836842 C34.4463158,26.7657895 34.4294737,26.7452632 34.4089474,26.7278947 C34.39,26.7094737 34.3731579,26.6905263 34.3531579,26.6731579 C34.3336842,26.6547368 34.3173684,26.6347368 34.2968421,26.6173684 C34.2773684,26.5994737 34.2605263,26.5789474 34.2405263,26.5621053 C34.2210526,26.5442105 34.2047368,26.5242105 34.1852632,26.5073684 C34.1647368,26.4878947 34.1468421,26.4673684 34.1252632,26.4489474 C34.1078947,26.4326316 34.0921053,26.4136842 34.0731579,26.3963158 C34.0526316,26.3768421 34.0331579,26.3563158 34.0115789,26.3368421 C33.9936842,26.32 33.9784211,26.3010526 33.9573684,26.2831579 C33.9384211,26.2647368 33.92,26.2442105 33.8994737,26.2268421 C33.8815789,26.2084211 33.8647368,26.1894737 33.8447368,26.1721053 C33.8252632,26.1542105 33.8084211,26.1336842 33.7889474,26.1163158 C33.7684211,26.0984211 33.7521053,26.0778947 33.7315789,26.0605263 C33.7121053,26.0426316 33.6952632,26.0231579 33.6752632,26.0057895 C33.6557895,25.9873684 33.6384211,25.9678947 33.6178947,25.95 C33.6,25.9326316 33.5836842,25.9136842 33.5631579,25.8957895 C33.5436842,25.8763158 33.5263158,25.8557895 33.5057895,25.8384211 C33.4863158,25.8205263 33.4705263,25.8010526 33.4505263,25.7836842 C33.4310526,25.7652632 33.4136842,25.7452632 33.3942105,25.7278947 C33.3747368,25.7094737 33.3573684,25.6889474 33.3368421,25.6721053 C33.3173684,25.6547368 33.3010526,25.6342105 33.2815789,25.6173684 C33.2621053,25.5989474 33.2447368,25.5784211 33.2242105,25.5605263 C33.2052632,25.5431579 33.1889474,25.5236842 33.1694737,25.5057895 C33.1505263,25.4873684 33.1331579,25.4678947 33.1136842,25.45 C33.0942105,25.4321053 33.0768421,25.4115789 33.0563158,25.3942105 C33.0373684,25.3763158 33.0205263,25.3568421 33,25.3389474 C32.9805263,25.3215789 32.9647368,25.3021053 32.9452632,25.2842105 C32.9257895,25.2663158 32.9089474,25.2463158 32.8884211,25.2289474 C32.8689474,25.2105263 32.8526316,25.19 32.8321053,25.1726316 C32.8126316,25.1557895 32.7963158,25.1363158 32.7768421,25.1178947 C32.7573684,25.0994737 32.74,25.0789474 32.7194737,25.0615789 C32.7,25.0431579 32.6831579,25.0231579 32.6626316,25.0057895 C32.6442105,24.9889474 32.6284211,24.9694737 32.6078947,24.9510526 C32.5884211,24.9326316 32.5715789,24.9121053 32.5510526,24.8952632 C32.5315789,24.8768421 32.5142105,24.8568421 32.4942105,24.8394737 C32.4757895,24.8221053 32.4584211,24.8015789 32.4389474,24.7847368 C32.4194737,24.7663158 32.4021053,24.7457895 32.3815789,24.7294737 C32.3626316,24.7110526 32.3457895,24.6905263 32.3252632,24.6736842 C32.3068421,24.6552632 32.2910526,24.6357895 32.2705263,24.6189474 C32.2510526,24.6005263 32.2342105,24.58 32.2136842,24.5615789 C32.1942105,24.5442105 32.1768421,24.5236842 32.1563158,24.5063158 C32.1378947,24.4889474 32.1215789,24.4694737 32.1015789,24.4515789 C32.0821053,24.4331579 32.0636842,24.4126316 32.0431579,24.3942105 C32.0247368,24.3768421 32.0084211,24.3573684 31.9878947,24.3394737 C31.9684211,24.3210526 31.9510526,24.3005263 31.9305263,24.2831579 C31.9121053,24.2657895 31.8963158,24.2463158 31.8757895,24.2284211 C31.8563158,24.2089474 31.8389474,24.1884211 31.8184211,24.1710526 C31.7989474,24.1536842 31.7826316,24.1331579 31.7626316,24.1163158 C31.7431579,24.0978947 31.7257895,24.0773684 31.7052632,24.06 C31.6863158,24.0415789 31.6689474,24.0210526 31.6484211,24.0042105 C31.63,23.9863158 31.6136842,23.9668421 31.5936842,23.9494737 C31.5742105,23.9315789 31.5568421,23.9121053 31.5363158,23.8936842 C31.5178947,23.8768421 31.5021053,23.8573684 31.4815789,23.8389474 C31.4621053,23.8210526 31.4452632,23.8005263 31.4247368,23.7821053 C31.4052632,23.7647368 31.3889474,23.7457895 31.3689474,23.7273684 C31.35,23.7089474 31.3326316,23.69 31.3121053,23.6715789 C31.2926316,23.6531579 31.2752632,23.6331579 31.2547368,23.6147368 C31.2363158,23.5973684 31.2205263,23.5789474 31.2,23.5605263 C31.1805263,23.5421053 31.1636842,23.5215789 31.1421053,23.5036842 C31.1236842,23.4863158 31.1073684,23.4668421 31.0873684,23.4494737 C31.0678947,23.4310526 31.0505263,23.4105263 31.03,23.3926316 C31.0115789,23.3752632 30.9942105,23.3547368 30.9747368,23.3378947 C30.9547368,23.3189474 30.9373684,23.2984211 30.9168421,23.2810526 C30.8973684,23.2636842 30.8815789,23.2431579 30.8610526,23.2257895 C30.8426316,23.2089474 30.8263158,23.1894737 30.8057895,23.1710526 C30.7863158,23.1536842 30.77,23.1331579 30.7494737,23.1157895 C30.73,23.0973684 30.7142105,23.0784211 30.6942105,23.0610526 C30.6752632,23.0426316 30.6578947,23.0226316 30.6378947,23.0052632 C30.6184211,22.9868421 30.6,22.9663158 30.5794737,22.9489474 C30.5615789,22.9315789 30.5457895,22.9126316 30.5252632,22.8942105 C30.5052632,22.8757895 30.4868421,22.8542105 30.4652632,22.8368421 C30.4468421,22.8184211 30.4305263,22.7989474 30.4105263,22.7821053 C30.3910526,22.7636842 30.3747368,22.7431579 30.3542105,22.7263158 C30.3357895,22.7089474 30.3189474,22.6884211 30.2989474,22.6715789 C30.2789474,22.6531579 30.2615789,22.6326316 30.2410526,22.6142105 C30.2221053,22.5968421 30.2057895,22.5773684 30.1852632,22.5594737 C30.1668421,22.5421053 30.1505263,22.5226316 30.1305263,22.5047368 C30.11,22.4857895 30.0926316,22.4657895 30.0710526,22.4473684 C30.0536842,22.43 30.0368421,22.4105263 30.0163158,22.3926316 C29.9968421,22.3742105 29.9794737,22.3536842 29.9589474,22.3363158 C29.9394737,22.3178947 29.9231579,22.2973684 29.9031579,22.2810526 C29.8836842,22.2626316 29.8673684,22.2431579 29.8468421,22.2263158 C29.8289474,22.2078947 29.8115789,22.1884211 29.7910526,22.1715789 C29.7721053,22.1531579 29.7547368,22.1326316 29.7347368,22.1152632 C29.7152632,22.0968421 29.6978947,22.0763158 29.6773684,22.0589474 C29.6589474,22.0426316 29.6436842,22.0231579 29.6231579,22.0052632 C29.6026316,21.9857895 29.5847368,21.9652632 29.5631579,21.9468421 C29.5447368,21.9294737 29.5284211,21.91 29.5078947,21.8921053 C29.4889474,21.8742105 29.4721053,21.8547368 29.4521053,21.8373684 C29.4342105,21.8194737 29.4168421,21.8 29.3963158,21.7826316 C29.3778947,21.7642105 29.3605263,21.7447368 29.3405263,21.7263158 C29.3215789,21.7078947 29.3042105,21.6884211 29.2836842,21.6710526 C29.2642105,21.6531579 29.2478947,21.6331579 29.2278947,21.6163158 C29.2078947,21.5978947 29.1910526,21.5778947 29.1694737,21.5594737 C29.1515789,21.5421053 29.1352632,21.5226316 29.1147368,21.5047368 C29.0952632,21.4873684 29.0789474,21.4668421 29.0589474,21.4494737 C29.04,21.4321053 29.0226316,21.4121053 29.0031579,21.3947368 C28.9836842,21.3763158 28.9668421,21.3568421 28.9468421,21.3389474 C28.9273684,21.3215789 28.9110526,21.3010526 28.8905263,21.2836842 C28.87,21.2647368 28.8526316,21.2447368 28.8321053,21.2263158 C28.8136842,21.2089474 28.7978947,21.1905263 28.7773684,21.1726316 C28.7578947,21.1536842 28.7405263,21.1336842 28.72,21.1163158 C28.7015789,21.0978947 28.6847368,21.0794737 28.6652632,21.0615789 C28.6452632,21.0431579 28.6278947,21.0226316 28.6073684,21.0057895 C28.5889474,20.9878947 28.5731579,20.9684211 28.5526316,20.9510526 C28.5326316,20.9321053 28.5157895,20.9115789 28.4942105,20.8931579 C28.4757895,20.8763158 28.4594737,20.8568421 28.4394737,20.8389474 C28.4205263,20.8205263 28.4031579,20.8005263 28.3826316,20.7826316 C28.3631579,20.7652632 28.3457895,20.7447368 28.3263158,20.7273684 C28.3078947,20.71 28.2910526,20.6905263 28.2710526,20.6726316 C28.2515789,20.6547368 28.2352632,20.6342105 28.2147368,20.6173684 C28.1952632,20.5989474 28.1789474,20.5784211 28.1589474,20.5615789 C28.1389474,20.5431579 28.1215789,20.5231579 28.1010526,20.5047368 C28.0826316,20.4873684 28.0673684,20.4689474 28.0463158,20.4510526 C28.0257895,20.4315789 28.0078947,20.4110526 27.9868421,20.3926316 C27.9673684,20.3752632 27.9510526,20.3557895 27.9315789,20.3378947 C27.9126316,20.32 27.8963158,20.3005263 27.8768421,20.2831579 C27.8568421,20.2652632 27.8405263,20.2447368 27.82,20.2273684 C27.8005263,20.2089474 27.7842105,20.1889474 27.7642105,20.1715789 C27.7442105,20.1536842 27.7268421,20.1331579 27.7063158,20.1147368 C27.6878947,20.0984211 27.6705263,20.0789474 27.6515789,20.0605263 C27.6326316,20.0415789 27.6147368,20.0210526 27.5942105,20.0036842 C27.5752632,19.9863158 27.56,19.9673684 27.5394737,19.9489474 C27.5189474,19.93 27.5021053,19.9094737 27.4810526,19.8926316 C27.4621053,19.8742105 27.4452632,19.8547368 27.4257895,19.8378947 C27.4073684,19.82 27.3910526,19.8 27.3710526,19.7831579 C27.3515789,19.7647368 27.3336842,19.7442105 27.3131579,19.7268421 C27.2936842,19.7089474 27.2773684,19.6889474 27.2573684,19.6721053 C27.2378947,19.6542105 27.2210526,19.6336842 27.2005263,19.6163158 C27.1821053,19.5984211 27.1657895,19.5789474 27.1457895,19.5615789 C27.1252632,19.5436842 27.1078947,19.5231579 27.0873684,19.5047368 C27.0684211,19.4878947 27.0526316,19.4684211 27.0321053,19.45 C27.0136842,19.4315789 26.9968421,19.4121053 26.9773684,19.3947368 C26.9578947,19.3768421 26.94,19.3563158 26.9194737,19.3384211 C26.9,19.32 26.8836842,19.3 26.8631579,19.2831579 C26.8436842,19.2657895 26.8273684,19.2457895 26.8073684,19.2284211 C26.7884211,19.2105263 26.7721053,19.1910526 26.7526316,19.1736842 C26.7321053,19.1552632 26.7152632,19.1347368 26.6947368,19.1178947 C26.6757895,19.0994737 26.6594737,19.08 26.6389474,19.0631579 C26.6205263,19.0447368 26.6031579,19.0252632 26.5826316,19.0078947 C26.5631579,18.9889474 26.5457895,18.9689474 26.5252632,18.9510526 C26.5068421,18.9342105 26.4915789,18.9147368 26.4715789,18.8978947 C26.4510526,18.8789474 26.4336842,18.8578947 26.4126316,18.8394737 C26.3931579,18.8221053 26.3763158,18.8015789 26.3557895,18.7842105 C26.3363158,18.7668421 26.3205263,18.7473684 26.3010526,18.7294737 C26.2815789,18.7110526 26.2647368,18.6915789 26.2442105,18.6742105 C26.2247368,18.6557895 26.2084211,18.6363158 26.1878947,18.6184211 C26.1684211,18.6005263 26.1526316,18.5810526 26.1326316,18.5636842 C26.1131579,18.5457895 26.0968421,18.5263158 26.0763158,18.5089474 C26.0563158,18.49 26.0389474,18.4689474 26.0173684,18.4510526 C25.9994737,18.4347368 25.9831579,18.4152632 25.9631579,18.3978947 C25.9436842,18.3789474 25.9257895,18.3584211 25.9052632,18.3410526 C25.8857895,18.3226316 25.8689474,18.3031579 25.8484211,18.2847368 C25.83,18.2678947 25.8147368,18.2484211 25.7936842,18.23 C25.7742105,18.2126316 25.7563158,18.1910526 25.7357895,18.1736842 C25.7168421,18.1557895 25.7005263,18.1357895 25.68,18.1189474 C25.6610526,18.1 25.6436842,18.0794737 25.6231579,18.0621053 C25.6042105,18.0452632 25.5889474,18.0263158 25.5684211,18.0078947 C25.5489474,17.9889474 25.5315789,17.9684211 25.51,17.95 C25.4905263,17.9315789 25.4736842,17.9126316 25.4536842,17.8952632 C25.4352632,17.8773684 25.4189474,17.8578947 25.3989474,17.8405263 C25.3794737,17.8221053 25.3631579,17.8021053 25.3426316,17.7847368 C25.3226316,17.7663158 25.3052632,17.7457895 25.2847368,17.7278947 C25.2663158,17.7105263 25.25,17.6910526 25.2294737,17.6731579 C25.2110526,17.6557895 25.1947368,17.6363158 25.1747368,17.6184211 C25.1542105,17.6 25.1373684,17.5794737 25.1168421,17.5610526 C25.0973684,17.5442105 25.0815789,17.5247368 25.0621053,17.5063158 C25.0426316,17.4878947 25.0252632,17.4673684 25.0036842,17.4489474 C24.9852632,17.4315789 24.9689474,17.4121053 24.9489474,17.3942105 C24.9289474,17.3763158 24.9121053,17.3557895 24.8915789,17.3384211 C24.8721053,17.32 24.8563158,17.2994737 24.8357895,17.2826316 C24.8163158,17.2647368 24.7994737,17.2452632 24.78,17.2278947 C24.7605263,17.2094737 24.7431579,17.1894737 24.7226316,17.1721053 C24.7042105,17.1547368 24.6878947,17.1347368 24.6678947,17.1173684 C24.6478947,17.1 24.6310526,17.0794737 24.6105263,17.0621053 C24.5915789,17.0442105 24.5752632,17.0242105 24.5547368,17.0068421 C24.5357895,16.9894737 24.5184211,16.9689474 24.4989474,16.9521053 C24.4794737,16.9336842 24.4621053,16.9136842 24.4415789,16.8963158 C24.4221053,16.8778947 24.4047368,16.8584211 24.3852632,16.8410526 C24.3657895,16.8226316 24.3489474,16.8026316 24.3289474,16.7852632 C24.31,16.7684211 24.2936842,16.7489474 24.2742105,16.7305263 C24.2547368,16.7121053 24.2373684,16.6915789 24.2157895,16.6742105 C24.1973684,16.6563158 24.1810526,16.6368421 24.1605263,16.6194737 C24.1410526,16.6021053 24.1247368,16.5815789 24.1052632,16.5647368 C24.0857895,16.5468421 24.0689474,16.5263158 24.0484211,16.5078947 C24.0289474,16.4910526 24.0131579,16.4715789 23.9926316,16.4531579 C23.9731579,16.4347368 23.9568421,16.4152632 23.9363158,16.3968421 C23.9168421,16.3784211 23.8994737,16.3594737 23.8789474,16.3410526 C23.8605263,16.3236842 23.8442105,16.3042105 23.8242105,16.2863158 C23.8047368,16.2678947 23.7884211,16.2489474 23.7678947,16.2315789 C23.7489474,16.2131579 23.7305263,16.1926316 23.71,16.1747368 C23.6915789,16.1573684 23.6757895,16.1389474 23.6552632,16.1205263 C23.6357895,16.1010526 23.6173684,16.0805263 23.5968421,16.0631579 C23.5784211,16.0452632 23.5615789,16.0257895 23.5415789,16.0084211 C23.5226316,15.9910526 23.5063158,15.9715789 23.4868421,15.9536842 C23.4663158,15.9347368 23.4489474,15.9142105 23.4273684,15.8957895 C23.4089474,15.8784211 23.3921053,15.8589474 23.3726316,15.8410526 C23.3531579,15.8231579 23.3368421,15.8036842 23.3173684,15.7863158 C23.2978947,15.7678947 23.2805263,15.7484211 23.26,15.73 C23.2410526,15.7126316 23.2242105,15.6931579 23.2047368,15.6752632 C23.1852632,15.6557895 23.1673684,15.6352632 23.1463158,15.6184211 C23.1278947,15.6010526 23.1126316,15.5821053 23.0915789,15.5642105 C23.0721053,15.5447368 23.0536842,15.5242105 23.0321053,15.5063158 C23.0142105,15.4889474 22.9978947,15.4694737 22.9773684,15.4515789 C22.9578947,15.4331579 22.9405263,15.4126316 22.9189474,15.3942105 C22.9005263,15.3763158 22.8831579,15.3568421 22.8626316,15.3394737 C22.8442105,15.3226316 22.8289474,15.3031579 22.8078947,15.2852632 C22.7873684,15.2663158 22.77,15.2457895 22.7484211,15.2263158 C22.7305263,15.21 22.7152632,15.1910526 22.6947368,15.1731579 C22.6742105,15.1536842 22.6557895,15.1326316 22.6342105,15.1142105 C22.6157895,15.0968421 22.6,15.0784211 22.5794737,15.06 C22.5594737,15.0415789 22.5426316,15.0210526 22.5221053,15.0042105 C22.5026316,14.9857895 22.4873684,14.9668421 22.4673684,14.9494737 C22.4478947,14.9310526 22.4305263,14.9105263 22.41,14.8931579 C22.39,14.8747368 22.3726316,14.8542105 22.3521053,14.8363158 C22.3336842,14.8194737 22.3178947,14.8 22.2973684,14.7821053 C22.2773684,14.7636842 22.2605263,14.7431579 22.24,14.7257895 C22.2205263,14.7084211 22.2047368,14.6889474 22.1847368,14.6710526 C22.1652632,14.6531579 22.1478947,14.6315789 22.1263158,14.6142105 C22.1078947,14.5963158 22.0915789,14.5768421 22.0715789,14.5594737 C22.0515789,14.5421053 22.0347368,14.5215789 22.0142105,14.5042105 C21.9957895,14.4857895 21.9794737,14.4663158 21.9594737,14.4489474 C21.9389474,14.4305263 21.9221053,14.4105263 21.9015789,14.3931579 C21.8821053,14.3747368 21.8642105,14.3542105 21.8436842,14.3363158 C21.8252632,14.3189474 21.8089474,14.2994737 21.7889474,14.2821053 C21.77,14.2636842 21.7542105,14.2431579 21.7336842,14.2263158 C21.7142105,14.2089474 21.6978947,14.1894737 21.6784211,14.1715789 C21.6584211,14.1531579 21.6405263,14.1326316 21.6194737,14.1142105 C21.6005263,14.0968421 21.5831579,14.0763158 21.5626316,14.0589474 C21.5442105,14.0421053 21.5289474,14.0226316 21.5078947,14.0042105 C21.4878947,13.9857895 21.47,13.9642105 21.4484211,13.9457895 C21.43,13.9294737 21.4152632,13.9105263 21.3947368,13.8931579 C21.3742105,13.8736842 21.3563158,13.8526316 21.3347368,13.8347368 C21.3168421,13.8173684 21.2994737,13.7978947 21.28,13.78 C21.2615789,13.7605263 21.2442105,13.7410526 21.2236842,13.7236842 C21.2042105,13.7052632 21.1878947,13.6857895 21.1684211,13.6689474 C21.1489474,13.6505263 21.1315789,13.63 21.1110526,13.6131579 C21.0926316,13.5947368 21.0763158,13.5752632 21.0557895,13.5584211 C21.0363158,13.54 21.02,13.5194737 21,13.5021053 C20.9805263,13.4842105 20.9631579,13.4636842 20.9426316,13.4452632 C20.9236842,13.4278947 20.9063158,13.4084211 20.8868421,13.39 C20.8673684,13.3726316 20.85,13.3531579 20.83,13.3347368 C20.8110526,13.3178947 20.7947368,13.2984211 20.7752632,13.28 C20.7557895,13.2615789 20.7394737,13.2421053 20.7189474,13.2247368 C20.6994737,13.2063158 20.6821053,13.1857895 20.6615789,13.1689474 C20.6431579,13.1505263 20.6268421,13.1315789 20.6063158,13.1142105 C20.5873684,13.0957895 20.57,13.0757895 20.55,13.0578947 C20.5305263,13.0405263 20.5142105,13.02 20.4936842,13.0031579 C20.4747368,12.9847368 20.4589474,12.9652632 20.4384211,12.9478947 C20.4189474,12.9289474 20.4015789,12.9084211 20.3810526,12.8905263 C20.3615789,12.8721053 20.3452632,12.8526316 20.3252632,12.8352632 C20.3057895,12.8168421 20.2889474,12.7973684 20.2694737,12.78 C20.25,12.7615789 20.2326316,12.7410526 20.2126316,12.7231579 C20.1931579,12.7052632 20.1768421,12.6852632 20.1568421,12.6678947 C20.1373684,12.65 20.1221053,12.63 20.1015789,12.6126316 C20.0821053,12.5936842 20.0647368,12.5736842 20.0442105,12.5557895 C20.0247368,12.5373684 20.0084211,12.5173684 19.9878947,12.5 C19.9684211,12.4815789 19.9526316,12.4615789 19.9321053,12.4442105 C19.9126316,12.4257895 19.8952632,12.4052632 19.8752632,12.3873684 C19.8568421,12.37 19.8405263,12.3505263 19.8205263,12.3336842 C19.8010526,12.3147368 19.7836842,12.2942105 19.7626316,12.2763158 C19.7431579,12.2578947 19.7257895,12.2378947 19.7063158,12.22 C19.6868421,12.2015789 19.6694737,12.1815789 19.65,12.1642105 C19.6305263,12.1457895 19.6142105,12.1257895 19.5936842,12.1084211 C19.5742105,12.0905263 19.5584211,12.0705263 19.5389474,12.0531579 C19.5184211,12.0347368 19.5015789,12.0142105 19.4810526,11.9963158 C19.4626316,11.9784211 19.4463158,11.9584211 19.4257895,11.9415789 C19.4063158,11.9226316 19.3889474,11.9021053 19.3684211,11.8842105 C19.35,11.8663158 19.3326316,11.8463158 19.3131579,11.8294737 C19.2952632,11.8121053 19.2789474,11.7926316 19.2584211,11.7752632 C19.2384211,11.7557895 19.2210526,11.7352632 19.1994737,11.7168421 C19.18,11.6984211 19.1626316,11.6789474 19.1436842,11.6615789 C19.1242105,11.6431579 19.1073684,11.6231579 19.0878947,11.6057895 C19.0684211,11.5873684 19.0510526,11.5673684 19.0315789,11.55 C19.0121053,11.5321053 18.9957895,11.5121053 18.9763158,11.4952632 C18.9568421,11.4763158 18.9384211,11.4557895 18.9178947,11.4378947 C18.8994737,11.4194737 18.8826316,11.4 18.8621053,11.3826316 C18.8436842,11.3642105 18.8268421,11.3447368 18.8063158,11.3273684 C18.7868421,11.3089474 18.7705263,11.2889474 18.75,11.2715789 C18.7315789,11.2531579 18.7147368,11.2331579 18.6947368,11.2157895 C18.6752632,11.1973684 18.6578947,11.1773684 18.6384211,11.1594737 C18.1621053,10.7105263 17.4342105,10.4584211 16.3189474,10.4584211 C15.4305263,10.4584211 14.7094737,10.7310526 14.2068421,11.1157895 L14.2068421,11.0052632 L14.1510526,11.0052632 L14.1510526,10.9494737 L14.0942105,10.9494737 L14.0942105,10.8936842 L13.9310526,10.8936842 L13.9310526,10.8378947 L13.8752632,10.8378947 L13.8752632,10.7821053 L13.8189474,10.7821053 L13.8189474,10.7263158 L13.7636842,10.7263158 L13.7636842,10.6705263 L13.7057895,10.6705263 L13.7057895,10.6152632 L13.6494737,10.6152632 L13.6494737,10.5594737 L13.5926316,10.5594737 L13.5926316,10.5036842 L13.5368421,10.5036842 L13.5368421,10.4478947 L13.4315789,10.4478947 L13.4315789,10.3921053 L12.7863158,10.3921053 C12.7736842,10.3789474 12.7589474,10.3678947 12.7452632,10.3552632 C12.7273684,10.3363158 12.7084211,10.3184211 12.6894737,10.3 C12.6705263,10.2805263 12.6515789,10.2621053 12.6321053,10.2436842 C12.6136842,10.2242105 12.5947368,10.2063158 12.5752632,10.1878947 C12.5568421,10.1684211 12.5384211,10.1505263 12.5189474,10.1326316 C12.5,10.1131579 12.4810526,10.0947368 12.4615789,10.0763158 C12.4431579,10.0573684 12.4242105,10.0389474 12.4052632,10.0210526 C12.3868421,10.0015789 12.3678947,9.98315789 12.3484211,9.96473684 C12.33,9.94526316 12.3110526,9.92736842 12.2915789,9.90894737 C12.2731579,9.88947368 12.2542105,9.87157895 12.2352632,9.85315789 C12.2168421,9.83368421 12.1978947,9.81578947 12.1784211,9.79736842 C12.1594737,9.77789474 12.1405263,9.75947368 12.1210526,9.74157895 C12.1026316,9.72210526 12.0836842,9.70421053 12.0647368,9.68578947 C12.0463158,9.66631579 12.0273684,9.64842105 12.0078947,9.63 C11.9894737,9.61052632 11.9705263,9.59263158 11.9515789,9.57421053 C11.9331579,9.55473684 11.9142105,9.53631579 11.8947368,9.51842105 C11.8763158,9.49894737 11.8573684,9.48052632 11.8378947,9.46210526 C11.8194737,9.44263158 11.8005263,9.42473684 11.7810526,9.40631579 C11.7626316,9.38736842 11.7442105,9.36947368 11.7252632,9.35105263 C11.7063158,9.33105263 11.6868421,9.31263158 11.6668421,9.29368421 C11.6489474,9.27473684 11.63,9.25684211 11.6110526,9.23894737 C11.5926316,9.21947368 11.5736842,9.20105263 11.5542105,9.18263158 C11.5352632,9.16315789 11.5163158,9.14473684 11.4968421,9.12631579 C11.4789474,9.10736842 11.4605263,9.09 11.4415789,9.07157895 C11.4226316,9.05210526 11.4036842,9.03368421 11.3842105,9.01526316 C11.3652632,8.99578947 11.3463158,8.97736842 11.3268421,8.95894737 C11.3084211,8.93947368 11.2894737,8.92157895 11.27,8.90315789 C11.2515789,8.88368421 11.2326316,8.86578947 11.2136842,8.84736842 C11.1952632,8.82789474 11.1763158,8.81 11.1568421,8.79157895 C11.1384211,8.77210526 11.1194737,8.75421053 11.1,8.73578947 C11.0815789,8.71631579 11.0626316,8.69789474 11.0431579,8.68 C11.0247368,8.66052632 11.0057895,8.64263158 10.9868421,8.62473684 C10.9684211,8.60526316 10.9494737,8.58684211 10.93,8.56842105 C10.9110526,8.54842105 10.8921053,8.53 10.8726316,8.51157895 C10.8542105,8.49263158 10.8357895,8.47473684 10.8168421,8.45631579 C10.7984211,8.43684211 10.7789474,8.41842105 10.76,8.40052632 C10.7415789,8.38105263 10.7226316,8.36315789 10.7036842,8.34473684 C10.6852632,8.32526316 10.6663158,8.30736842 10.6468421,8.28894737 C10.6284211,8.26947368 10.6094737,8.25105263 10.59,8.23263158 C10.5715789,8.21315789 10.5526316,8.19473684 10.5326316,8.17631579 C10.5142105,8.15684211 10.4957895,8.13894737 10.4763158,8.12105263 C10.4578947,8.10157895 10.4389474,8.08315789 10.4194737,8.06473684 C10.4010526,8.04526316 10.3821053,8.02736842 10.3631579,8.00894737 C10.3447368,7.98947368 10.3257895,7.97157895 10.3063158,7.95315789 C10.2878947,7.93368421 10.2689474,7.91578947 10.2494737,7.89736842 C10.2310526,7.87789474 10.2121053,7.86 10.1926316,7.84157895 C10.1742105,7.82263158 10.1557895,7.80473684 10.1368421,7.78631579 C10.1178947,7.76684211 10.0989474,7.74789474 10.0789474,7.72947368 C10.06,7.71 10.0410526,7.69157895 10.0215789,7.67315789 C10.0036842,7.65421053 9.98526316,7.63631579 9.96631579,7.61842105 C9.94789474,7.59894737 9.92894737,7.58052632 9.90947368,7.56210526 C9.89105263,7.54263158 9.87157895,7.52421053 9.85210526,7.50578947 C9.83368421,7.48684211 9.81473684,7.46842105 9.79578947,7.45105263 C9.77736842,7.43157895 9.75842105,7.41315789 9.73894737,7.39526316 C9.72052632,7.37578947 9.70157895,7.35789474 9.68263158,7.33947368 C9.66368421,7.32 9.64473684,7.30157895 9.62526316,7.28315789 C9.60684211,7.26421053 9.58842105,7.24631579 9.56947368,7.22789474 C9.55105263,7.20842105 9.53210526,7.19052632 9.51263158,7.17210526 C9.49368421,7.15263158 9.47473684,7.13421053 9.45473684,7.11526316 C9.43631579,7.09631579 9.41789474,7.07842105 9.39894737,7.06052632 C9.38,7.04105263 9.36105263,7.02263158 9.34157895,7.00421053 C9.32315789,6.98526316 9.30473684,6.96684211 9.28526316,6.94894737 C9.26631579,6.92947368 9.24736842,6.91105263 9.22789474,6.89263158 C9.20947368,6.87315789 9.19052632,6.85526316 9.17157895,6.83789474 C9.15315789,6.81894737 9.13421053,6.80052632 9.11526316,6.78263158 C9.09684211,6.76315789 9.07736842,6.74473684 9.05789474,6.72631579 C9.03947368,6.70684211 9.02052632,6.68894737 9.00105263,6.67052632 C8.98263158,6.65105263 8.96421053,6.63315789 8.94526316,6.61526316 C8.92631579,6.59526316 8.90684211,6.57684211 8.88736842,6.55842105 C8.86894737,6.53894737 8.85,6.52105263 8.83052632,6.50263158 C8.81263158,6.48368421 8.79421053,6.46631579 8.77526316,6.44789474 C8.75631579,6.42789474 8.73736842,6.40947368 8.71736842,6.39105263 C8.69894737,6.37157895 8.68052632,6.35368421 8.66105263,6.33578947 C8.36157895,5.98105263 7.95421053,5.78947368 7.5,5.78947368 C6.61842105,5.78947368 5.90368421,6.50421053 5.90368421,7.38578947 C5.90368421,7.84210526 6.09736842,8.25105263 6.40421053,8.54157895 C6.42315789,8.56157895 6.44263158,8.58 6.46263158,8.59894737 C6.48052632,8.61789474 6.49894737,8.63578947 6.51789474,8.65368421 C6.53684211,8.67368421 6.55631579,8.69210526 6.57631579,8.71105263 C6.59421053,8.73 6.61263158,8.74736842 6.63157895,8.76578947 C6.65,8.78526316 6.66894737,8.80315789 6.68842105,8.82105263 C6.70684211,8.84052632 6.72578947,8.85894737 6.74526316,8.87736842 C6.76368421,8.89684211 6.78210526,8.91473684 6.80157895,8.93263158 C6.82052632,8.95263158 6.83947368,8.97105263 6.85947368,8.98947368 C6.87789474,9.00842105 6.89631579,9.02631579 6.91526316,9.04421053 C6.93421053,9.06368421 6.95315789,9.08210526 6.97263158,9.10105263 C6.99105263,9.12 7.01,9.13789474 7.02894737,9.15631579 C7.04736842,9.17526316 7.06631579,9.19368421 7.08578947,9.21210526 C7.10421053,9.23157895 7.12315789,9.24947368 7.14263158,9.26789474 C7.16105263,9.28736842 7.18,9.30526316 7.19894737,9.32368421 C7.21736842,9.34315789 7.23684211,9.36157895 7.25631579,9.38 C7.27473684,9.39947368 7.29315789,9.41736842 7.31263158,9.43473684 C7.33105263,9.45421053 7.35052632,9.47263158 7.37,9.49105263 C7.38842105,9.51052632 7.40736842,9.52842105 7.42631579,9.54684211 C7.44473684,9.56631579 7.46421053,9.58473684 7.48368421,9.60315789 C7.50210526,9.62263158 7.52105263,9.64052632 7.54,9.65842105 C7.55842105,9.67789474 7.57736842,9.69578947 7.59631579,9.71421053 C7.61473684,9.73368421 7.63368421,9.75210526 7.65315789,9.77052632 C7.67157895,9.79 7.69052632,9.80789474 7.70947368,9.82631579 C7.72842105,9.84578947 7.74736842,9.86421053 7.76684211,9.88263158 C7.78526316,9.90210526 7.80421053,9.92 7.82315789,9.93842105 C7.84157895,9.95789474 7.86052632,9.97578947 7.88,9.99421053 C7.89842105,10.0136842 7.91736842,10.0321053 7.93684211,10.0505263 C7.95526316,10.07 7.97421053,10.0878947 7.99368421,10.1063158 C8.01210526,10.1257895 8.03105263,10.1436842 8.05,10.1621053 C8.06842105,10.1815789 8.08736842,10.1994737 8.10684211,10.2178947 C8.12526316,10.2373684 8.14421053,10.2557895 8.16368421,10.2736842 C8.18210526,10.2931579 8.20105263,10.3115789 8.22052632,10.3294737 C8.22578947,10.3352632 8.23,10.3415789 8.23526316,10.3473684 L6.13157895,10.3473684 L6.13157895,19.4736842 L6.18789474,19.4736842 L6.18789474,19.5289474 L6.24473684,19.5289474 L6.24473684,19.5842105 L6.30157895,19.5842105 L6.30157895,19.6394737 L6.35842105,19.6394737 L6.35842105,19.6947368 L6.41473684,19.6947368 L6.41473684,19.75 L6.47157895,19.75 L6.47157895,19.8047368 L6.52842105,19.8047368 L6.52842105,19.8605263 L6.58473684,19.8605263 L6.58473684,19.9157895 L6.64157895,19.9157895 L6.64157895,19.9710526 L6.69842105,19.9710526 L6.69842105,20.0263158 L6.75526316,20.0263158 L6.75526316,20.0810526 L6.81210526,20.0810526 L6.81210526,20.1357895 L6.86894737,20.1357895 L6.86894737,20.1915789 L6.92578947,20.1915789 L6.92578947,20.2473684 L6.98263158,20.2473684 L6.98263158,20.3021053 L7.03894737,20.3021053 L7.03894737,20.3568421 L7.09578947,20.3568421 L7.09578947,20.4210526 L7.15263158,20.4210526 L7.15263158,20.4768421 L7.20947368,20.4768421 L7.20947368,20.5315789 L7.26631579,20.5315789 L7.26631579,20.5873684 L7.32263158,20.5873684 L7.32263158,20.6421053 L7.37947368,20.6421053 L7.37947368,20.6978947 L7.43631579,20.6978947 L7.43631579,20.7536842 L7.49263158,20.7536842 L7.49263158,20.8084211 L7.54947368,20.8084211 L7.54947368,20.8631579 L7.60631579,20.8631579 L7.60631579,20.9189474 L7.66315789,20.9189474 L7.66315789,20.9747368 L7.72,20.9747368 L7.72,21.0294737 L7.77684211,21.0294737 L7.77684211,21.0842105 L7.83368421,21.0842105 L7.83368421,21.1394737 L7.89052632,21.1394737 L7.89052632,21.1947368 L7.94736842,21.1947368 L7.94736842,21.2494737 L8.00421053,21.2494737 L8.00421053,21.3052632 L8.06105263,21.3052632 L8.06105263,21.3684211 L8.11789474,21.3684211 L8.11789474,21.4236842 L8.17473684,21.4236842 L8.17473684,21.4789474 L8.23105263,21.4789474 L8.23105263,21.5342105 L8.28789474,21.5342105 L8.28789474,21.5894737 L8.34473684,21.5894737 L8.34473684,21.6447368 L8.40105263,21.6447368 L8.40105263,21.7 L8.45789474,21.7 L8.45789474,21.7547368 L8.51421053,21.7547368 L8.51421053,21.8094737 L8.57105263,21.8094737 L8.57105263,21.8652632 L8.62789474,21.8652632 L8.62789474,21.9210526 L8.68421053,21.9210526 L8.68421053,21.9757895 L8.74105263,21.9757895 L8.74105263,22.0315789 L8.79789474,22.0315789 L8.79789474,22.0868421 L8.85473684,22.0868421 L8.85473684,22.1421053 L8.91157895,22.1421053 L8.91157895,22.1973684 L8.96842105,22.1973684 L8.96842105,22.2521053 L9.02526316,22.2521053 L9.02526316,22.3068421 L9.08210526,22.3068421 L9.08210526,22.3626316 L9.13894737,22.3626316 L9.13894737,22.4184211 L9.19578947,22.4184211 L9.19578947,22.4731579 L9.25263158,22.4731579 L9.25263158,22.5284211 L9.30894737,22.5284211 L9.30894737,22.5836842 L9.36578947,22.5836842 L9.36578947,22.6389474 L9.42263158,22.6389474 L9.42263158,22.6947368 L9.47947368,22.6947368 L9.47947368,22.7494737 L9.53631579,22.7494737 L9.53631579,22.8047368 L9.59263158,22.8047368 L9.59263158,22.86 L9.64947368,22.86 L9.64947368,22.9157895 L9.70578947,22.9157895 L9.70578947,22.9710526 L9.76263158,22.9710526 L9.76263158,23.0257895 L9.81894737,23.0257895 L9.81894737,23.0810526 L9.87578947,23.0810526 L9.87578947,23.1363158 L9.93263158,23.1363158 L9.93263158,23.1915789 L9.98947368,23.1915789 L9.98947368,23.2468421 L10.0526316,23.2468421 L10.0526316,23.3021053 L10.1094737,23.3021053 L10.1094737,23.3573684 L10.1663158,23.3573684 L10.1663158,23.4121053 L10.2226316,23.4121053 L10.2226316,23.4678947 L10.2794737,23.4678947 L10.2794737,23.5231579 L10.3363158,23.5231579 L10.3363158,23.5784211 L10.3931579,23.5784211 L10.3931579,23.6331579 L10.45,23.6331579 L10.45,23.6889474 L10.5063158,23.6889474 L10.5063158,23.7436842 L10.5631579,23.7436842 L10.5631579,23.7989474 L10.62,23.7989474 L10.62,23.8547368 L10.6768421,23.8547368 L10.6768421,23.9105263 L10.7336842,23.9105263 L10.7336842,23.9652632 L10.79,23.9652632 L10.79,24.0210526 L10.8468421,24.0210526 L10.8468421,24.0768421 L10.9036842,24.0768421 L10.9036842,24.1315789 L10.9605263,24.1315789 L10.9605263,24.1873684 L11.0168421,24.1873684 L11.0168421,24.2421053 L11.0736842,24.2421053 L11.0736842,24.2984211 L11.1305263,24.2984211 L11.1305263,24.3531579 L11.1873684,24.3531579 L11.1873684,24.4078947 L11.2436842,24.4078947 L11.2436842,24.4631579 L11.3005263,24.4631579 L11.3005263,24.5184211 L11.3573684,24.5184211 L11.3573684,24.5742105 L11.4136842,24.5742105 L11.4136842,24.6289474 L11.4736842,24.6289474 L11.4736842,24.6842105 L11.53,24.6842105 L11.53,24.7894737 L11.5873684,24.7894737 L11.5873684,24.8452632 L11.6436842,24.8452632 L11.6436842,24.9010526 L11.7005263,24.9010526 L11.7005263,24.9557895 L11.7573684,24.9557895 L11.7573684,25.0110526 L11.8136842,25.0110526 L11.8136842,25.0668421 L11.8705263,25.0668421 L11.8705263,25.1215789 L11.9268421,25.1215789 L11.9268421,25.1768421 L11.9836842,25.1768421 L11.9836842,25.2321053 L12.0405263,25.2321053 L12.0405263,25.2873684 L12.0968421,25.2873684 L12.0968421,25.3426316 L12.1536842,25.3426316 L12.1536842,25.3984211 L12.2105263,25.3984211 L12.2105263,25.4536842 L12.2673684,25.4536842 L12.2673684,25.5084211 L12.3236842,25.5084211 L12.3236842,25.5636842 L12.3805263,25.5636842 L12.3805263,25.6189474 L12.4373684,25.6189474 L12.4373684,25.6742105 L12.4942105,25.6742105 L12.4942105,25.7368421 L12.5510526,25.7368421 L12.5510526,25.7915789 L12.6073684,25.7915789 L12.6073684,25.8463158 L12.6642105,25.8463158 L12.6642105,25.9015789 L12.7210526,25.9015789 L12.7210526,25.9568421 L12.7778947,25.9568421 L12.7778947,26.0126316 L12.8342105,26.0126316 L12.8342105,26.0678947 L12.8910526,26.0678947 L12.8910526,26.1226316 L12.9478947,26.1226316 L12.9478947,26.1784211 L13.0031579,26.1784211 L13.0031579,26.2331579 L13.0584211,26.2331579 L13.0584211,26.2884211 L13.1152632,26.2884211 L13.1152632,26.3436842 L13.1721053,26.3436842 L13.1721053,26.3994737 L13.2284211,26.3994737 L13.2284211,26.4542105 L13.2836842,26.4542105 L13.2836842,26.5094737 L13.34,26.5094737 L13.34,26.5647368 L13.3963158,26.5647368 L13.3963158,26.62 L13.4526316,26.62 L13.4526316,26.6842105 L13.5084211,26.6842105 L13.5084211,26.7389474 L13.5652632,26.7389474 L13.5652632,26.7942105 L13.6205263,26.7942105 L13.6205263,26.8494737 L13.6773684,26.8494737 L13.6773684,26.9047368 L13.7368421,26.9047368 L13.7368421,26.96 L13.7931579,26.96 L13.7931579,27.0147368 L13.8494737,27.0147368 L13.8494737,27.0705263 L13.9057895,27.0705263 L13.9057895,27.1252632 L13.9621053,27.1252632 L13.9621053,27.1810526 L14.0184211,27.1810526 L14.0184211,27.2357895 L14.0742105,27.2357895 L14.0742105,27.2905263 L14.13,27.2905263 L14.13,27.3463158 L14.1863158,27.3463158 L14.1863158,27.4010526 L14.2426316,27.4010526 L14.2426316,27.4568421 L14.2984211,27.4568421 L14.2984211,27.5126316 L14.3552632,27.5126316 L14.3552632,27.5678947 L14.4105263,27.5678947 L14.4105263,27.6226316 L14.4673684,27.6226316 L14.4673684,27.6784211 L14.5242105,27.6784211 L14.5242105,27.7331579 L14.58,27.7331579 L14.58,27.7878947 L14.6357895,27.7878947 L14.6357895,27.8431579 L14.6921053,27.8431579 L14.6921053,27.8994737 L14.7484211,27.8994737 L14.7484211,27.9542105 L14.8047368,27.9542105 L14.8047368,28.0094737 L14.8605263,28.0094737 L14.8605263,28.0647368 L14.9173684,28.0647368 L14.9173684,28.12 L14.9726316,28.12 L14.9726316,28.1747368 L15.0289474,28.1747368 L15.0289474,28.2305263 L15.0847368,28.2305263 L15.0847368,28.2857895 L15.1415789,28.2857895 L15.1415789,28.3410526 L15.1968421,28.3410526 L15.1968421,28.3957895 L15.2542105,28.3957895 L15.2542105,28.4515789 L15.3105263,28.4515789 L15.3105263,28.5068421 L15.3663158,28.5068421 L15.3663158,28.5621053 L15.4221053,28.5621053 L15.4221053,28.6173684 L15.4784211,28.6173684 L15.4784211,28.6721053 L15.5336842,28.6721053 L15.5336842,28.7268421 L15.5910526,28.7268421 L15.5910526,28.7826316 L15.6468421,28.7826316 L15.6468421,28.8384211 L15.7036842,28.8384211 L15.7036842,28.8931579 L15.7589474,28.8931579 L15.7589474,28.9489474 L15.8152632,28.9489474 L15.8152632,29.0042105 L15.8710526,29.0042105 L15.8710526,29.0594737 L15.9278947,29.0594737 L15.9278947,29.1142105 L15.9842105,29.1142105 L15.9842105,29.1689474 L16.0405263,29.1689474 L16.0405263,29.2242105 L16.1052632,29.2242105 L16.1052632,29.2794737 L16.1621053,29.2794737 L16.1621053,29.3352632 L16.2178947,29.3352632 L16.2178947,29.39 L16.2742105,29.39 L16.2742105,29.4452632 L16.3305263,29.4452632 L16.3305263,29.5263158 L16.3868421,29.5263158 L16.3868421,29.5810526 L16.4426316,29.5810526 L16.4426316,29.6368421 L16.4984211,29.6368421 L16.4984211,29.6915789 L16.5547368,29.6915789 L16.5547368,29.7463158 L16.6110526,29.7463158 L16.6110526,29.8021053 L16.6842105,29.8021053 L16.6842105,29.8578947 L16.7410526,29.8578947 L16.7410526,29.9126316 L16.7963158,29.9126316 L16.7963158,29.9673684 L16.8526316,29.9673684 L16.8526316,30.0226316 L16.9084211,30.0226316 L16.9084211,30.0778947 L16.9652632,30.0778947 L16.9652632,30.1331579 L17.0210526,30.1331579 L17.0210526,30.1889474 L17.0773684,30.1889474 L17.0773684,30.2436842 L17.1331579,30.2436842 L17.1331579,30.2994737 L17.1894737,30.2994737 L17.1894737,30.3542105 L17.2457895,30.3542105 L17.2457895,30.41 L17.3015789,30.41 L17.3015789,30.4647368 L17.3584211,30.4647368 L17.3584211,30.52 L17.4136842,30.52 L17.4136842,30.5752632 L17.4736842,30.5752632 L17.4736842,30.6305263 L17.5305263,30.6305263 L17.5305263,30.6857895 L17.5857895,30.6857895 L17.5857895,30.7405263 L17.6410526,30.7405263 L17.6410526,30.7963158 L17.6984211,30.7963158 L17.6984211,30.8510526 L17.7547368,30.8510526 L17.7547368,30.9068421 L17.8105263,30.9068421 L17.8105263,31 L17.8668421,31 L17.8668421,31.0547368 L17.9226316,31.0547368 L17.9226316,31.1094737 L17.9789474,31.1094737 L17.9789474,31.1652632 L18.0352632,31.1652632 L18.0352632,31.2205263 L18.0910526,31.2205263 L18.0910526,31.2757895 L18.1478947,31.2757895 L18.1478947,31.3310526 L18.2031579,31.3310526 L18.2031579,31.3857895 L18.2631579,31.3857895 L18.2631579,31.4415789 L18.32,31.4415789 L18.32,31.4973684 L18.3757895,31.4973684 L18.3757895,31.5521053 L18.4315789,31.5521053 L18.4315789,31.6073684 L18.4878947,31.6073684 L18.4878947,31.6626316 L18.5442105,31.6626316 L18.5442105,31.7178947 L18.6,31.7178947 L18.6,31.7731579 L18.6563158,31.7731579 L18.6563158,31.8284211 L18.7131579,31.8284211 L18.7131579,31.8836842 L18.7684211,31.8836842 L18.7684211,31.9389474 L18.8247368,31.9389474 L18.8247368,31.9947368 L18.8805263,31.9947368 L18.8805263,32.0494737 L18.9363158,32.0494737 L18.9363158,32.1047368 L18.9926316,32.1047368 L18.9926316,32.16 L19.05,32.16 L19.05,32.2152632 L19.1063158,32.2152632 L19.1063158,32.2705263 L19.1621053,32.2705263 L19.1621053,32.3257895 L19.2178947,32.3257895 L19.2178947,32.3810526 L19.3021053,32.3810526 L19.3021053,32.4363158 L19.3573684,32.4363158 L19.3573684,32.4910526 L19.4136842,32.4910526 L19.4136842,32.5468421 L19.4705263,32.5468421 L19.4705263,32.6021053 L19.5263158,32.6021053 L19.5263158,32.6573684 L19.5826316,32.6573684 L19.5826316,32.7121053 L19.6389474,32.7121053 L19.6389474,32.7678947 L19.6952632,32.7678947 L19.6952632,32.8226316 L19.7510526,32.8226316 L19.7510526,32.8947368 L19.8068421,32.8947368 L19.8068421,32.95 L19.8631579,32.95 L19.8631579,33.0047368 L19.9194737,33.0047368 L19.9194737,33.0594737 L19.9757895,33.0594737 L19.9757895,33.1152632 L20.0310526,33.1152632 L20.0310526,33.1710526 L20.0884211,33.1710526 L20.0884211,33.2257895 L20.1436842,33.2257895 L20.1436842,33.2805263 L20.2,33.2805263 L20.2,33.3357895 L20.2568421,33.3357895 L20.2568421,33.3915789 L20.3126316,33.3915789 L20.3126316,33.4473684 L20.3689474,33.4473684 L20.3689474,33.5021053 L20.4252632,33.5021053 L20.4252632,33.5568421 L20.4815789,33.5568421 L20.4815789,33.6126316 L20.5373684,33.6126316 L20.5373684,33.6684211 L20.5931579,33.6684211 L20.5931579,33.7231579 L20.6494737,33.7231579 L20.6494737,33.7784211 L20.7057895,33.7784211 L20.7057895,33.8336842 L20.7621053,33.8336842 L20.7621053,33.8889474 L20.8173684,33.8889474 L20.8173684,33.9447368 L20.8747368,33.9447368 L20.8747368,33.9994737 L20.93,33.9994737 L20.93,34.0547368 L20.9863158,34.0547368 L20.9863158,34.11 L21.0426316,34.11 L21.0426316,34.1657895 L21.0989474,34.1657895 L21.0989474,34.2205263 L21.1552632,34.2205263 L21.1552632,34.2757895 L21.2115789,34.2757895 L21.2115789,34.3310526 L21.2678947,34.3310526 L21.2678947,34.3863158 L21.3236842,34.3863158 L21.3236842,34.4410526 L21.3794737,34.4410526 L21.3794737,34.4968421 L21.4357895,34.4968421 L21.4357895,34.5521053 L21.4921053,34.5521053 L21.4921053,34.6073684 L21.5484211,34.6073684 L21.5484211,34.6621053 L21.6036842,34.6621053 L21.6036842,34.7178947 L21.6610526,34.7178947 L21.6610526,34.7894737 L21.7168421,34.7894737 L21.7168421,34.8447368 L21.7736842,34.8447368 L21.7736842,34.9 L21.8289474,34.9 L21.8289474,34.9547368 L21.8852632,34.9547368 L21.8852632,35.0105263 L21.9415789,35.0105263 L21.9415789,35.0657895 L21.9978947,35.0657895 L21.9978947,35.1210526 L22.0542105,35.1210526 L22.0542105,35.1757895 L22.11,35.1757895 L22.11,35.2315789 L22.1657895,35.2315789 L22.1657895,35.2863158 L22.2221053,35.2863158 L22.2221053,35.3415789 L22.3157895,35.3415789 L22.3157895,35.3973684 L22.3715789,35.3973684 L22.3715789,35.4526316 L22.4284211,35.4526316 L22.4284211,35.5073684 L22.4847368,35.5073684 L22.4847368,35.5631579 L22.5405263,35.5631579 L22.5405263,35.6189474 L22.5973684,35.6189474 L22.5973684,35.6736842 L22.6526316,35.6736842 L22.6526316,35.7289474 L22.7089474,35.7289474 L22.7089474,35.7842105 L22.7652632,35.7842105 L22.7652632,35.8394737 L22.8215789,35.8394737 L22.8215789,35.8952632 L22.8778947,35.8952632 L22.8778947,35.95 L22.9336842,35.95 L22.9336842,36.0052632 L22.9894737,36.0052632 L22.9894737,36.0605263 L23.0457895,36.0605263 L23.0457895,36.1163158 L23.1052632,36.1163158 L23.1052632,36.1710526 L23.1610526,36.1710526 L23.1610526,36.2263158 L23.2178947,36.2263158 L23.2178947,36.3157895 L25.9531579,36.3157895 L25.9531579,34.4689474 L25.9605263,34.4689474 L25.9605263,34.5247368 L26.0157895,34.5247368 L26.0157895,34.5794737 L26.0726316,34.5794737 L26.0726316,34.6342105 L26.1294737,34.6342105 L26.1294737,34.69 L26.1852632,34.69 L26.1852632,34.7457895 L26.2410526,34.7457895 L26.2410526,34.8005263 L26.2973684,34.8005263 L26.2973684,34.8552632 L26.3536842,34.8552632 L26.3536842,34.9110526 L26.41,34.9110526 L26.41,34.9657895 L26.4657895,34.9657895 L26.4657895,35.0210526 L26.5215789,35.0210526 L26.5215789,35.0763158 L26.5778947,35.0763158 L26.5778947,35.1315789 L26.6342105,35.1315789 L26.6342105,35.1868421 L26.69,35.1868421 L26.69,35.2426316 L26.7468421,35.2426316 L26.7468421,35.2973684 L26.8031579,35.2973684 L26.8031579,35.3526316 L26.8594737,35.3526316 L26.8594737,35.4078947 L26.9157895,35.4078947 L26.9157895,35.4631579 L26.9715789,35.4631579 L26.9715789,35.5184211 L27.0273684,35.5184211 L27.0273684,35.5789474 L27.0836842,35.5789474 L27.0836842,35.6342105 L27.14,35.6342105 L27.14,35.6894737 L27.1963158,35.6894737 L27.1963158,35.7442105 L27.2521053,35.7442105 L27.2521053,35.8 L27.3089474,35.8 L27.3089474,35.8552632 L27.3642105,35.8552632 L27.3642105,35.9105263 L27.4205263,35.9105263 L27.4205263,35.9652632 L27.4763158,35.9652632 L27.4763158,36.0210526 L27.5336842,36.0210526 L27.5336842,36.0763158 L27.5894737,36.0763158 L27.5894737,36.1315789 L27.6457895,36.1315789 L27.6457895,36.1868421 L27.7021053,36.1868421 L27.7021053,36.2421053 L27.7578947,36.2421053 L27.7578947,36.3157895 L30.4942105,36.3157895 L30.4942105,33.1257895 L30.5052632,33.1257895 L30.5052632,33.1810526 L30.5621053,33.1810526 L30.5621053,33.2357895 L30.6178947,33.2357895 L30.6178947,33.2915789 L30.6742105,33.2915789 L30.6742105,33.3473684 L30.7305263,33.3473684 L30.7305263,33.4021053 L30.7868421,33.4021053 L30.7868421,33.4578947 L30.8426316,33.4578947 L30.8426316,33.5131579 L30.8984211,33.5131579 L30.8984211,33.5684211 L31,33.5684211 L31,33.6236842 L31.0552632,33.6236842 L31.0552632,33.6789474 L31.1115789,33.6789474 L31.1115789,33.7336842 L31.1678947,33.7336842 L31.1678947,33.7894737 L31.2242105,33.7894737 L31.2242105,33.8452632 L31.2805263,33.8452632 L31.2805263,33.9 L31.3368421,33.9 L31.3368421,33.9547368 L31.3921053,33.9547368 L31.3921053,34.01 L31.4484211,34.01 L31.4484211,34.0663158 L31.5052632,34.0663158 L31.5052632,34.1210526 L31.5621053,34.1210526 L31.5621053,34.1768421 L31.6173684,34.1768421 L31.6173684,34.2315789 L31.6726316,34.2315789 L31.6726316,34.2873684 L31.7294737,34.2873684 L31.7294737,34.3426316 L31.7894737,34.3426316 L31.7894737,34.3978947 L31.8452632,34.3978947 L31.8452632,34.4526316 L31.9015789,34.4526316 L31.9015789,34.5078947 L31.9573684,34.5078947 L31.9573684,34.5631579 L32.0136842,34.5631579 L32.0136842,34.6184211 L32.07,34.6184211 L32.07,34.6736842 L32.1257895,34.6736842 L32.1257895,34.7289474 L32.1826316,34.7289474 L32.1826316,34.7842105 L32.2378947,34.7842105 L32.2378947,34.84 L32.2947368,34.84 L32.2947368,34.8947368 L32.3505263,34.8947368 L32.3505263,34.95 L32.4210526,34.95 L32.4210526,35.0052632 L32.4778947,35.0052632 L32.4778947,35.06 L32.5336842,35.06 L32.5336842,35.1157895 L32.59,35.1157895 L32.59,35.1705263 L32.6452632,35.1705263 L32.6452632,35.2268421 L32.7026316,35.2268421 L32.7026316,35.2821053 L32.7589474,35.2821053 L32.7589474,35.3368421 L32.8152632,35.3368421 L32.8152632,35.3926316 L32.8705263,35.3926316 L32.8705263,35.4478947 L32.9268421,35.4478947 L32.9268421,35.5031579 L32.9831579,35.5031579 L32.9831579,35.5578947 L33.0394737,35.5578947 L33.0394737,35.6136842 L33.0957895,35.6136842 L33.0957895,35.6684211 L33.1515789,35.6684211 L33.1515789,35.7236842 L33.2105263,35.7236842 L33.2105263,35.7794737 L33.2668421,35.7794737 L33.2668421,35.8342105 L33.3231579,35.8342105 L33.3231579,35.89 L33.38,35.89 L33.38,35.9457895 L33.4357895,35.9457895 L33.4357895,36.0005263 L33.4921053,36.0005263 L33.4921053,36.0557895 L33.5478947,36.0557895 L33.5478947,36.1115789 L33.6047368,36.1115789 L33.6047368,36.1663158 L33.66,36.1663158 L33.66,36.2226316 L33.7163158,36.2226316 L33.7163158,36.3157895 L36.4526316,36.3157895 L36.4526316,31.2984211 C36.4647368,29.7589474 36.3373684,28.5363158 35.5357895,27.8384211 L35.5357895,27.8384211 Z" id="Shape" fill="url(#linearGradient-4)" opacity="0.5" mask="url(#mask-3)"></path>
                                </g>
                            </g>
                            <g id="in" transform="translate(5.789474, 5.789474)" fill="#F26631">
                                <path d="M4.90368421,4.56105263 L7.64105263,4.56105263 L7.64105263,5.93 L7.64105263,5.93 C8.01947368,5.21315789 8.99894737,4.56105263 10.3773684,4.56105263 C13.2468421,4.56105263 13.57,6.21105263 13.57,8.66684211 L13.57,13.6842105 L10.8331579,13.6842105 L10.8331579,9.12263158 C10.8331579,8.06526316 10.9189474,6.84210526 9.46421053,6.84210526 C7.63947368,6.84210526 7.63947368,7.93315789 7.63947368,9.12263158 L7.63947368,13.6842105 L4.90210526,13.6842105 L4.90368421,4.56105263 L4.90368421,4.56105263 L4.90368421,4.56105263 Z" id="n_1_"></path>
                                <rect id="_x7C__1_" x="0.342105263" y="4.56105263" width="2.73684211" height="9.12315789"></rect>
                                <ellipse id="_x28____x29__1_" cx="1.71052632" cy="1.59631579" rx="1.59631579" ry="1.59631579"></ellipse>
                            </g>
                        </g>
                    </g>
                </g>
            </g>
        </g>
    </g>
</svg>