<?xml version="1.0" encoding="UTF-8"?>
<svg width="30px" height="30px" viewBox="0 0 30 30" version="1.1" xmlns="http://www.w3.org/2000/svg" xmlns:xlink="http://www.w3.org/1999/xlink">
    <!-- Generator: Sketch 3.8.3 (29802) - http://www.bohemiancoding.com/sketch -->
    <title>1471313997_twitter</title>
    <desc>Created with Sketch.</desc>
    <defs>
        <linearGradient x1="100.00245%" y1="100%" x2="34.6563202%" y2="34.6552041%" id="linearGradient-1">
            <stop stop-color="#FFFFFF" stop-opacity="0" offset="31.63%"></stop>
            <stop stop-color="#E9E9E9" stop-opacity="0.0504" offset="35.08%"></stop>
            <stop stop-color="#ACACAC" stop-opacity="0.2018" offset="45.43%"></stop>
            <stop stop-color="#787878" stop-opacity="0.3523" offset="55.72%"></stop>
            <stop stop-color="#4D4D4D" stop-opacity="0.4981" offset="65.69%"></stop>
            <stop stop-color="#2B2B2B" stop-opacity="0.6385" offset="75.28%"></stop>
            <stop stop-color="#131313" stop-opacity="0.7719" offset="84.41%"></stop>
            <stop stop-color="#050505" stop-opacity="0.8956" offset="92.86%"></stop>
            <stop stop-color="#000000" offset="100%"></stop>
        </linearGradient>
        <ellipse id="path-2" cx="12.6315789" cy="12.6315789" rx="12.6315789" ry="12.6315789"></ellipse>
        <linearGradient x1="88.2610808%" y1="91.6509576%" x2="5.39359686%" y2="1.16040956%" id="linearGradient-4">
            <stop stop-color="#000000" stop-opacity="0" offset="40.82%"></stop>
            <stop stop-color="#00005E" offset="68.88%"></stop>
        </linearGradient>
    </defs>
    <g id="Page-1" stroke="none" stroke-width="1" fill="none" fill-rule="evenodd">
        <g id="Home" transform="translate(-1217.000000, -2957.000000)">
            <g id="footer" transform="translate(0.000000, 2842.000000)">
                <g id="social" transform="translate(1179.000000, 36.000000)">
                    <g id="1471313997_twitter" transform="translate(38.000000, 79.000000)">
                        <g id="Tweet_Tweet">
                            <polygon id="Circle_Shadow" fill="url(#linearGradient-1)" opacity="0.2" points="29.4889474 29.4736842 29.4889474 11.61 21.5789474 3.69947368 3.71526316 21.5636842 11.6252632 29.4736842"></polygon>
                            <ellipse id="Circle" fill="#FFFFFF" cx="12.6315789" cy="12.6315789" rx="12.6315789" ry="12.6315789"></ellipse>
                            <g id="Bird_shadow">
                                <g id="Clipped">
                                    <mask id="mask-3" fill="white">
                                        <use xlink:href="#path-2"></use>
                                    </mask>
                                    <g id="SVGID_1_"></g>
                                    <path d="M37.3531579,24.8468421 C37.3121053,24.8652632 37.26,24.8857895 37.2152632,24.9042105 C37.2431579,24.8663158 37.2705263,24.8278947 37.2963158,24.79 C37.2552632,24.8078947 37.2026316,24.8284211 37.1584211,24.8473684 C37.1863158,24.8094737 37.2131579,24.7710526 37.2394737,24.7331579 C37.1984211,24.7505263 37.1463158,24.7710526 37.1021053,24.7905263 C37.1289474,24.7526316 37.1568421,24.7142105 37.1826316,24.6763158 C37.1415789,24.6942105 37.09,24.7142105 37.0457895,24.7331579 C37.0715789,24.6952632 37.1005263,24.6573684 37.1257895,24.62 C37.0847368,24.6378947 37.0321053,24.6584211 36.9889474,24.6778947 C37.0147368,24.6389474 37.0436842,24.6010526 37.0689474,24.5621053 C37.0289474,24.5805263 36.9757895,24.6010526 36.9321053,24.62 C36.9589474,24.5821053 36.9868421,24.5436842 37.0126316,24.5057895 C36.9705263,24.5242105 36.9184211,24.5447368 36.8742105,24.5631579 C36.9015789,24.5252632 36.9294737,24.4873684 36.9552632,24.4489474 C36.9142105,24.4673684 36.8621053,24.4878947 36.8178947,24.5063158 C36.8442105,24.4684211 36.8726316,24.43 36.8984211,24.3921053 C36.8573684,24.41 36.8047368,24.4305263 36.7605263,24.4494737 C36.7884211,24.4110526 36.8152632,24.3731579 36.8415789,24.3352632 C36.8005263,24.3536842 36.7484211,24.3731579 36.7042105,24.3926316 C36.7310526,24.3547368 36.7589474,24.3163158 36.7847368,24.2784211 C36.7436842,24.2963158 36.6921053,24.3163158 36.6473684,24.3357895 C36.6747368,24.2973684 36.7021053,24.2594737 36.7284211,24.2215789 C36.6868421,24.24 36.6352632,24.2605263 36.5910526,24.2784211 C36.6168421,24.2410526 36.6457895,24.2031579 36.6710526,24.1647368 C36.63,24.1831579 36.5778947,24.2031579 36.5336842,24.2221053 C36.5610526,24.1842105 36.5884211,24.1457895 36.6147368,24.1078947 C36.5726316,24.1263158 36.5205263,24.1468421 36.4763158,24.1652632 C36.5031579,24.1273684 36.5315789,24.0889474 36.5573684,24.0510526 C36.5463158,24.0563158 36.5326316,24.0615789 36.5215789,24.0652632 C36.6447368,23.8421053 36.7484211,23.6173684 36.8157895,23.4084211 C36.7831579,23.4268421 36.7484211,23.4494737 36.7163158,23.47 C36.73,23.4310526 36.7484211,23.3905263 36.7605263,23.3510526 C36.7278947,23.37 36.6926316,23.3926316 36.6610526,23.4126316 C36.6752632,23.3736842 36.6931579,23.3336842 36.7052632,23.2936842 C36.6726316,23.3131579 36.6373684,23.3357895 36.6057895,23.3552632 C36.6194737,23.3163158 36.6384211,23.2773684 36.65,23.2378947 C36.6173684,23.2568421 36.5831579,23.2789474 36.5510526,23.2984211 C36.5647368,23.26 36.5836842,23.2205263 36.5952632,23.1810526 C36.5621053,23.2 36.5268421,23.2226316 36.4952632,23.2421053 C36.5089474,23.2036842 36.5278947,23.1636842 36.5394737,23.1242105 C36.5068421,23.1426316 36.4721053,23.1652632 36.44,23.1857895 C36.4542105,23.1468421 36.4726316,23.1063158 36.4842105,23.0673684 C36.4515789,23.0857895 36.4173684,23.1084211 36.3847368,23.1284211 C36.3989474,23.09 36.4168421,23.0489474 36.4289474,23.0105263 C36.3963158,23.0289474 36.3615789,23.0515789 36.3294737,23.0721053 C36.3436842,23.0331579 36.3621053,22.9926316 36.3736842,22.9531579 C36.3410526,22.9721053 36.3057895,22.9947368 36.2742105,23.0147368 C36.2873684,22.9757895 36.3068421,22.9357895 36.3184211,22.8968421 C36.2857895,22.9152632 36.2510526,22.9378947 36.2189474,22.9573684 C36.2326316,22.9194737 36.2515789,22.8784211 36.2631579,22.8394737 C36.2305263,22.8584211 36.1963158,22.8805263 36.1642105,22.9005263 C36.1778947,22.8615789 36.1968421,22.8215789 36.2084211,22.7831579 C36.1757895,22.8010526 36.1410526,22.8236842 36.1084211,22.8442105 C36.1226316,22.8057895 36.1410526,22.7657895 36.1526316,22.7263158 C36.12,22.7447368 36.0857895,22.7673684 36.0536842,22.7878947 C36.0673684,22.7489474 36.0863158,22.7084211 36.0978947,22.6694737 C36.0647368,22.6878947 36.03,22.7105263 35.9978947,22.7310526 C36.0121053,22.6921053 36.0305263,22.6510526 36.0421053,22.6126316 C36.0094737,22.6310526 35.9752632,22.6536842 35.9426316,22.6742105 C35.9568421,22.6352632 35.9752632,22.5947368 35.9868421,22.5552632 C35.9542105,22.5742105 35.92,22.5973684 35.8873684,22.6168421 C35.9015789,22.5778947 35.92,22.5378947 35.9315789,22.4989474 C35.8989474,22.5173684 35.8647368,22.54 35.8326316,22.5594737 C35.8463158,22.5215789 35.8652632,22.4815789 35.8768421,22.4421053 C35.8436842,22.4605263 35.8089474,22.4831579 35.7778947,22.5026316 C35.7915789,22.4647368 35.81,22.4247368 35.8221053,22.3847368 C35.7889474,22.4042105 35.7542105,22.4268421 35.7215789,22.4463158 C35.7357895,22.4078947 35.7542105,22.3678947 35.7668421,22.3273684 C35.7342105,22.3468421 35.6989474,22.3694737 35.6673684,22.3889474 C35.6805263,22.35 35.6994737,22.3105263 35.7115789,22.2705263 C35.6789474,22.29 35.6436842,22.3126316 35.6110526,22.3321053 C35.6252632,22.2931579 35.6436842,22.2542105 35.6552632,22.2147368 C35.6231579,22.2331579 35.5884211,22.2557895 35.5563158,22.2763158 C35.5705263,22.2373684 35.5889474,22.1963158 35.6005263,22.1573684 C35.5673684,22.1768421 35.5331579,22.1994737 35.5015789,22.2189474 C35.5147368,22.18 35.5336842,22.14 35.5457895,22.1010526 C35.5126316,22.1194737 35.4778947,22.1421053 35.4452632,22.1615789 C35.4594737,22.1236842 35.4778947,22.0826316 35.49,22.0442105 C35.4568421,22.0626316 35.4226316,22.0842105 35.3910526,22.1047368 C35.4052632,22.0657895 35.4236842,22.0257895 35.4352632,21.9868421 C35.4026316,22.0052632 35.3673684,22.0278947 35.3352632,22.0484211 C35.3489474,22.0094737 35.3678947,21.97 35.3794737,21.9305263 C35.3468421,21.95 35.3115789,21.9715789 35.2794737,21.9921053 C35.2931579,21.9531579 35.3121053,21.9136842 35.3236842,21.8736842 C35.2910526,21.8921053 35.2568421,21.9147368 35.2247368,21.9342105 C35.2378947,21.8952632 35.2568421,21.8557895 35.2689474,21.8168421 C35.2363158,21.8352632 35.2010526,21.8578947 35.1694737,21.8784211 C35.1826316,21.8394737 35.2021053,21.7984211 35.2136842,21.7594737 C35.1810526,21.7789474 35.1457895,21.8015789 35.1136842,21.8205263 C35.1273684,21.7821053 35.1463158,21.7421053 35.1578947,21.7031579 C35.1252632,21.7215789 35.0910526,21.7442105 35.0589474,21.7642105 C35.0726316,21.7257895 35.0910526,21.6847368 35.1031579,21.6463158 C35.07,21.6647368 35.0352632,21.6873684 35.0036842,21.7068421 C35.0168421,21.6689474 35.0357895,21.6278947 35.0478947,21.5889474 C35.0152632,21.6073684 34.9810526,21.63 34.9484211,21.6494737 C34.9626316,21.6110526 34.9810526,21.5710526 34.9926316,21.5315789 C34.96,21.5510526 34.9247368,21.5736842 34.8926316,21.5942105 C34.9063158,21.5542105 34.9252632,21.5147368 34.9368421,21.4747368 C34.9042105,21.4942105 34.8694737,21.5157895 34.8378947,21.5363158 C34.8515789,21.4973684 34.87,21.4578947 34.8821053,21.4189474 C34.8494737,21.4373684 34.8147368,21.46 34.7826316,21.48 C34.7968421,21.4415789 34.8147368,21.4015789 34.8268421,21.3615789 C34.7942105,21.3810526 34.7589474,21.4036842 34.7273684,21.4226316 C34.7415789,21.3842105 34.7594737,21.3442105 34.7715789,21.3052632 C34.7389474,21.3236842 34.7036842,21.3463158 34.6721053,21.3663158 C34.6863158,21.3278947 34.7047368,21.2868421 34.7163158,21.2484211 C34.6836842,21.2668421 34.6484211,21.2894737 34.6163158,21.3089474 C34.6305263,21.2710526 34.6489474,21.23 34.6605263,21.1910526 C34.6278947,21.2094737 34.5936842,21.2321053 34.5615789,21.2515789 C34.5752632,21.2136842 34.5942105,21.1742105 34.6057895,21.1347368 C34.5731579,21.1542105 34.5378947,21.1757895 34.5063158,21.1963158 C34.5194737,21.1573684 34.5384211,21.1178947 34.5505263,21.0778947 C34.5178947,21.0963158 34.4836842,21.1189474 34.4510526,21.1384211 C34.4652632,21.1 34.4836842,21.06 34.4952632,21.0210526 C34.4626316,21.0394737 34.4284211,21.0621053 34.3963158,21.0821053 C34.41,21.0436842 34.4289474,21.0036842 34.4405263,20.9636842 C34.4073684,20.9831579 34.3726316,21.0057895 34.3405263,21.0247368 C34.3542105,20.9863158 34.3731579,20.9463158 34.3847368,20.9068421 C34.3521053,20.9257895 34.3178947,20.9484211 34.2852632,20.9684211 C34.2994737,20.93 34.3178947,20.8889474 34.3294737,20.8505263 C34.2968421,20.8689474 34.2621053,20.8915789 34.23,20.9121053 C34.2442105,20.8731579 34.2626316,20.8321053 34.2742105,20.7931579 C34.2421053,20.8121053 34.2073684,20.8342105 34.1752632,20.8536842 C34.1889474,20.8152632 34.2078947,20.7752632 34.2194737,20.7357895 C34.1868421,20.7552632 34.1515789,20.7778947 34.1194737,20.7984211 C34.1331579,20.7584211 34.1521053,20.7189474 34.1636842,20.6794737 C34.1310526,20.6984211 34.0968421,20.72 34.0647368,20.7405263 C34.0784211,20.7021053 34.0973684,20.6621053 34.1089474,20.6231579 C34.0763158,20.6415789 34.0415789,20.6642105 34.0089474,20.6842105 C34.0231579,20.6457895 34.0415789,20.6057895 34.0531579,20.5657895 C34.0205263,20.5847368 33.9863158,20.6078947 33.9536842,20.6268421 C33.9678947,20.5884211 33.9863158,20.5484211 33.9978947,20.5089474 C33.9652632,20.5278947 33.9310526,20.5505263 33.8989474,20.5705263 C33.9126316,20.5315789 33.9315789,20.4910526 33.9431579,20.4526316 C33.91,20.4710526 33.8752632,20.4936842 33.8431579,20.5142105 C33.8573684,20.4752632 33.8757895,20.4342105 33.8873684,20.3952632 C33.8547368,20.4142105 33.8205263,20.4363158 33.7884211,20.4563158 C33.8021053,20.4173684 33.8205263,20.3784211 33.8326316,20.3389474 C33.8,20.3584211 33.7647368,20.38 33.7321053,20.4005263 C33.7463158,20.3615789 33.7647368,20.3205263 33.7763158,20.2821053 C33.7442105,20.3005263 33.7094737,20.3231579 33.6773684,20.3426316 C33.6910526,20.3042105 33.71,20.2642105 33.7215789,20.2252632 C33.6889474,20.2442105 33.6536842,20.2663158 33.6215789,20.2863158 C33.6352632,20.2478947 33.6542105,20.2078947 33.6668421,20.1678947 C33.6336842,20.1857895 33.5989474,20.2084211 33.5668421,20.2289474 C33.5805263,20.1905263 33.5994737,20.1505263 33.6115789,20.1110526 C33.5789474,20.13 33.5436842,20.1526316 33.5110526,20.1726316 C33.5252632,20.1336842 33.5436842,20.0931579 33.5552632,20.0547368 C33.5226316,20.0731579 33.4884211,20.0957895 33.4563158,20.1163158 C33.47,20.0773684 33.4889474,20.0368421 33.5005263,19.9973684 C33.4678947,20.0163158 33.4336842,20.0384211 33.4015789,20.0584211 C33.4152632,20.0194737 33.4342105,19.9794737 33.4457895,19.94 C33.4131579,19.9594737 33.3778947,19.9821053 33.3452632,20.0026316 C33.3594737,19.9626316 33.3778947,19.9226316 33.39,19.8836842 C33.3573684,19.9026316 33.3226316,19.9252632 33.29,19.9447368 C33.3042105,19.9063158 33.3226316,19.8663158 33.3342105,19.8273684 C33.3015789,19.8457895 33.2673684,19.8678947 33.2352632,19.8878947 C33.2484211,19.85 33.2678947,19.81 33.2794737,19.7705263 C33.2468421,19.7889474 33.2121053,19.8115789 33.18,19.8310526 C33.1936842,19.7931579 33.2121053,19.7526316 33.2242105,19.7131579 C33.1915789,19.7321053 33.1568421,19.7547368 33.1247368,19.7747368 C33.1389474,19.7357895 33.1568421,19.6952632 33.1689474,19.6568421 C33.1357895,19.6752632 33.1010526,19.6978947 33.0694737,19.7184211 C33.0831579,19.6794737 33.1015789,19.6389474 33.1136842,19.5994737 C33.0810526,19.6184211 33.0468421,19.6405263 33.0142105,19.6605263 C33.0284211,19.6215789 33.0468421,19.5821053 33.0584211,19.5431579 C33.0257895,19.5626316 32.9905263,19.5842105 32.9578947,19.6047368 C32.9721053,19.5657895 32.9905263,19.5257895 33.0026316,19.4863158 C32.97,19.5052632 32.9352632,19.5278947 32.9026316,19.5478947 C32.9163158,19.5089474 32.9352632,19.4684211 32.9478947,19.4289474 C32.9147368,19.4473684 32.88,19.47 32.8484211,19.4894737 C32.8626316,19.4505263 32.8805263,19.4110526 32.8926316,19.3715789 C32.86,19.39 32.8252632,19.4126316 32.7931579,19.4331579 C32.8073684,19.3947368 32.8257895,19.3547368 32.8373684,19.3157895 C32.8047368,19.3342105 32.7694737,19.3568421 32.7378947,19.3768421 C32.7521053,19.3384211 32.7705263,19.2973684 32.7821053,19.2589474 C32.7494737,19.2773684 32.7147368,19.3 32.6826316,19.3205263 C32.6963158,19.2815789 32.7152632,19.2410526 32.7268421,19.2015789 C32.6942105,19.2205263 32.66,19.2426316 32.6278947,19.2626316 C32.6415789,19.2236842 32.6605263,19.1842105 32.6721053,19.1442105 C32.6394737,19.1636842 32.6042105,19.1863158 32.5710526,19.2057895 C32.5852632,19.1668421 32.6042105,19.1268421 32.6163158,19.0878947 C32.5836842,19.1068421 32.5484211,19.1294737 32.5168421,19.1489474 C32.53,19.1105263 32.5494737,19.0705263 32.5610526,19.0310526 C32.5284211,19.0505263 32.4936842,19.0721053 32.4621053,19.0921053 C32.4752632,19.0536842 32.4942105,19.0142105 32.5063158,18.9747368 C32.4731579,18.9931579 32.4384211,19.0157895 32.4063158,19.0352632 C32.42,18.9973684 32.4389474,18.9568421 32.4505263,18.9178947 C32.4178947,18.9363158 32.3831579,18.9589474 32.3505263,18.9789474 C32.3647368,18.9405263 32.3831579,18.8994737 32.3947368,18.8610526 C32.3621053,18.8794737 32.3273684,18.9021053 32.2952632,18.9226316 C32.3094737,18.8836842 32.3278947,18.8426316 32.34,18.8036842 C32.3068421,18.8226316 32.2715789,18.8452632 32.24,18.8647368 C32.2542105,18.8263158 32.2726316,18.7863158 32.2842105,18.7473684 C32.2515789,18.7657895 32.2168421,18.7884211 32.1847368,18.8089474 C32.1989474,18.7689474 32.2173684,18.73 32.2289474,18.69 C32.1963158,18.7089474 32.1621053,18.7315789 32.1294737,18.7510526 C32.1436842,18.7126316 32.1615789,18.6721053 32.1736842,18.6331579 C32.1410526,18.6515789 32.1063158,18.6742105 32.0742105,18.6936842 C32.0884211,18.6547368 32.1068421,18.6152632 32.1184211,18.5757895 C32.0857895,18.5952632 32.0515789,18.6178947 32.0194737,18.6363158 C32.0331579,18.5984211 32.0521053,18.5589474 32.0636842,18.52 C32.0305263,18.5384211 31.9963158,18.5610526 31.9647368,18.5810526 C31.9778947,18.5426316 31.9968421,18.5015789 32.0089474,18.4631579 C31.9757895,18.4815789 31.9410526,18.5042105 31.9089474,18.5247368 C31.9226316,18.4857895 31.9415789,18.4447368 31.9531579,18.4057895 C31.9205263,18.4247368 31.8857895,18.4473684 31.8531579,18.4668421 C31.8673684,18.4284211 31.8857895,18.3884211 31.8973684,18.3484211 C31.8647368,18.3678947 31.8305263,18.3905263 31.7984211,18.41 C31.8121053,18.3710526 31.8310526,18.3310526 31.8426316,18.2921053 C31.8094737,18.3110526 31.7752632,18.3336842 31.7436842,18.3531579 C31.7568421,18.3147368 31.7757895,18.2752632 31.7878947,18.2352632 C31.7547368,18.2547368 31.7210526,18.2763158 31.6884211,18.2968421 C31.7026316,18.2578947 31.7205263,18.2184211 31.7326316,18.1789474 C31.7,18.1973684 31.6647368,18.22 31.6331579,18.2394737 C31.6468421,18.2015789 31.6657895,18.1610526 31.6773684,18.1221053 C31.6447368,18.1415789 31.6094737,18.1631579 31.5773684,18.1831579 C31.5910526,18.1447368 31.61,18.1047368 31.6215789,18.0652632 C31.5889474,18.0836842 31.5547368,18.1063158 31.5226316,18.1252632 C31.5363158,18.0868421 31.5547368,18.0468421 31.5668421,18.0078947 C31.5336842,18.0268421 31.4989474,18.0494737 31.4673684,18.0689474 C31.4805263,18.0305263 31.4994737,17.9905263 31.5115789,17.9515789 C31.4789474,17.97 31.4436842,17.9926316 31.4115789,18.0121053 C31.4252632,17.9742105 31.4442105,17.9331579 31.4557895,17.8936842 C31.4231579,17.9131579 31.3884211,17.9357895 31.3557895,17.9552632 C31.37,17.9168421 31.3884211,17.8763158 31.4,17.8373684 C31.3673684,17.8557895 31.3331579,17.8784211 31.3010526,17.8978947 C31.3147368,17.8589474 31.3336842,17.8194737 31.3452632,17.78 C31.3126316,17.7994737 31.2778947,17.8221053 31.2457895,17.8415789 C31.26,17.8026316 31.2784211,17.7631579 31.29,17.7242105 C31.2573684,17.7436842 31.2221053,17.7652632 31.19,17.7857895 C31.2036842,17.7468421 31.2226316,17.7068421 31.2342105,17.6673684 C31.2015789,17.6857895 31.1673684,17.7078947 31.1352632,17.7278947 C31.1489474,17.6889474 31.1678947,17.6489474 31.1794737,17.61 C31.1468421,17.6289474 31.1115789,17.6521053 31.08,17.6710526 C31.0931579,17.6326316 31.1121053,17.5926316 31.1242105,17.5531579 C31.0915789,17.5721053 31.0568421,17.5947368 31.0247368,17.6142105 C31.0384211,17.5763158 31.0568421,17.5352632 31.0689474,17.4957895 C31.0363158,17.5152632 31.0010526,17.5378947 30.9694737,17.5573684 C30.9836842,17.5194737 31.0015789,17.4794737 31.0136842,17.4394737 C30.9810526,17.4589474 30.9457895,17.4805263 30.9142105,17.5010526 C30.9284211,17.4621053 30.9468421,17.4226316 30.9584211,17.3831579 C30.9257895,17.4015789 30.8915789,17.4242105 30.8594737,17.4436842 C30.8731579,17.4057895 30.8921053,17.3647368 30.9036842,17.3263158 C30.8705263,17.3457895 30.8357895,17.3673684 30.8026316,17.3878947 C30.8163158,17.3489474 30.8352632,17.3084211 30.8478947,17.2684211 C30.8152632,17.2873684 30.7810526,17.3094737 30.7484211,17.3294737 C30.7626316,17.2910526 30.7810526,17.2510526 30.7926316,17.2121053 C30.76,17.2310526 30.7257895,17.2536842 30.6931579,17.2731579 C30.7073684,17.2347368 30.7252632,17.1947368 30.7373684,17.1552632 C30.7047368,17.1742105 30.67,17.1968421 30.6384211,17.2163158 C30.6521053,17.1778947 30.6705263,17.1373684 30.6826316,17.0989474 C30.6494737,17.1173684 30.6142105,17.14 30.5826316,17.1594737 C30.5963158,17.1215789 30.6152632,17.0805263 30.6268421,17.0415789 C30.5942105,17.06 30.5594737,17.0826316 30.5273684,17.1031579 C30.5415789,17.0642105 30.56,17.0236842 30.5715789,16.9842105 C30.5389474,17.0036842 30.5047368,17.0252632 30.4726316,17.0452632 C30.4863158,17.0068421 30.5052632,16.9668421 30.5168421,16.9284211 C30.4842105,16.9478947 30.4484211,16.9694737 30.4168421,16.99 C30.4310526,16.9510526 30.4494737,16.9110526 30.4610526,16.8715789 C30.4284211,16.89 30.3942105,16.9121053 30.3621053,16.9321053 C30.3757895,16.8931579 30.3947368,16.8531579 30.4063158,16.8142105 C30.3731579,16.8331579 30.3384211,16.8557895 30.3063158,16.8752632 C30.3205263,16.8368421 30.3389474,16.7968421 30.3505263,16.7573684 C30.3178947,16.7763158 30.2836842,16.7989474 30.2510526,16.8189474 C30.2652632,16.78 30.2836842,16.7394737 30.2952632,16.7010526 C30.2626316,16.7194737 30.2284211,16.7421053 30.1957895,16.7615789 C30.21,16.7236842 30.2284211,16.6836842 30.24,16.6442105 C30.2073684,16.6631579 30.1731579,16.6857895 30.1410526,16.7052632 C30.1547368,16.6668421 30.1736842,16.6263158 30.1852632,16.5873684 C30.1521053,16.6057895 30.1173684,16.6284211 30.0863158,16.6478947 C30.1,16.6089474 30.1184211,16.5689474 30.1305263,16.5294737 C30.0973684,16.5489474 30.0626316,16.5715789 30.03,16.5910526 C30.0442105,16.5521053 30.0626316,16.5121053 30.0742105,16.4726316 C30.0421053,16.4915789 30.0073684,16.5136842 29.9752632,16.5336842 C29.9884211,16.4952632 30.0078947,16.4563158 30.0194737,16.4157895 C29.9868421,16.4352632 29.9515789,16.4578947 29.9194737,16.4773684 C29.9331579,16.4389474 29.9521053,16.3989474 29.9636842,16.3594737 C29.9310526,16.3784211 29.8968421,16.4010526 29.8647368,16.4210526 C29.8784211,16.3821053 29.8968421,16.3415789 29.9089474,16.3031579 C29.8757895,16.3215789 29.8410526,16.3442105 29.8094737,16.3636842 C29.8226316,16.3257895 29.8415789,16.2847368 29.8536842,16.2457895 C29.8210526,16.2642105 29.7857895,16.2873684 29.7531579,16.3073684 C29.7673684,16.2684211 29.7857895,16.2278947 29.7978947,16.1884211 C29.7652632,16.2073684 29.7305263,16.2294737 29.6989474,16.2494737 C29.7131579,16.2110526 29.7315789,16.1710526 29.7431579,16.1326316 C29.7105263,16.1521053 29.6752632,16.1736842 29.6431579,16.1942105 C29.6573684,16.1552632 29.6757895,16.1147368 29.6873684,16.0752632 C29.6547368,16.0942105 29.6205263,16.1163158 29.5884211,16.1363158 C29.6026316,16.0973684 29.6205263,16.0584211 29.6326316,16.0178947 C29.5994737,16.0373684 29.5647368,16.06 29.5331579,16.0794737 C29.5463158,16.0405263 29.5652632,16.0010526 29.5773684,15.9615789 C29.5447368,15.9805263 29.5094737,16.0031579 29.4778947,16.0231579 C29.4910526,15.9842105 29.5105263,15.9436842 29.5221053,15.9052632 C29.4894737,15.9236842 29.4542105,15.9463158 29.4221053,15.9668421 C29.4357895,15.9278947 29.4547368,15.8868421 29.4663158,15.8478947 C29.4336842,15.8668421 29.3994737,15.8894737 29.3673684,15.9094737 C29.3810526,15.8705263 29.3994737,15.83 29.4115789,15.7905263 C29.3789474,15.8094737 29.3447368,15.8315789 29.3121053,15.8515789 C29.3263158,15.8131579 29.3447368,15.7731579 29.3563158,15.7342105 C29.3236842,15.7531579 29.2884211,15.7757895 29.2568421,15.7952632 C29.27,15.7568421 29.2894737,15.7163158 29.3010526,15.6768421 C29.2684211,15.6957895 29.2342105,15.7178947 29.2021053,15.7378947 C29.2157895,15.6989474 29.2347368,15.6605263 29.2463158,15.62 C29.2131579,15.6394737 29.1784211,15.6621053 29.1463158,15.6815789 C29.16,15.6426316 29.1789474,15.6031579 29.1905263,15.5636842 C29.1578947,15.5826316 29.1236842,15.6052632 29.0910526,15.6252632 C29.1052632,15.5863158 29.1231579,15.5457895 29.1352632,15.5073684 C29.1026316,15.5257895 29.0678947,15.5484211 29.0357895,15.5689474 C29.05,15.53 29.0684211,15.4889474 29.08,15.45 C29.0473684,15.4689474 29.0121053,15.4915789 28.9805263,15.5115789 C28.9947368,15.4726316 29.0131579,15.4321053 29.0247368,15.3926316 C28.9921053,15.4121053 28.9578947,15.4336842 28.9257895,15.4536842 C28.9394737,15.4152632 28.9578947,15.3752632 28.97,15.3368421 C28.9368421,15.3563158 28.9015789,15.3778947 28.8694737,15.3984211 C28.8836842,15.3594737 28.9015789,15.3189474 28.9136842,15.2794737 C28.8815789,15.2984211 28.8468421,15.3205263 28.8142105,15.3405263 C28.8284211,15.3021053 28.8468421,15.2626316 28.8584211,15.2231579 C28.8257895,15.2415789 28.7915789,15.2642105 28.7589474,15.2836842 C28.7731579,15.2457895 28.7915789,15.2052632 28.8031579,15.1657895 C28.7705263,15.1847368 28.7363158,15.2073684 28.7042105,15.2273684 C28.7178947,15.1884211 28.7368421,15.1478947 28.7484211,15.1094737 C28.7152632,15.1278947 28.6805263,15.1505263 28.6484211,15.1705263 C28.6626316,15.1321053 28.6810526,15.0910526 28.6926316,15.0521053 C28.66,15.0710526 28.6257895,15.0936842 28.5931579,15.1131579 C28.6073684,15.0747368 28.6257895,15.0342105 28.6373684,14.9947368 C28.6052632,15.0142105 28.5705263,15.0357895 28.5384211,15.0557895 C28.5515789,15.0173684 28.5710526,14.9773684 28.5826316,14.9384211 C28.55,14.9573684 28.5147368,14.98 28.4815789,15.0005263 C28.4952632,14.9610526 28.5147368,14.9210526 28.5268421,14.8815789 C28.4936842,14.9 28.4589474,14.9226316 28.4278947,14.9421053 C28.4415789,14.9031579 28.46,14.8636842 28.4721053,14.8242105 C28.4389474,14.8426316 28.4042105,14.8652632 28.3721053,14.8847368 C28.3857895,14.8468421 28.4047368,14.8073684 28.4163158,14.7678947 C28.3836842,14.7868421 28.3489474,14.8094737 28.3163158,14.8294737 C28.3305263,14.7905263 28.3489474,14.75 28.3605263,14.7115789 C28.3278947,14.7294737 28.2936842,14.7526316 28.2615789,14.7726316 C28.2752632,14.7342105 28.2942105,14.6931579 28.3057895,14.6542105 C28.2726316,14.6731579 28.2384211,14.6957895 28.2068421,14.7152632 C28.22,14.6768421 28.2389474,14.6368421 28.2510526,14.5968421 C28.2178947,14.6163158 28.1831579,14.6389474 28.1510526,14.6584211 C28.1647368,14.6194737 28.1836842,14.5794737 28.1952632,14.54 C28.1626316,14.5594737 28.1284211,14.5810526 28.0963158,14.6015789 C28.11,14.5626316 28.1289474,14.5226316 28.1405263,14.4836842 C28.1078947,14.5021053 28.0726316,14.5247368 28.0410526,14.5447368 C28.0542105,14.5063158 28.0736842,14.4668421 28.0852632,14.4273684 C28.0526316,14.4457895 28.0173684,14.4684211 27.9857895,14.4878947 C27.9989474,14.45 28.0184211,14.4094737 28.03,14.3694737 C27.9973684,14.3884211 27.9626316,14.4110526 27.9305263,14.4305263 C27.9447368,14.3921053 27.9626316,14.3521053 27.9747368,14.3136842 C27.9421053,14.3315789 27.9068421,14.3542105 27.8752632,14.3736842 C27.8889474,14.3363158 27.9073684,14.2963158 27.9194737,14.2568421 C27.8868421,14.2752632 27.8515789,14.2984211 27.8189474,14.3184211 C27.8331579,14.2794737 27.8521053,14.2389474 27.8642105,14.1989474 C27.8315789,14.2184211 27.7963158,14.2410526 27.7642105,14.2605263 C27.7784211,14.2215789 27.7968421,14.1815789 27.8084211,14.1421053 C27.7757895,14.1615789 27.7410526,14.1842105 27.7094737,14.2036842 C27.7236842,14.1647368 27.7415789,14.1247368 27.7536842,14.0857895 C27.7210526,14.1042105 27.6868421,14.1268421 27.6542105,14.1463158 C27.6684211,14.1073684 27.6863158,14.0689474 27.6984211,14.0294737 C27.6657895,14.0478947 27.6310526,14.0705263 27.5989474,14.09 C27.6121053,14.0521053 27.6315789,14.0110526 27.6431579,13.9726316 C27.6105263,13.9910526 27.5752632,14.0136842 27.5436842,14.0336842 C27.5578947,13.9952632 27.5763158,13.9542105 27.5878947,13.9157895 C27.5552632,13.9336842 27.5205263,13.9563158 27.4884211,13.9768421 C27.5021053,13.9384211 27.5210526,13.8973684 27.5326316,13.8584211 C27.5,13.8773684 27.4657895,13.9 27.4331579,13.9194737 C27.4473684,13.8810526 27.4652632,13.8410526 27.4773684,13.8010526 C27.4447368,13.8205263 27.41,13.8431579 27.3778947,13.8626316 C27.3915789,13.8236842 27.4105263,13.7836842 27.4221053,13.7442105 C27.3894737,13.7636842 27.3542105,13.7863158 27.3226316,13.8057895 C27.3357895,13.7668421 27.3552632,13.7268421 27.3668421,13.6878947 C27.3342105,13.7063158 27.3,13.7289474 27.2678947,13.7484211 C27.2810526,13.7094737 27.3,13.6705263 27.3121053,13.6315789 C27.2789474,13.65 27.2442105,13.6726316 27.2121053,13.6931579 C27.2257895,13.6542105 27.2447368,13.6131579 27.2563158,13.5747368 C27.2236842,13.5931579 27.1889474,13.6157895 27.1563158,13.6352632 C27.1705263,13.5973684 27.1889474,13.5563158 27.2005263,13.5178947 C27.1678947,13.5368421 27.1326316,13.5584211 27.1010526,13.5789474 C27.1142105,13.5405263 27.1331579,13.5005263 27.1452632,13.4605263 C27.1126316,13.4794737 27.0773684,13.5010526 27.0457895,13.5215789 C27.06,13.4831579 27.0784211,13.4431579 27.0910526,13.4031579 C27.0584211,13.4226316 27.0231579,13.4442105 26.9915789,13.4647368 C27.0057895,13.4257895 27.0236842,13.3857895 27.0357895,13.3463158 C27.0031579,13.3657895 26.9678947,13.3884211 26.9347368,13.4089474 C26.9489474,13.3689474 26.9673684,13.33 26.9794737,13.29 C26.9468421,13.3094737 26.9121053,13.3310526 26.88,13.3515789 C26.8942105,13.3126316 26.9126316,13.2721053 26.9242105,13.2326316 C26.8915789,13.2521053 26.8563158,13.2736842 26.8252632,13.2936842 C26.8394737,13.2552632 26.8578947,13.2152632 26.8694737,13.1757895 C26.8363158,13.1952632 26.8021053,13.2178947 26.7705263,13.2373684 C26.7836842,13.1984211 26.8026316,13.1584211 26.8147368,13.12 C26.7815789,13.1384211 26.7468421,13.1610526 26.7147368,13.1810526 C26.7284211,13.1426316 26.7473684,13.1015789 26.7589474,13.0621053 C26.7263158,13.0815789 26.6915789,13.1042105 26.6589474,13.1236842 C26.6731579,13.0852632 26.6915789,13.0452632 26.7031579,13.0057895 C26.6705263,13.0247368 26.6363158,13.0473684 26.6042105,13.0668421 C26.6178947,13.0284211 26.6368421,12.9878947 26.6484211,12.9484211 C26.6152632,12.9678947 26.5810526,12.9905263 26.5494737,13.01 C26.5626316,12.9710526 26.5815789,12.9310526 26.5936842,12.8921053 C26.5610526,12.9105263 26.5268421,12.9331579 26.4942105,12.9526316 C26.5084211,12.9147368 26.5263158,12.8747368 26.5384211,12.8357895 C26.5057895,12.8552632 26.4705263,12.8768421 26.4378947,12.8973684 C26.4515789,12.8584211 26.4705263,12.8173684 26.4821053,12.7778947 C26.45,12.7973684 26.4152632,12.8189474 26.3831579,12.8394737 C26.3963158,12.8005263 26.4152632,12.7605263 26.4273684,12.7215789 C26.3947368,12.7405263 26.36,12.7631579 26.3278947,12.7831579 C26.3415789,12.7442105 26.36,12.7036842 26.3721053,12.6652632 C26.3394737,12.6847368 26.3042105,12.7068421 26.2726316,12.7268421 C26.2868421,12.6873684 26.3047368,12.6473684 26.3168421,12.6089474 C26.2842105,12.6284211 26.2489474,12.6505263 26.2173684,12.6705263 C26.2310526,12.6315789 26.25,12.5915789 26.2615789,12.5531579 C26.2289474,12.5726316 26.1936842,12.5947368 26.1615789,12.6147368 C26.1752632,12.5757895 26.1942105,12.5357895 26.2057895,12.4973684 C26.1731579,12.5168421 26.1389474,12.5389474 26.1068421,12.5584211 C26.1205263,12.5194737 26.1394737,12.4794737 26.1510526,12.4410526 C26.1184211,12.4605263 26.0831579,12.4826316 26.0515789,12.5026316 C26.0647368,12.4631579 26.0842105,12.4231579 26.0957895,12.3847368 C26.0631579,12.4042105 26.0278947,12.4263158 25.9957895,12.4463158 C26.0094737,12.4073684 26.0284211,12.3673684 26.04,12.3289474 C26.0073684,12.3484211 25.9726316,12.3705263 25.94,12.3905263 C25.9542105,12.3515789 25.9726316,12.3115789 25.9842105,12.2731579 C25.9521053,12.2921053 25.9173684,12.3147368 25.8852632,12.3342105 C25.8989474,12.2952632 25.9178947,12.2552632 25.9294737,12.2168421 C25.8968421,12.2363158 25.8621053,12.2584211 25.83,12.2784211 C25.8442105,12.2394737 25.8626316,12.1994737 25.8742105,12.1610526 C25.8415789,12.1805263 25.8073684,12.2026316 25.7747368,12.2226316 C25.7889474,12.1836842 25.8068421,12.1436842 25.8189474,12.1052632 C25.7863158,12.1242105 25.7521053,12.1468421 25.7194737,12.1663158 C25.7336842,12.1273684 25.7521053,12.0873684 25.7636842,12.0489474 C25.7310526,12.0684211 25.6968421,12.0905263 25.6647368,12.1105263 C25.6784211,12.0715789 25.6973684,12.0315789 25.7089474,11.9936842 C25.6757895,12.0131579 25.6410526,12.0357895 25.6078947,12.0557895 C25.6221053,12.0163158 25.6405263,11.9757895 25.6531579,11.9373684 C25.62,11.9568421 25.5852632,11.9789474 25.5536842,11.9989474 C25.5678947,11.96 25.5857895,11.92 25.5978947,11.8815789 C25.5652632,11.9005263 25.5310526,11.9231579 25.4984211,11.9426316 C25.5126316,11.9036842 25.5310526,11.8636842 25.5426316,11.8252632 C25.51,11.8447368 25.4757895,11.8668421 25.4436842,11.8868421 C25.4573684,11.8478947 25.4763158,11.8078947 25.4878947,11.7694737 C25.4547368,11.7889474 25.42,11.8110526 25.3878947,11.8310526 C25.4015789,11.7921053 25.4205263,11.7521053 25.4321053,11.7136842 C25.3994737,11.7331579 25.3652632,11.7552632 25.3326316,11.7752632 C25.3468421,11.7363158 25.3652632,11.6963158 25.3768421,11.6578947 C25.3442105,11.6773684 25.31,11.6994737 25.2773684,11.7194737 C25.2915789,11.6805263 25.31,11.6405263 25.3215789,11.6021053 C25.2894737,11.6210526 25.2547368,11.6431579 25.2226316,11.6631579 C25.2363158,11.6247368 25.2552632,11.5847368 25.2668421,11.5468421 C25.2342105,11.5663158 25.1984211,11.5884211 25.1668421,11.6089474 C25.1805263,11.5694737 25.1994737,11.5294737 25.2110526,11.4910526 C25.1784211,11.5105263 25.1436842,11.5326316 25.1115789,11.5526316 C25.1257895,11.5131579 25.1442105,11.4731579 25.1568421,11.4347368 C25.1242105,11.4542105 25.0889474,11.4763158 25.0568421,11.4963158 C25.0705263,11.4573684 25.0894737,11.4173684 25.1015789,11.3794737 C25.0689474,11.3989474 25.0336842,11.4210526 25.0010526,11.4410526 C25.0152632,11.4021053 25.0336842,11.3621053 25.0452632,11.3236842 C25.0126316,11.3431579 24.9784211,11.3652632 24.9463158,11.3852632 C24.9605263,11.3463158 24.9789474,11.3057895 24.9905263,11.2678947 C24.9573684,11.2873684 24.9226316,11.3094737 24.8905263,11.3294737 C24.9047368,11.2905263 24.9231579,11.2505263 24.9347368,11.2121053 C24.9021053,11.2315789 24.8678947,11.2536842 24.8352632,11.2736842 C24.8494737,11.2347368 24.8678947,11.1947368 24.8794737,11.1563158 C24.8473684,11.1752632 24.8126316,11.1973684 24.7805263,11.2173684 C24.7942105,11.1789474 24.8131579,11.1389474 24.8247368,11.1005263 C24.7921053,11.12 24.7568421,11.1421053 24.7247368,11.1621053 C24.7384211,11.1231579 24.7573684,11.0831579 24.7689474,11.0447368 C24.7363158,11.0642105 24.7010526,11.0863158 24.6689474,11.1063158 C24.6826316,11.0668421 24.7015789,11.0268421 24.7142105,10.9884211 C24.6810526,11.0078947 24.6463158,11.03 24.6147368,11.05 C24.6278947,11.0110526 24.6468421,10.9710526 24.6589474,10.9326316 C24.6263158,10.9515789 24.5921053,10.9736842 24.5594737,10.9936842 C24.5736842,10.9547368 24.5921053,10.9147368 24.6036842,10.8768421 C24.5710526,10.8963158 24.5357895,10.9189474 24.5036842,10.9389474 C24.5173684,10.8994737 24.5363158,10.8594737 24.5478947,10.8205263 C24.5152632,10.84 24.4810526,10.8621053 24.4489474,10.8821053 C24.4626316,10.8431579 24.4810526,10.8031579 24.4931579,10.7647368 C24.46,10.7842105 24.4252632,10.8063158 24.3936842,10.8263158 C24.4068421,10.7873684 24.4257895,10.7473684 24.4378947,10.7089474 C24.4052632,10.7278947 24.3710526,10.7505263 24.3384211,10.77 C24.3526316,10.7310526 24.3710526,10.6910526 24.3826316,10.6531579 C24.35,10.6726316 24.3147368,10.6947368 24.2831579,10.7147368 C24.2973684,10.6757895 24.3157895,10.6357895 24.3273684,10.5973684 C24.2947368,10.6168421 24.26,10.6389474 24.2278947,10.6589474 C24.2415789,10.62 24.2605263,10.58 24.2721053,10.5415789 C24.2394737,10.5610526 24.2047368,10.5831579 24.1726316,10.6031579 C24.1868421,10.5642105 24.2047368,10.5242105 24.2168421,10.4857895 C24.1842105,10.5052632 24.1489474,10.5273684 24.1173684,10.5473684 C24.1310526,10.5084211 24.1494737,10.4684211 24.1615789,10.43 C24.1289474,10.4494737 24.0936842,10.4715789 24.0621053,10.4915789 C24.0752632,10.4526316 24.0947368,10.4126316 24.1063158,10.3742105 C24.0736842,10.3936842 24.0384211,10.4157895 24.0063158,10.4357895 C24.0205263,10.3968421 24.0389474,10.3568421 24.0505263,10.3184211 C24.0178947,10.3373684 23.9836842,10.36 23.9515789,10.3794737 C23.9657895,10.3405263 23.9842105,10.3005263 23.9957895,10.2621053 C23.9631579,10.2815789 23.9289474,10.3036842 23.8963158,10.3236842 C23.9105263,10.2847368 23.9289474,10.2447368 23.9405263,10.2063158 C23.9078947,10.2257895 23.8736842,10.2478947 23.8410526,10.2678947 C23.8552632,10.2289474 23.8736842,10.1889474 23.8852632,10.1505263 C23.8526316,10.17 23.8184211,10.1921053 23.7863158,10.2121053 C23.8,10.1731579 23.8189474,10.1331579 23.8305263,10.0947368 C23.7973684,10.1142105 23.7626316,10.1363158 23.7305263,10.1563158 C23.7442105,10.1173684 23.7631579,10.0773684 23.7747368,10.0389474 C23.7421053,10.0584211 23.7078947,10.0805263 23.6752632,10.1005263 C23.6894737,10.0615789 23.7078947,10.0215789 23.7194737,9.98315789 C23.6868421,10.0026316 23.6521053,10.0247368 23.62,10.0447368 C23.6342105,10.0057895 23.6526316,9.96578947 23.6642105,9.92736842 C23.6315789,9.94631579 23.5973684,9.96894737 23.5652632,9.98842105 C23.5789474,9.94947368 23.5978947,9.90947368 23.6094737,9.87105263 C23.5768421,9.89052632 23.5421053,9.91263158 23.5105263,9.93263158 C23.5242105,9.89368421 23.5426316,9.85368421 23.5547368,9.81526316 C23.5215789,9.83473684 23.4868421,9.85684211 23.4547368,9.87684211 C23.4684211,9.83789474 23.4873684,9.79736842 23.4989474,9.75947368 C23.4663158,9.77894737 23.4315789,9.80105263 23.3989474,9.82105263 C23.4131579,9.78210526 23.4315789,9.74210526 23.4431579,9.70368421 C23.4105263,9.72315789 23.3763158,9.74526316 23.3442105,9.76526316 C23.3578947,9.72631579 23.3768421,9.68631579 23.3884211,9.64789474 C23.3552632,9.66736842 23.3210526,9.68947368 23.2884211,9.70947368 C23.3021053,9.67052632 23.3210526,9.63 23.3336842,9.59157895 C23.3005263,9.61105263 23.2652632,9.63315789 23.2336842,9.65315789 C23.2473684,9.61421053 23.2663158,9.57421053 23.2778947,9.53578947 C23.2452632,9.55473684 23.2105263,9.57684211 23.1789474,9.59684211 C23.1926316,9.55842105 23.2110526,9.51842105 23.2231579,9.48052632 C23.1905263,9.5 23.1552632,9.52210526 23.1226316,9.54210526 C23.1368421,9.50263158 23.1557895,9.46263158 23.1678947,9.42421053 C23.1352632,9.44368421 23.1,9.46578947 23.0678947,9.48578947 C23.0821053,9.44684211 23.1005263,9.40631579 23.1121053,9.36789474 C23.0794737,9.38736842 23.0452632,9.40947368 23.0131579,9.42947368 C23.0273684,9.39052632 23.0452632,9.35052632 23.0573684,9.31263158 C23.0242105,9.33210526 22.9894737,9.35421053 22.9578947,9.37421053 C22.9710526,9.33473684 22.99,9.29473684 23.0021053,9.25631579 C22.9694737,9.27578947 22.9342105,9.29789474 22.9015789,9.31789474 C22.9157895,9.27894737 22.9342105,9.23842105 22.9457895,9.2 C22.9131579,9.21947368 22.8789474,9.24157895 22.8468421,9.26157895 C22.8605263,9.22263158 22.8794737,9.18263158 22.8910526,9.14421053 C22.8578947,9.16368421 22.8236842,9.18578947 22.7921053,9.20578947 C22.8047368,9.16684211 22.8242105,9.12631579 22.8363158,9.08789474 C22.8036842,9.10684211 22.7694737,9.12894737 22.7368421,9.14894737 C22.7510526,9.11 22.7689474,9.07 22.7810526,9.03210526 C22.7484211,9.05157895 22.7136842,9.07368421 22.6815789,9.09368421 C22.6952632,9.05473684 22.7142105,9.01473684 22.7257895,8.97631579 C22.6931579,8.99578947 22.6578947,9.01789474 22.6263158,9.03789474 C22.6394737,8.99894737 22.6589474,8.95842105 22.6705263,8.92052632 C22.6378947,8.94 22.6031579,8.96210526 22.5710526,8.98210526 C22.5847368,8.94315789 22.6036842,8.90315789 22.6152632,8.86473684 C22.5826316,8.88421053 22.5484211,8.90631579 22.5157895,8.92631579 C22.53,8.88736842 22.5478947,8.84736842 22.56,8.80894737 C22.5273684,8.82842105 22.4926316,8.85052632 22.4605263,8.87052632 C22.4742105,8.83157895 22.4931579,8.79105263 22.5047368,8.75263158 C22.4721053,8.77210526 22.4368421,8.79421053 22.4052632,8.81421053 C22.4184211,8.77526316 22.4378947,8.73526316 22.4494737,8.69684211 C22.4168421,8.71631579 22.3821053,8.73842105 22.35,8.75842105 C22.3636842,8.71947368 22.3826316,8.67947368 22.3942105,8.64105263 C22.3615789,8.66 22.3268421,8.68210526 22.2952632,8.70210526 C22.3089474,8.66315789 22.3278947,8.62315789 22.3394737,8.58526316 C22.3068421,8.60473684 22.2721053,8.62684211 22.2394737,8.64684211 C22.2536842,8.60789474 22.2715789,8.56789474 22.2836842,8.52947368 C22.2510526,8.54894737 22.2163158,8.57105263 22.1842105,8.59105263 C22.1984211,8.55210526 22.2168421,8.51157895 22.2284211,8.47368421 C22.1957895,8.49315789 22.1605263,8.51526316 22.1289474,8.53526316 C22.1431579,8.49631579 22.1615789,8.45631579 22.1731579,8.41789474 C22.1405263,8.43736842 22.1057895,8.45947368 22.0736842,8.47947368 C22.0878947,8.44052632 22.1063158,8.40052632 22.1178947,8.36210526 C22.0852632,8.38157895 22.0510526,8.40368421 22.0184211,8.42368421 C22.0326316,8.38473684 22.0505263,8.34473684 22.0626316,8.30631579 C22.03,8.32578947 21.9952632,8.34789474 21.9631579,8.36789474 C21.9763158,8.32842105 21.9957895,8.28842105 22.0073684,8.25 C21.9747368,8.26894737 21.9405263,8.29157895 21.9084211,8.31105263 C21.9221053,8.27210526 21.9410526,8.23210526 21.9526316,8.19421053 C21.9194737,8.21368421 21.8852632,8.23578947 21.8536842,8.25578947 C21.8668421,8.21684211 21.8857895,8.17684211 21.8978947,8.13842105 C21.8647368,8.15789474 21.83,8.18 21.7978947,8.2 C21.8115789,8.16105263 21.8305263,8.12105263 21.8421053,8.08263158 C21.8094737,8.10210526 21.7747368,8.12421053 21.7421053,8.14421053 C21.7563158,8.10526316 21.7747368,8.06526316 21.7863158,8.02684211 C21.7536842,8.04631579 21.7194737,8.06842105 21.6873684,8.08842105 C21.7010526,8.04947368 21.72,8.00947368 21.7315789,7.97105263 C21.6989474,7.99 21.6647368,8.01210526 21.6326316,8.03210526 C21.6463158,7.99315789 21.6652632,7.95315789 21.6768421,7.91526316 C21.6442105,7.93473684 21.61,7.95684211 21.5768421,7.97684211 C21.5905263,7.93789474 21.6094737,7.89736842 21.6215789,7.85894737 C21.5889474,7.87842105 21.5536842,7.90052632 21.5221053,7.92052632 C21.5357895,7.88157895 21.5547368,7.84157895 21.5663158,7.80315789 C21.5336842,7.82263158 21.4984211,7.84473684 21.4663158,7.86526316 C21.48,7.82631579 21.4989474,7.78578947 21.5105263,7.74736842 C21.4778947,7.76631579 21.4436842,7.78842105 21.4115789,7.80842105 C21.4252632,7.76947368 21.4436842,7.72947368 21.4557895,7.69105263 C21.4226316,7.71052632 21.3878947,7.73263158 21.3563158,7.75263158 C21.3694737,7.71368421 21.3884211,7.67368421 21.4005263,7.63526316 C21.3678947,7.65473684 21.3326316,7.67684211 21.3005263,7.69684211 C21.3142105,7.65789474 21.3331579,7.61789474 21.3452632,7.57947368 C21.3126316,7.59842105 21.2778947,7.62052632 21.2457895,7.64052632 C21.26,7.60157895 21.2784211,7.56157895 21.2905263,7.52368421 C21.2573684,7.54315789 21.2221053,7.56526316 21.1905263,7.58526316 C21.2042105,7.54631579 21.2231579,7.50578947 21.2347368,7.46736842 C21.2021053,7.48684211 21.1673684,7.50894737 21.1352632,7.52894737 C21.1494737,7.49 21.1678947,7.45 21.1794737,7.41157895 C21.1468421,7.43105263 21.1115789,7.45315789 21.0789474,7.47368421 C21.0931579,7.43421053 21.1115789,7.39368421 21.1236842,7.35526316 C21.0910526,7.37473684 21.0563158,7.39684211 21.0236842,7.41684211 C21.0378947,7.37789474 21.0563158,7.33736842 21.0678947,7.29894737 C21.0357895,7.31789474 21.0010526,7.34052632 20.9689474,7.36 C20.9821053,7.32105263 21.0015789,7.28105263 21.0131579,7.24315789 C20.9805263,7.26263158 20.9457895,7.28473684 20.9136842,7.30473684 C20.9273684,7.26578947 20.9463158,7.22578947 20.9578947,7.18736842 C20.9252632,7.20684211 20.89,7.22894737 20.8584211,7.24894737 C20.8726316,7.21 20.8905263,7.17 20.9026316,7.13157895 C20.8705263,7.15052632 20.8357895,7.17263158 20.8031579,7.19263158 C20.8173684,7.15368421 20.8357895,7.11368421 20.8473684,7.07578947 C20.8147368,7.09526316 20.7805263,7.11736842 20.7484211,7.13736842 C20.7610526,7.09789474 20.7810526,7.05789474 20.7926316,7.01947368 C20.7594737,7.03894737 20.7247368,7.06105263 20.6926316,7.08157895 C20.7063158,7.04263158 20.7247368,7.00210526 20.7368421,6.96368421 C20.7042105,6.98263158 20.67,7.00473684 20.6373684,7.02473684 C20.6515789,6.98578947 20.67,6.94578947 20.6815789,6.90736842 C20.6489474,6.92684211 20.6147368,6.94894737 20.5821053,6.96894737 C20.5952632,6.92947368 20.6147368,6.88947368 20.6263158,6.85105263 C20.5936842,6.87052632 20.5594737,6.89263158 20.5273684,6.91263158 C20.5410526,6.87368421 20.56,6.83368421 20.5715789,6.79578947 C20.5384211,6.81526316 20.5036842,6.83736842 20.4715789,6.85736842 C20.4852632,6.81842105 20.5042105,6.77842105 20.5157895,6.74 C20.4831579,6.75947368 20.4484211,6.78157895 20.4163158,6.80157895 C20.4294737,6.76210526 20.4489474,6.72210526 20.4605263,6.68368421 C20.4284211,6.70263158 20.3936842,6.72473684 20.3615789,6.74473684 C20.3747368,6.70631579 20.3936842,6.66631579 20.4057895,6.62842105 C20.3731579,6.64789474 20.3378947,6.67 20.3052632,6.69 C20.3194737,6.65105263 20.3378947,6.61105263 20.3494737,6.57263158 C20.3168421,6.59210526 20.2826316,6.61421053 20.2505263,6.63421053 C20.2647368,6.59473684 20.2831579,6.55473684 20.2947368,6.51631579 C20.2615789,6.53578947 20.2273684,6.55789474 20.1957895,6.57789474 C20.2089474,6.53894737 20.2278947,6.49894737 20.24,6.46052632 C20.2068421,6.48 20.1721053,6.50210526 20.1394737,6.52210526 C20.1536842,6.48315789 20.1721053,6.44315789 20.1836842,6.40473684 C19.6736842,6.70789474 19.0878947,7.11736842 18.4884211,7.33684211 C18.4789474,7.32842105 18.4710526,7.31947368 18.4615789,7.31105263 C18.4431579,7.29210526 18.4247368,7.27263158 18.4052632,7.25421053 C18.3873684,7.23578947 18.3694737,7.21684211 18.3505263,7.19947368 C18.3321053,7.18105263 18.3142105,7.16157895 18.2947368,7.14315789 C18.2763158,7.12473684 18.2584211,7.10578947 18.24,7.08789474 C18.2215789,7.06947368 18.2042105,7.05 18.1847368,7.03210526 C18.1673684,7.01421053 18.15,6.99526316 18.1310526,6.97789474 C18.1105263,6.95842105 18.0921053,6.93789474 18.0715789,6.91842105 C18.0542105,6.90052632 18.0357895,6.88157895 18.0168421,6.86368421 C17.9984211,6.84526316 17.98,6.82578947 17.9615789,6.80842105 C17.9431579,6.78947368 17.9236842,6.77 17.9052632,6.75157895 C17.3026316,6.27473684 16.7468421,5.93052632 15.9078947,5.93052632 C14.1194737,5.93052632 12.75,7.3 12.75,9.08842105 C12.75,9.29789474 12.7747368,9.45684211 12.8078947,9.59157895 L12.75,9.61473684 C10.2221053,9.61473684 8.38105263,9.18210526 6.92736842,8.00473684 C6.92315789,7.99947368 6.91894737,7.99526316 6.91473684,7.99 C6.91421053,7.99105263 6.91368421,7.99210526 6.91315789,7.99315789 C6.91052632,7.99105263 6.90789474,7.98947368 6.90526316,7.98736842 C6.89,7.96894737 6.87421053,7.95210526 6.85894737,7.93368421 C6.85789474,7.93526316 6.85684211,7.93736842 6.85578947,7.93894737 C6.83842105,7.91789474 6.82052632,7.89894737 6.80263158,7.87789474 C6.80157895,7.87947368 6.80052632,7.88157895 6.79947368,7.88315789 C6.78210526,7.86210526 6.76421053,7.84315789 6.74631579,7.82210526 C6.74526316,7.82368421 6.74473684,7.82526316 6.74368421,7.82736842 C6.72631579,7.80631579 6.70789474,7.78736842 6.69052632,7.76578947 C6.68947368,7.76736842 6.68894737,7.76947368 6.68789474,7.77105263 C6.67052632,7.75 6.65210526,7.73105263 6.63473684,7.70947368 C6.63368421,7.71105263 6.63315789,7.71315789 6.63210526,7.71473684 C6.61473684,7.69368421 6.59631579,7.67526316 6.57894737,7.65368421 C6.57789474,7.65526316 6.57736842,7.65736842 6.57631579,7.65894737 C6.55894737,7.63789474 6.54052632,7.61894737 6.52315789,7.59736842 C6.52210526,7.59894737 6.52157895,7.60052632 6.52052632,7.60263158 C6.50315789,7.58157895 6.48473684,7.56263158 6.46736842,7.54157895 C6.46631579,7.54315789 6.46526316,7.54526316 6.46421053,7.54684211 C6.44684211,7.52578947 6.42894737,7.50684211 6.41105263,7.48578947 C6.41,7.48736842 6.40947368,7.48947368 6.40842105,7.49105263 C6.39105263,7.47 6.37263158,7.45105263 6.35526316,7.42947368 C6.35421053,7.43105263 6.35368421,7.43315789 6.35263158,7.43473684 C6.33526316,7.41368421 6.31684211,7.39473684 6.29947368,7.37315789 C6.29842105,7.37473684 6.29789474,7.37684211 6.29684211,7.37842105 C6.27947368,7.35736842 6.26105263,7.33842105 6.24368421,7.31684211 C6.24263158,7.31842105 6.24210526,7.32052632 6.24105263,7.32210526 C6.22368421,7.30105263 6.20526316,7.28210526 6.18789474,7.26052632 C6.18684211,7.26210526 6.18631579,7.26421053 6.18526316,7.26578947 C6.16789474,7.24473684 6.14947368,7.22631579 6.13210526,7.20473684 C6.13105263,7.20631579 6.13052632,7.20842105 6.12947368,7.21 C6.11210526,7.18894737 6.09368421,7.17 6.07631579,7.14894737 C6.07526316,7.15052632 6.07473684,7.15263158 6.07368421,7.15421053 C6.05631579,7.13315789 6.03789474,7.11421053 6.02052632,7.09263158 C6.01947368,7.09421053 6.01894737,7.09631579 6.01789474,7.09789474 C6.00052632,7.07684211 5.98210526,7.05789474 5.96473684,7.03631579 C5.96368421,7.03789474 5.96315789,7.04 5.96210526,7.04157895 C5.94473684,7.02052632 5.92631579,7.00157895 5.90894737,6.98 C5.62947368,7.45789474 5.38263158,7.96526316 5.38263158,8.55894737 C5.38263158,9.41421053 5.79473684,10.1536842 6.37473684,10.7152632 C6.39315789,10.7336842 6.41105263,10.7521053 6.42947368,10.77 C6.44842105,10.7894737 6.46736842,10.8084211 6.48684211,10.8273684 C6.50473684,10.8457895 6.52263158,10.8636842 6.54157895,10.8821053 C6.56052632,10.9010526 6.57947368,10.9205263 6.59842105,10.9389474 C6.61736842,10.9578947 6.63578947,10.9768421 6.65526316,10.9957895 C6.67315789,11.0136842 6.69105263,11.0315789 6.70947368,11.05 C6.72842105,11.0689474 6.74684211,11.0878947 6.76578947,11.1063158 C6.78473684,11.1252632 6.80263158,11.1436842 6.82157895,11.1621053 C6.82473684,11.1652632 6.82736842,11.1689474 6.83105263,11.1721053 C6.33105263,11.1247368 5.78315789,10.8889474 5.38157895,10.6673684 C5.38157895,11.3731579 5.82894737,12.1278947 6.45473684,12.7731579 C6.47263158,12.7921053 6.49210526,12.8094737 6.51,12.8278947 C6.52842105,12.8473684 6.54842105,12.8657895 6.56736842,12.8852632 C6.58578947,12.9047368 6.60578947,12.9221053 6.62421053,12.9415789 C6.64157895,12.9594737 6.66105263,12.9768421 6.67894737,12.9963158 C6.69684211,13.0147368 6.71631579,13.0331579 6.73421053,13.0515789 C6.75263158,13.0705263 6.77315789,13.0889474 6.79157895,13.1084211 C6.80894737,13.1263158 6.82789474,13.1426316 6.84526316,13.1626316 C6.86368421,13.1821053 6.88421053,13.2 6.90315789,13.2194737 C6.92157895,13.24 6.94210526,13.2573684 6.96052632,13.2763158 C6.97684211,13.2936842 6.99473684,13.3094737 7.01157895,13.3284211 C7.03105263,13.3478947 7.05157895,13.3673684 7.07105263,13.3873684 C7.08947368,13.4068421 7.10947368,13.4252632 7.12789474,13.4436842 C7.14526316,13.4621053 7.16368421,13.4784211 7.18157895,13.4978947 C7.19947368,13.5168421 7.21947368,13.5342105 7.23736842,13.5526316 C7.25578947,13.5721053 7.27631579,13.5905263 7.29473684,13.61 C7.31157895,13.6273684 7.32947368,13.6436842 7.34684211,13.6626316 C7.36631579,13.6821053 7.38684211,13.7015789 7.40578947,13.7221053 C7.42421053,13.7415789 7.44421053,13.7589474 7.46263158,13.7784211 C7.48,13.7957895 7.49894737,13.8126316 7.51684211,13.8331579 C7.53526316,13.8515789 7.55473684,13.87 7.57368421,13.8884211 C7.59210526,13.9078947 7.61210526,13.9263158 7.63105263,13.9452632 C7.64789474,13.9636842 7.66684211,13.98 7.68421053,13.9994737 C7.70263158,14.0189474 7.72263158,14.0373684 7.74105263,14.0552632 C7.75894737,14.0747368 7.77894737,14.0921053 7.79736842,14.1110526 C7.81526316,14.1294737 7.83421053,14.1468421 7.85210526,14.1657895 C7.87052632,14.1852632 7.89052632,14.2036842 7.90947368,14.2231579 C7.92631579,14.2405263 7.94473684,14.2568421 7.96210526,14.2763158 C7.98105263,14.2963158 8.00157895,14.3147368 8.02105263,14.3352632 C8.03894737,14.3536842 8.05842105,14.3710526 8.07631579,14.39 C8.09421053,14.4089474 8.11368421,14.4263158 8.13157895,14.4447368 C8.14947368,14.4642105 8.16947368,14.4810526 8.18736842,14.5005263 C8.20578947,14.52 8.22631579,14.5378947 8.24473684,14.5568421 C8.25315789,14.5663158 8.26263158,14.5742105 8.27105263,14.5836842 C7.52368421,14.6147368 6.57157895,14.3731579 6.43421053,14.3463158 C6.59,14.8336842 6.87789474,15.2489474 7.25105263,15.5789474 C7.27052632,15.5973684 7.28684211,15.6168421 7.30684211,15.6347368 C7.32631579,15.6526316 7.34315789,15.6731579 7.36315789,15.6905263 C7.38263158,15.7078947 7.39947368,15.7284211 7.41894737,15.7457895 C7.43894737,15.7636842 7.45578947,15.7842105 7.47578947,15.8015789 C7.49473684,15.8184211 7.51105263,15.8378947 7.53052632,15.8563158 C7.55,15.8736842 7.56684211,15.8942105 7.58684211,15.9115789 C7.60631579,15.93 7.62263158,15.9494737 7.64263158,15.9668421 C7.66210526,15.9847368 7.67842105,16.0047368 7.69842105,16.0215789 C7.71789474,16.04 7.73421053,16.0589474 7.75368421,16.0763158 C7.77315789,16.0947368 7.79,16.1147368 7.80947368,16.1326316 C7.82894737,16.15 7.84578947,16.1705263 7.86578947,16.1878947 C7.88526316,16.2063158 7.90210526,16.2257895 7.92210526,16.2436842 C7.94157895,16.2610526 7.95789474,16.2815789 7.97736842,16.2984211 C7.99684211,16.3157895 8.01315789,16.3363158 8.03263158,16.3531579 C8.05210526,16.3710526 8.06947368,16.3915789 8.08947368,16.4089474 C8.10842105,16.4263158 8.12421053,16.4457895 8.14368421,16.4636842 C8.16315789,16.4815789 8.18,16.5021053 8.2,16.5194737 C8.22,16.5373684 8.23684211,16.5578947 8.25684211,16.5763158 C8.27631579,16.5936842 8.29263158,16.6136842 8.31210526,16.6310526 C8.33157895,16.6494737 8.34842105,16.67 8.36842105,16.6873684 C8.38789474,16.7042105 8.40421053,16.7247368 8.42368421,16.7421053 C8.44315789,16.7605263 8.46,16.7810526 8.48,16.7984211 C8.49947368,16.8157895 8.51631579,16.8363158 8.53631579,16.8531579 C8.55526316,16.8705263 8.57105263,16.8905263 8.59052632,16.9078947 C8.61052632,16.9263158 8.62789474,16.9468421 8.64789474,16.9647368 C8.66631579,16.9815789 8.68157895,17.0010526 8.70052632,17.0178947 C7.78947368,17.5068421 6.75789474,17.7589474 5.62578947,17.7589474 C5.36368421,17.7589474 5.10631579,17.7436842 4.85263158,17.7147368 C4.88526316,17.7357895 4.92210526,17.7526316 4.95526316,17.7731579 C4.94,17.7710526 4.92368421,17.7721053 4.90894737,17.77 C4.94157895,17.7915789 4.97842105,17.8078947 5.01157895,17.8284211 C4.99631579,17.8263158 4.98,17.8273684 4.96526316,17.8252632 C4.99789474,17.8468421 5.03473684,17.8631579 5.06789474,17.8836842 C5.05263158,17.8821053 5.03631579,17.8821053 5.02105263,17.8810526 C5.05368421,17.9015789 5.09052632,17.9184211 5.12368421,17.9389474 C5.10842105,17.9368421 5.09263158,17.9378947 5.07736842,17.9357895 C5.11,17.9563158 5.14578947,17.9736842 5.17894737,17.9936842 C5.16368421,17.9921053 5.14789474,17.9926316 5.13263158,17.9910526 C5.16526316,18.0115789 5.20210526,18.0289474 5.23526316,18.0494737 C5.22,18.0473684 5.20421053,18.0484211 5.18894737,18.0463158 C5.22157895,18.0668421 5.25842105,18.0836842 5.29157895,18.1042105 C5.27631579,18.1026316 5.26,18.1031579 5.24473684,18.1015789 C5.27736842,18.1226316 5.31421053,18.1384211 5.34736842,18.1589474 C5.33210526,18.1578947 5.31578947,18.1578947 5.30105263,18.1568421 C5.33368421,18.1773684 5.37052632,18.1942105 5.40368421,18.2147368 C5.38842105,18.2131579 5.37210526,18.2136842 5.35684211,18.2121053 C5.38947368,18.2331579 5.42631579,18.25 5.45947368,18.2705263 C5.44421053,18.2684211 5.42842105,18.2694737 5.41315789,18.2673684 C5.44578947,18.2889474 5.48263158,18.3052632 5.51578947,18.3252632 C5.50052632,18.3236842 5.48421053,18.3242105 5.46894737,18.3226316 C5.50157895,18.3431579 5.53736842,18.36 5.57052632,18.3805263 C5.55578947,18.3778947 5.54,18.3789474 5.52526316,18.3768421 C5.55789474,18.3984211 5.59473684,18.4147368 5.62789474,18.4352632 C5.61263158,18.4336842 5.59631579,18.4342105 5.58105263,18.4326316 C5.61368421,18.4536842 5.65052632,18.4705263 5.68368421,18.4905263 C5.66842105,18.4894737 5.65263158,18.4894737 5.63736842,18.4884211 C5.67,18.5089474 5.70684211,18.5263158 5.74,18.5457895 C5.72473684,18.5442105 5.70842105,18.5447368 5.69315789,18.5431579 C5.72578947,18.5642105 5.76263158,18.5810526 5.79578947,18.6015789 C5.78052632,18.5994737 5.76421053,18.6005263 5.74894737,18.5984211 C5.78157895,18.6194737 5.81842105,18.6357895 5.85157895,18.6563158 C5.83631579,18.6552632 5.82,18.6552632 5.80526316,18.6536842 C5.83789474,18.6747368 5.87473684,18.6915789 5.90789474,18.7121053 C5.89263158,18.7105263 5.87631579,18.7110526 5.86157895,18.7094737 C5.89421053,18.73 5.93,18.7473684 5.96315789,18.7668421 C5.94789474,18.7657895 5.93210526,18.7657895 5.91736842,18.7636842 C5.95,18.7847368 5.98684211,18.8015789 6.02,18.8221053 C6.00473684,18.8205263 5.98842105,18.8210526 5.97368421,18.8194737 C6.00631579,18.8405263 6.04315789,18.8568421 6.07631579,18.8773684 C6.06105263,18.8752632 6.04473684,18.8763158 6.02947368,18.8742105 C6.06210526,18.8957895 6.09894737,18.9121053 6.13210526,18.9326316 C6.11684211,18.9310526 6.10052632,18.9315789 6.08578947,18.93 C6.11842105,18.9510526 6.15526316,18.9673684 6.18842105,18.9878947 C6.17315789,18.9868421 6.15684211,18.9868421 6.14210526,18.9857895 C6.17473684,19.0063158 6.21157895,19.0226316 6.24473684,19.0431579 C6.22947368,19.0415789 6.21315789,19.0421053 6.19789474,19.0405263 C6.23052632,19.0615789 6.26736842,19.0778947 6.30052632,19.0984211 C6.28526316,19.0963158 6.26894737,19.0973684 6.25421053,19.0952632 C6.28684211,19.1168421 6.32368421,19.1331579 6.35684211,19.1536842 C6.34157895,19.1521053 6.32526316,19.1526316 6.31052632,19.1510526 C6.34315789,19.1715789 6.37894737,19.1889474 6.41210526,19.2089474 C6.39736842,19.2068421 6.38157895,19.2078947 6.36684211,19.2057895 C6.39947368,19.2273684 6.43631579,19.2431579 6.46947368,19.2636842 C6.45421053,19.2621053 6.43789474,19.2626316 6.42263158,19.2610526 C6.45526316,19.2821053 6.49210526,19.2989474 6.52526316,19.3194737 C6.51,19.3173684 6.49368421,19.3184211 6.47842105,19.3163158 C6.51105263,19.3368421 6.54789474,19.3542105 6.58105263,19.3747368 C6.56578947,19.3726316 6.54947368,19.3736842 6.53473684,19.3715789 C6.56736842,19.3926316 6.60421053,19.4094737 6.63736842,19.43 C6.62210526,19.4284211 6.60578947,19.4289474 6.59105263,19.4268421 C6.62368421,19.4484211 6.66052632,19.4647368 6.69368421,19.4852632 C6.67842105,19.4836842 6.66210526,19.4836842 6.64684211,19.4826316 C6.67947368,19.5031579 6.71631579,19.52 6.74947368,19.5405263 C6.73421053,19.5389474 6.71789474,19.5394737 6.70315789,19.5378947 C6.73578947,19.5578947 6.77157895,19.5752632 6.80473684,19.5947368 C6.79,19.5936842 6.77421053,19.5936842 6.75947368,19.5926316 C6.79210526,19.6131579 6.82894737,19.63 6.86210526,19.6505263 C6.84684211,19.6489474 6.83052632,19.6494737 6.81578947,19.6478947 C6.84842105,19.6689474 6.88526316,19.6857895 6.91842105,19.7063158 C6.90315789,19.7042105 6.88684211,19.7052632 6.87210526,19.7031579 C6.90473684,19.7247368 6.94157895,19.7405263 6.97473684,19.7610526 C6.95947368,19.7594737 6.94315789,19.76 6.92789474,19.7584211 C6.96052632,19.7794737 6.99736842,19.7952632 7.03052632,19.8157895 C7.01526316,19.8147368 6.99894737,19.8147368 6.98421053,19.8136842 C7.01684211,19.8342105 7.05368421,19.8510526 7.08684211,19.8715789 C7.07157895,19.87 7.05526316,19.8705263 7.04052632,19.8689474 C7.07315789,19.8894737 7.10894737,19.9068421 7.14210526,19.9263158 C7.12736842,19.9252632 7.11105263,19.9252632 7.09631579,19.9242105 C7.12947368,19.9447368 7.16631579,19.9615789 7.2,19.9821053 C7.18421053,19.9805263 7.16789474,19.9810526 7.15263158,19.9794737 C7.18526316,20 7.22105263,20.0173684 7.25421053,20.0368421 C7.23894737,20.0347368 7.22315789,20.0357895 7.20842105,20.0336842 C7.24105263,20.0552632 7.27789474,20.0715789 7.31105263,20.0921053 C7.29578947,20.0910526 7.28,20.0910526 7.26473684,20.0894737 C7.29736842,20.1105263 7.33421053,20.1273684 7.36736842,20.1473684 C7.35210526,20.1463158 7.33578947,20.1463158 7.32052632,20.1452632 C7.35315789,20.1657895 7.39,20.1826316 7.42315789,20.2031579 C7.40789474,20.2010526 7.39157895,20.2021053 7.37684211,20.2 C7.40947368,20.2215789 7.44631579,20.2378947 7.47947368,20.2584211 C7.46421053,20.2568421 7.44789474,20.2568421 7.43263158,20.2557895 C7.46526316,20.2763158 7.50210526,20.2926316 7.53526316,20.3131579 C7.52,20.3121053 7.50421053,20.3121053 7.48894737,20.3110526 C7.52157895,20.3315789 7.55842105,20.3484211 7.59157895,20.3689474 C7.57631579,20.3673684 7.56,20.3678947 7.54473684,20.3663158 C7.57736842,20.3868421 7.61315789,20.4042105 7.64631579,20.4236842 C7.63157895,20.4221053 7.61578947,20.4221053 7.60105263,20.4210526 C7.63368421,20.4415789 7.67052632,20.4584211 7.70368421,20.4789474 C7.68842105,20.4773684 7.67210526,20.4778947 7.65684211,20.4763158 C7.68947368,20.4973684 7.72631579,20.5136842 7.75947368,20.5342105 C7.74421053,20.5321053 7.72842105,20.5331579 7.71315789,20.5310526 C7.74578947,20.5526316 7.78263158,20.5689474 7.81578947,20.5894737 C7.80052632,20.5878947 7.78421053,20.5884211 7.76894737,20.5868421 C7.80157895,20.6078947 7.83842105,20.6242105 7.87157895,20.6447368 C7.85631579,20.6436842 7.84,20.6436842 7.82526316,20.6426316 C7.85789474,20.6626316 7.89473684,20.68 7.92789474,20.7005263 C7.91263158,20.6984211 7.89631579,20.6989474 7.88157895,20.6973684 C7.91421053,20.7184211 7.95105263,20.7347368 7.98421053,20.7552632 C7.96894737,20.7542105 7.95263158,20.7542105 7.93736842,20.7521053 C7.97,20.7726316 8.00578947,20.79 8.03894737,20.8105263 C8.02421053,20.8084211 8.00789474,20.8094737 7.99315789,20.8073684 C8.02578947,20.8284211 8.06263158,20.8452632 8.09578947,20.8657895 C8.08052632,20.8636842 8.06473684,20.8647368 8.04947368,20.8626316 C8.08210526,20.8842105 8.11894737,20.9 8.15210526,20.9205263 C8.13684211,20.9194737 8.12052632,20.9194737 8.10578947,20.9184211 C8.13842105,20.9389474 8.17526316,20.9557895 8.20842105,20.9763158 C8.19315789,20.9742105 8.17684211,20.9752632 8.16210526,20.9731579 C8.19473684,20.9947368 8.23157895,21.0110526 8.26473684,21.0315789 C8.24947368,21.0294737 8.23315789,21.0305263 8.21842105,21.0284211 C8.25105263,21.05 8.28789474,21.0663158 8.32105263,21.0868421 C8.30578947,21.0847368 8.28947368,21.0857895 8.27421053,21.0836842 C8.30684211,21.1052632 8.34368421,21.1210526 8.37684211,21.1415789 C8.36157895,21.1405263 8.34578947,21.1405263 8.33052632,21.1394737 C8.36315789,21.16 8.4,21.1768421 8.43315789,21.1973684 C8.41789474,21.1952632 8.40157895,21.1963158 8.38631579,21.1942105 C8.41894737,21.2147368 8.45473684,21.2321053 8.48789474,21.2515789 C8.47315789,21.2505263 8.45684211,21.2505263 8.44210526,21.2494737 C8.47473684,21.27 8.51157895,21.2873684 8.54473684,21.3073684 C8.52947368,21.3057895 8.51315789,21.3063158 8.49842105,21.3047368 C8.53105263,21.3252632 8.56789474,21.3426316 8.60105263,21.3631579 C8.58578947,21.3605263 8.56947368,21.3615789 8.55473684,21.3594737 C8.58736842,21.3810526 8.62421053,21.3973684 8.65736842,21.4178947 C8.64210526,21.4163158 8.62578947,21.4168421 8.61105263,21.4152632 C8.64368421,21.4357895 8.68052632,21.4531579 8.71368421,21.4736842 C8.69842105,21.4715789 8.68210526,21.4726316 8.66736842,21.4705263 C8.7,21.4910526 8.73684211,21.5084211 8.77,21.5289474 C8.75473684,21.5268421 8.73842105,21.5278947 8.72315789,21.5257895 C8.75578947,21.5468421 8.79263158,21.5636842 8.82578947,21.5842105 C8.81052632,21.5821053 8.79421053,21.5831579 8.77947368,21.5810526 C8.81210526,21.6021053 8.84894737,21.6184211 8.88210526,21.6389474 C8.86684211,21.6378947 8.85052632,21.6378947 8.83578947,21.6368421 C8.86842105,21.6573684 8.90421053,21.6742105 8.93736842,21.6936842 C8.92263158,21.6926316 8.90631579,21.6926316 8.89157895,21.6915789 C8.92421053,21.7121053 8.96105263,21.7284211 8.99421053,21.7489474 C8.97894737,21.7478947 8.96263158,21.7478947 8.94789474,21.7468421 C8.98052632,21.7673684 9.01736842,21.7836842 9.05052632,21.8042105 C9.03526316,21.8031579 9.01894737,21.8031579 9.00421053,21.8021053 C9.03684211,21.8226316 9.07368421,21.8394737 9.10684211,21.86 C9.09157895,21.8578947 9.07526316,21.8589474 9.06052632,21.8568421 C9.09315789,21.8784211 9.13,21.8942105 9.16315789,21.9147368 C9.14789474,21.9136842 9.13157895,21.9136842 9.11684211,21.9126316 C9.14947368,21.9331579 9.18631579,21.95 9.21947368,21.97 C9.20421053,21.9689474 9.18789474,21.9689474 9.17315789,21.9678947 C9.20578947,21.9884211 9.24210526,22.0057895 9.27473684,22.0252632 C9.25947368,22.0231579 9.24368421,22.0242105 9.22842105,22.0221053 C9.26105263,22.0436842 9.29789474,22.06 9.33105263,22.0805263 C9.31578947,22.0789474 9.3,22.0789474 9.28473684,22.0778947 C9.31736842,22.0984211 9.35421053,22.1157895 9.38736842,22.1363158 C9.37210526,22.1336842 9.35578947,22.1347368 9.34105263,22.1326316 C9.37368421,22.1542105 9.41052632,22.1705263 9.44368421,22.1910526 C9.42842105,22.1894737 9.41210526,22.19 9.39684211,22.1884211 C9.42947368,22.2084211 9.46526316,22.2257895 9.49842105,22.2463158 C9.48368421,22.2442105 9.46789474,22.2452632 9.45315789,22.2431579 C9.48631579,22.2636842 9.52315789,22.2810526 9.55684211,22.3015789 C9.54105263,22.3 9.52473684,22.3005263 9.50894737,22.2989474 C9.54157895,22.32 9.57842105,22.3368421 9.61157895,22.3573684 C9.59631579,22.3552632 9.58052632,22.3563158 9.56526316,22.3536842 C9.59789474,22.3752632 9.63473684,22.3926316 9.66789474,22.4121053 C9.65263158,22.4110526 9.63631579,22.4110526 9.62105263,22.4094737 C9.65368421,22.43 9.68947368,22.4468421 9.72263158,22.4673684 C9.70736842,22.4652632 9.69157895,22.4663158 9.67684211,22.4642105 C9.70947368,22.4857895 9.74631579,22.5021053 9.77947368,22.5226316 C9.76421053,22.5205263 9.74789474,22.5215789 9.73315789,22.5194737 C9.76578947,22.5405263 9.80263158,22.5568421 9.83578947,22.5773684 C9.82052632,22.5763158 9.80473684,22.5763158 9.78947368,22.5752632 C9.82210526,22.5957895 9.85894737,22.6126316 9.89210526,22.6331579 C9.87684211,22.6310526 9.86052632,22.6321053 9.84526316,22.63 C9.87789474,22.6515789 9.91473684,22.6678947 9.94789474,22.6884211 C9.93263158,22.6863158 9.91631579,22.6873684 9.90157895,22.6852632 C9.93421053,22.7068421 9.97105263,22.7231579 10.0042105,22.7436842 C9.98894737,22.7415789 9.97263158,22.7426316 9.95736842,22.7405263 C9.99,22.7621053 10.0268421,22.7784211 10.06,22.7989474 C10.0447368,22.7973684 10.0289474,22.7978947 10.0136842,22.7963158 C10.0463158,22.8168421 10.0821053,22.8336842 10.1152632,22.8531579 C10.1005263,22.8521053 10.0842105,22.8521053 10.0694737,22.8510526 C10.1021053,22.8715789 10.1389474,22.8884211 10.1721053,22.9089474 C10.1568421,22.9073684 10.1405263,22.9078947 10.1252632,22.9063158 C10.1578947,22.9268421 10.1947368,22.9442105 10.2278947,22.9647368 C10.2126316,22.9626316 10.1963158,22.9636842 10.1815789,22.9615789 C10.2142105,22.9821053 10.2510526,22.9989474 10.2842105,23.0194737 C10.2689474,23.0178947 10.2526316,23.0184211 10.2378947,23.0168421 C10.2705263,23.0378947 10.3073684,23.0542105 10.3405263,23.0742105 C10.3252632,23.0731579 10.3089474,23.0731579 10.2942105,23.0721053 C10.3268421,23.0926316 10.3626316,23.11 10.3957895,23.1294737 C10.3805263,23.1278947 10.3647368,23.1284211 10.3494737,23.1268421 C10.3826316,23.1478947 10.4194737,23.1652632 10.4531579,23.1857895 C10.4378947,23.1836842 10.4215789,23.1847368 10.4063158,23.1826316 C10.4389474,23.2042105 10.4757895,23.2205263 10.5089474,23.2410526 C10.4936842,23.2389474 10.4773684,23.2394737 10.4621053,23.2378947 C10.4947368,23.2589474 10.5315789,23.2757895 10.5647368,23.2957895 C10.5494737,23.2947368 10.5331579,23.2947368 10.5184211,23.2936842 C10.5510526,23.3136842 10.5868421,23.3310526 10.62,23.3505263 C10.6047368,23.3489474 10.5889474,23.3494737 10.5742105,23.3478947 C10.6068421,23.3689474 10.6436842,23.3857895 10.6768421,23.4063158 C10.6615789,23.4047368 10.6452632,23.4047368 10.6305263,23.4036842 C10.6631579,23.4242105 10.7,23.4415789 10.7331579,23.4621053 C10.7178947,23.46 10.7015789,23.46 10.6868421,23.4589474 C10.7194737,23.4794737 10.7563158,23.4963158 10.7894737,23.5168421 C10.7742105,23.5152632 10.7578947,23.5157895 10.7431579,23.5136842 C10.7757895,23.5352632 10.8126316,23.5510526 10.8457895,23.5715789 C10.8305263,23.5705263 10.8142105,23.5705263 10.7989474,23.5694737 C10.8315789,23.59 10.8678947,23.6068421 10.9005263,23.6268421 C10.8852632,23.6252632 10.8694737,23.6257895 10.8547368,23.6242105 C10.8878947,23.6452632 10.9247368,23.6626316 10.9584211,23.6831579 C10.9431579,23.6810526 10.9268421,23.6821053 10.9115789,23.68 C10.9442105,23.7005263 10.98,23.7173684 11.0131579,23.7373684 C10.9978947,23.7357895 10.9821053,23.7363158 10.9668421,23.7347368 C10.9994737,23.7557895 11.0363158,23.7721053 11.0694737,23.7926316 C11.0542105,23.7905263 11.0378947,23.7915789 11.0231579,23.7894737 C11.0557895,23.8110526 11.0926316,23.8273684 11.1257895,23.8478947 C11.1105263,23.8463158 11.0942105,23.8468421 11.0794737,23.8452632 C11.1121053,23.8663158 11.1489474,23.8826316 11.1821053,23.9031579 C11.1668421,23.9021053 11.1505263,23.9021053 11.1357895,23.9010526 C11.1684211,23.9215789 11.2052632,23.9378947 11.2384211,23.9584211 C11.2231579,23.9568421 11.2068421,23.9573684 11.1915789,23.9557895 C11.2242105,23.9763158 11.26,23.9936842 11.2931579,24.0126316 C11.2784211,24.0115789 11.2626316,24.0115789 11.2478947,24.0105263 C11.2810526,24.0310526 11.3178947,24.0484211 11.3515789,24.0689474 C11.3357895,24.0673684 11.3194737,24.0678947 11.3036842,24.0663158 C11.3363158,24.0873684 11.3731579,24.1042105 11.4063158,24.1247368 C11.3910526,24.1231579 11.3752632,24.1231579 11.3605263,24.1221053 C11.3931579,24.1426316 11.4294737,24.16 11.4621053,24.1789474 C11.4468421,24.1773684 11.4310526,24.1778947 11.4157895,24.1763158 C11.4484211,24.1973684 11.4852632,24.2142105 11.5184211,24.2347368 C11.5031579,24.2331579 11.4868421,24.2336842 11.4721053,24.2315789 C11.5047368,24.2521053 11.5415789,24.2694737 11.5747368,24.29 C11.5594737,24.2878947 11.5431579,24.2889474 11.5284211,24.2868421 C11.5610526,24.3078947 11.5978947,24.3247368 11.6310526,24.3452632 C11.6157895,24.3436842 11.5994737,24.3442105 11.5847368,24.3426316 C11.6173684,24.3636842 11.6542105,24.38 11.6873684,24.4005263 C11.6721053,24.3994737 11.6557895,24.3994737 11.6405263,24.3984211 C11.6731579,24.4184211 11.7089474,24.4352632 11.7421053,24.4552632 C11.7268421,24.4536842 11.7110526,24.4542105 11.6963158,24.4526316 C11.7289474,24.4736842 11.7657895,24.4894737 11.7989474,24.51 C11.7836842,24.5089474 11.7678947,24.5089474 11.7526316,24.5078947 C11.7852632,24.5284211 11.8221053,24.5452632 11.8552632,24.5657895 C11.84,24.5642105 11.8236842,24.5647368 11.8084211,24.5631579 C11.8410526,24.5842105 11.8778947,24.6010526 11.9110526,24.6215789 C11.8957895,24.6194737 11.8794737,24.6205263 11.8647368,24.6184211 C11.8973684,24.6389474 11.9331579,24.6557895 11.9663158,24.6757895 C11.9515789,24.6742105 11.9357895,24.6747368 11.9205263,24.6731579 C11.9536842,24.6942105 11.9905263,24.7115789 12.0242105,24.7310526 C12.0084211,24.73 11.9921053,24.73 11.9768421,24.7289474 C12.0094737,24.7494737 12.0463158,24.7668421 12.0794737,24.7868421 C12.0642105,24.7852632 12.0478947,24.7857895 12.0331579,24.7842105 C12.0657895,24.8052632 12.1026316,24.8221053 12.1357895,24.8426316 C12.1205263,24.8405263 12.1042105,24.8415789 12.0894737,24.8394737 C12.1221053,24.86 12.1578947,24.8768421 12.1910526,24.8973684 C12.1757895,24.8952632 12.16,24.8957895 12.1447368,24.8942105 C12.1778947,24.9152632 12.2147368,24.9326316 12.2484211,24.9531579 C12.2331579,24.9510526 12.2163158,24.9521053 12.2010526,24.95 C12.2336842,24.9705263 12.2694737,24.9878947 12.3026316,25.0073684 C12.2873684,25.0063158 12.2715789,25.0063158 12.2568421,25.0047368 C12.2894737,25.0257895 12.3263158,25.0426316 12.3594737,25.0631579 C12.3442105,25.0615789 12.3278947,25.0615789 12.3131579,25.0605263 C12.3457895,25.0810526 12.3826316,25.0984211 12.4157895,25.1189474 C12.4005263,25.1163158 12.3842105,25.1173684 12.3689474,25.1152632 C12.4015789,25.1368421 12.4384211,25.1531579 12.4715789,25.1736842 C12.4563158,25.1721053 12.44,25.1726316 12.4252632,25.1710526 C12.4578947,25.1915789 12.4947368,25.2078947 12.5278947,25.2284211 C12.5126316,25.2273684 12.4968421,25.2273684 12.4815789,25.2263158 C12.5142105,25.2468421 12.55,25.2636842 12.5831579,25.2836842 C12.5678947,25.2821053 12.5521053,25.2826316 12.5368421,25.2810526 C12.5694737,25.3021053 12.6063158,25.3184211 12.6394737,25.3389474 C12.6242105,25.3378947 12.6078947,25.3378947 12.5931579,25.3363158 C12.6257895,25.3568421 12.6626316,25.3736842 12.6957895,25.3942105 C12.6805263,25.3926316 12.6642105,25.3931579 12.6494737,25.3915789 C12.6821053,25.4126316 12.7189474,25.4289474 12.7521053,25.4494737 C12.7368421,25.4473684 12.7210526,25.4484211 12.7057895,25.4463158 C12.7384211,25.4678947 12.7752632,25.4842105 12.8084211,25.5047368 C12.7931579,25.5031579 12.7768421,25.5036842 12.7615789,25.5021053 C12.7942105,25.5226316 12.83,25.5394737 12.8631579,25.56 C12.8484211,25.5578947 12.8326316,25.5589474 12.8178947,25.5568421 C12.8510526,25.5784211 12.8878947,25.5952632 12.9215789,25.6157895 C12.9057895,25.6136842 12.8894737,25.6147368 12.8736842,25.6126316 C12.9063158,25.6336842 12.9431579,25.65 12.9757895,25.6705263 C12.9610526,25.6694737 12.9447368,25.6694737 12.93,25.6684211 C12.9626316,25.6889474 12.9994737,25.7063158 13.0326316,25.7257895 C13.0173684,25.7247368 13.0005263,25.7247368 12.9852632,25.7236842 C13.0178947,25.7436842 13.0542105,25.7605263 13.0868421,25.7810526 C13.0715789,25.7789474 13.0547368,25.78 13.0405263,25.7778947 C13.0731579,25.7994737 13.1105263,25.8152632 13.1426316,25.8357895 C13.1278947,25.8347368 13.11,25.8347368 13.0957895,25.8336842 C13.1284211,25.8542105 13.1652632,25.8710526 13.1973684,25.8915789 C13.1831579,25.8894737 13.1657895,25.8905263 13.1510526,25.8884211 C13.1842105,25.91 13.22,25.9263158 13.2531579,25.9468421 C13.2384211,25.9447368 13.2215789,25.9457895 13.2063158,25.9436842 C13.2389474,25.9652632 13.2757895,25.9815789 13.3089474,26.0021053 C13.2931579,26 13.2763158,26.0010526 13.2615789,25.9989474 C13.2942105,26.0194737 13.3305263,26.0368421 13.3621053,26.0568421 C13.3478947,26.0547368 13.33,26.0557895 13.3163158,26.0536842 C13.3494737,26.0752632 13.3863158,26.0921053 13.42,26.1126316 C13.4042105,26.1110526 13.3868421,26.1115789 13.3710526,26.1094737 C13.4042105,26.13 13.44,26.1473684 13.4726316,26.1668421 C13.4584211,26.1657895 13.4415789,26.1657895 13.4268421,26.1647368 C13.46,26.1852632 13.4963158,26.2026316 13.5294737,26.2226316 C13.5142105,26.2210526 13.4978947,26.2215789 13.4826316,26.22 C13.5152632,26.2405263 13.5521053,26.2578947 13.5852632,26.2784211 C13.57,26.2763158 13.5526316,26.2773684 13.5373684,26.2747368 C13.5705263,26.2952632 13.6068421,26.3126316 13.6389474,26.3331579 C13.6242105,26.3310526 13.6073684,26.3321053 13.5921053,26.33 C13.6252632,26.3510526 13.6631579,26.3684211 13.6957895,26.3889474 C13.6805263,26.3868421 13.6631579,26.3878947 13.6478947,26.3857895 C13.6805263,26.4063158 13.7173684,26.4236842 13.7494737,26.4431579 C13.7342105,26.4421053 13.7178947,26.4421053 13.7026316,26.4410526 C13.7363158,26.4615789 13.7731579,26.4789474 13.8063158,26.4994737 C13.7910526,26.4973684 13.7736842,26.4984211 13.7589474,26.4963158 C13.7915789,26.5168421 13.8278947,26.5336842 13.8594737,26.5542105 C13.8447368,26.5521053 13.8273684,26.5531579 13.8136842,26.5510526 C13.8468421,26.5726316 13.8831579,26.5884211 13.9157895,26.6089474 C13.9010526,26.6078947 13.8836842,26.6078947 13.8684211,26.6068421 C13.9015789,26.6273684 13.9384211,26.6436842 13.9710526,26.6642105 C13.9557895,26.6631579 13.9389474,26.6631579 13.9242105,26.6621053 C13.9573684,26.6826316 13.9936842,26.6989474 14.0263158,26.7194737 C14.0115789,26.7184211 13.9942105,26.7184211 13.98,26.7173684 C14.0126316,26.7378947 14.0489474,26.7547368 14.0815789,26.7752632 C14.0673684,26.7731579 14.0494737,26.7742105 14.0347368,26.7721053 C14.0678947,26.7926316 14.1036842,26.81 14.1357895,26.83 C14.1215789,26.8278947 14.1042105,26.8289474 14.0894737,26.8268421 C14.1226316,26.8484211 14.1605263,26.8657895 14.1931579,26.8857895 C14.1778947,26.8842105 14.1605263,26.8852632 14.1447368,26.8831579 C14.1773684,26.9036842 14.2136842,26.9210526 14.2463158,26.9405263 C14.2315789,26.9384211 14.2147368,26.9394737 14.2,26.9373684 C14.2326316,26.9589474 14.27,26.9752632 14.3021053,26.9957895 C14.2873684,26.9942105 14.2705263,26.9947368 14.2552632,26.9931579 C14.2878947,27.0136842 14.3247368,27.0310526 14.3578947,27.0515789 C14.3426316,27.0489474 14.3257895,27.0505263 14.3105263,27.0478947 C14.3436842,27.0694737 14.3805263,27.0857895 14.4131579,27.1063158 C14.3978947,27.1047368 14.3810526,27.1052632 14.3657895,27.1036842 C14.3984211,27.1247368 14.4357895,27.1410526 14.4684211,27.1615789 C14.4531579,27.1605263 14.4363158,27.1605263 14.4210526,27.1594737 C14.4536842,27.1789474 14.4905263,27.1963158 14.5226316,27.2168421 C14.5073684,27.2147368 14.4910526,27.2157895 14.4768421,27.2136842 C14.51,27.2347368 14.5473684,27.2521053 14.5794737,27.2726316 C14.5642105,27.2705263 14.5468421,27.2715789 14.5315789,27.2694737 C14.5647368,27.29 14.6010526,27.3068421 14.6331579,27.3273684 C14.6178947,27.3252632 14.6010526,27.3263158 14.5868421,27.3242105 C14.6194737,27.3452632 14.6557895,27.3621053 14.6889474,27.3826316 C14.6742105,27.3805263 14.6573684,27.3815789 14.6426316,27.3794737 C14.6757895,27.4010526 14.7121053,27.4173684 14.7447368,27.4378947 C14.73,27.4357895 14.7121053,27.4368421 14.6973684,27.4347368 C14.73,27.4563158 14.7673684,27.4726316 14.7994737,27.4926316 C14.7847368,27.4915789 14.7668421,27.4915789 14.7526316,27.4905263 C14.7852632,27.5110526 14.8221053,27.5278947 14.8542105,27.5484211 C14.84,27.5463158 14.8231579,27.5473684 14.8078947,27.5452632 C14.8405263,27.5657895 14.8768421,27.5831579 14.9089474,27.6031579 C14.8942105,27.6015789 14.8773684,27.6015789 14.8631579,27.6005263 C14.8957895,27.6210526 14.9331579,27.6384211 14.9668421,27.6589474 C14.9510526,27.6568421 14.9336842,27.6578947 14.9184211,27.6557895 C14.9510526,27.6763158 14.9873684,27.6936842 15.0194737,27.7136842 C15.0047368,27.7121053 14.9878947,27.7126316 14.9731579,27.7105263 C15.0063158,27.7321053 15.0431579,27.7494737 15.0763158,27.7694737 C15.0610526,27.7673684 15.0436842,27.7684211 15.0278947,27.7663158 C15.0610526,27.7868421 15.0978947,27.8042105 15.1294737,27.8242105 C15.1152632,27.8226316 15.0984211,27.8231579 15.0842105,27.8215789 C15.1168421,27.8426316 15.1531579,27.8594737 15.1857895,27.88 C15.1710526,27.8778947 15.1542105,27.8789474 15.1394737,27.8768421 C15.1721053,27.8984211 15.2084211,27.9147368 15.2415789,27.9347368 C15.2268421,27.9331579 15.2089474,27.9336842 15.1942105,27.9321053 C15.2273684,27.9526316 15.2631579,27.9694737 15.2952632,27.99 C15.2805263,27.9873684 15.2642105,27.9889474 15.2489474,27.9863158 C15.2821053,28.0078947 15.3194737,28.0252632 15.3526316,28.0457895 C15.3373684,28.0436842 15.32,28.0442105 15.3052632,28.0426316 C15.3378947,28.0631579 15.3742105,28.0805263 15.4057895,28.1 C15.3915789,28.0989474 15.3747368,28.0989474 15.3594737,28.0978947 C15.3926316,28.1184211 15.43,28.1357895 15.4631579,28.1563158 C15.4478947,28.1542105 15.4305263,28.1552632 15.4152632,28.1531579 C15.4478947,28.1736842 15.4847368,28.1910526 15.5163158,28.2110526 C15.5015789,28.2089474 15.4842105,28.21 15.47,28.2078947 C15.5031579,28.2294737 15.54,28.2452632 15.5726316,28.2657895 C15.5573684,28.2647368 15.5405263,28.2647368 15.5252632,28.2636842 C15.5578947,28.2842105 15.5952632,28.3010526 15.6278947,28.3215789 C15.6126316,28.32 15.5957895,28.32 15.5805263,28.3189474 C15.6142105,28.3394737 15.6505263,28.3568421 15.6831579,28.3773684 C15.6678947,28.3752632 15.6505263,28.3763158 15.6352632,28.3742105 C15.6684211,28.3947368 15.7057895,28.4115789 15.7378947,28.4321053 C15.7226316,28.4305263 15.7063158,28.4310526 15.6915789,28.4294737 C15.7247368,28.4494737 15.7605263,28.4663158 15.7926316,28.4868421 C15.7773684,28.4847368 15.7605263,28.4857895 15.7463158,28.4836842 C15.7794737,28.5052632 15.8163158,28.5221053 15.85,28.5426316 C15.8347368,28.5410526 15.8173684,28.5415789 15.8015789,28.54 C15.8342105,28.5605263 15.8705263,28.5778947 15.9031579,28.5973684 C15.8884211,28.5963158 15.8715789,28.5963158 15.8568421,28.5952632 C15.89,28.6157895 15.9268421,28.6321053 15.9589474,28.6526316 C15.9442105,28.6510526 15.9273684,28.6515789 15.9126316,28.65 C15.9457895,28.6710526 15.9815789,28.6878947 16.0147368,28.7078947 C16,28.7057895 15.9826316,28.7068421 15.9673684,28.7047368 C16.0005263,28.7263158 16.0373684,28.7426316 16.07,28.7631579 C16.0547368,28.7615789 16.0378947,28.7621053 16.0226316,28.7605263 C16.0552632,28.7815789 16.0926316,28.7978947 16.1252632,28.8184211 C16.11,28.8173684 16.0926316,28.8173684 16.0778947,28.8163158 C16.1105263,28.8368421 16.1468421,28.8531579 16.1789474,28.8731579 C16.1652632,28.8715789 16.1473684,28.8721053 16.1336842,28.8705263 C16.1668421,28.8915789 16.2042105,28.9089474 16.2373684,28.9294737 C16.2210526,28.9268421 16.2042105,28.9284211 16.1884211,28.9257895 C16.2215789,28.9463158 16.2573684,28.9636842 16.29,28.9842105 C16.2747368,28.9821053 16.2589474,28.9826316 16.2436842,28.9810526 C16.2763158,29.0021053 16.3136842,29.0189474 16.3463158,29.0394737 C16.3310526,29.0373684 16.3142105,29.0384211 16.2989474,29.0363158 C16.3315789,29.0578947 16.3689474,29.0742105 16.4015789,29.0947368 C16.3863158,29.0926316 16.3689474,29.0936842 16.3536842,29.0915789 C16.3868421,29.1126316 16.4242105,29.1294737 16.4563158,29.15 C16.4410526,29.1484211 16.4247368,29.1489474 16.4094737,29.1473684 C16.4421053,29.1678947 16.4789474,29.1847368 16.5121053,29.2052632 C16.4968421,29.2031579 16.48,29.2042105 16.4647368,29.2021053 C16.4973684,29.2226316 16.5336842,29.24 16.5663158,29.26 C16.5510526,29.2584211 16.5342105,29.2589474 16.52,29.2573684 C16.5526316,29.2784211 16.59,29.2952632 16.6226316,29.3157895 C16.6084211,29.3147368 16.59,29.3147368 16.5752632,29.3136842 C16.6078947,29.3342105 16.6442105,29.3505263 16.6763158,29.3705263 C16.6615789,29.3689474 16.6447368,29.3694737 16.63,29.3678947 C16.6631579,29.3889474 16.7,29.4057895 16.7331579,29.4263158 C16.7184211,29.4242105 16.7005263,29.4252632 16.6857895,29.4231579 C16.7184211,29.4436842 16.7547368,29.4610526 16.7863158,29.4810526 C16.7721053,29.4794737 16.7552632,29.48 16.7410526,29.4784211 C16.7736842,29.4994737 16.81,29.5163158 16.8426316,29.5368421 C16.8284211,29.5347368 16.8110526,29.5357895 16.7963158,29.5336842 C16.8289474,29.5552632 16.8652632,29.5710526 16.8984211,29.5915789 C16.8836842,29.59 16.8657895,29.5905263 16.8510526,29.5889474 C16.8842105,29.61 16.9210526,29.6268421 16.9531579,29.6473684 C16.9384211,29.6452632 16.9210526,29.6452632 16.9057895,29.6442105 C16.9389474,29.6647368 16.9757895,29.6821053 17.0084211,29.7026316 C16.9931579,29.7005263 16.9763158,29.7010526 16.9621053,29.6994737 C16.9947368,29.72 17.0310526,29.7373684 17.0636842,29.7573684 C17.0484211,29.7557895 17.0310526,29.7557895 17.0163158,29.7547368 C17.0494737,29.7752632 17.0873684,29.7926316 17.1194737,29.8131579 C17.1047368,29.8115789 17.0868421,29.8115789 17.0721053,29.8105263 C17.1047368,29.8305263 17.1410526,29.8478947 17.1731579,29.8678947 C17.1584211,29.8663158 17.1415789,29.8668421 17.1268421,29.8652632 C17.16,29.8857895 17.1973684,29.9021053 17.2294737,29.9226316 C17.2142105,29.9215789 17.1973684,29.9215789 17.1826316,29.9205263 C17.2157895,29.9410526 17.2521053,29.9578947 17.2847368,29.9784211 C17.27,29.9768421 17.2526316,29.9773684 17.2384211,29.9757895 C17.2710526,29.9968421 17.3073684,30.0136842 17.34,30.0342105 C17.3247368,30.0321053 17.3073684,30.0331579 17.2926316,30.0310526 C17.3252632,30.0521053 17.3626316,30.0684211 17.3947368,30.0889474 C17.38,30.0873684 17.3631579,30.0878947 17.3478947,30.0863158 C17.3810526,30.1068421 17.4173684,30.1231579 17.4494737,30.1436842 C17.4342105,30.1415789 17.4184211,30.1426316 17.4031579,30.1405263 C17.4357895,30.1621053 17.4731579,30.1794737 17.5057895,30.1994737 C17.4910526,30.1978947 17.4736842,30.1984211 17.4584211,30.1968421 C17.4910526,30.2173684 17.5273684,30.2347368 17.56,30.2542105 C17.5457895,30.2531579 17.5284211,30.2531579 17.5136842,30.2521053 C17.5468421,30.2726316 17.5836842,30.2894737 17.6157895,30.31 C17.6010526,30.3078947 17.5842105,30.3084211 17.5694737,30.3068421 C17.6026316,30.3278947 17.6384211,30.3442105 17.6715789,30.3647368 C17.6568421,30.3636842 17.6394737,30.3636842 17.6242105,30.3615789 C17.6573684,30.3831579 17.6942105,30.3994737 17.7268421,30.42 C17.7115789,30.4189474 17.6947368,30.4189474 17.6794737,30.4173684 C17.7121053,30.4384211 17.7494737,30.4557895 17.7821053,30.4752632 C17.7668421,30.4742105 17.7494737,30.4742105 17.7347368,30.4731579 C17.7673684,30.4936842 17.8047368,30.5110526 17.8363158,30.5310526 C17.8221053,30.5289474 17.8042105,30.53 17.7905263,30.5278947 C17.8236842,30.5494737 17.86,30.5657895 17.8926316,30.5863158 C17.8778947,30.5847368 17.86,30.5847368 17.8452632,30.5836842 C17.8778947,30.6042105 17.9142105,30.6205263 17.9463158,30.6410526 C17.9315789,30.6389474 17.9147368,30.64 17.9005263,30.6378947 C17.9331579,30.6594737 17.97,30.6757895 18.0031579,30.6963158 C17.9878947,30.6947368 17.9705263,30.6952632 17.9557895,30.6931579 C17.9884211,30.7147368 18.0257895,30.7310526 18.0578947,30.7515789 C18.0431579,30.75 18.0252632,30.75 18.0110526,30.7489474 C18.0436842,30.7694737 18.0805263,30.7863158 18.1126316,30.8068421 C18.0984211,30.8052632 18.0815789,30.8057895 18.0663158,30.8042105 C18.0994737,30.8252632 18.1352632,30.8415789 18.1684211,30.8621053 C18.1536842,30.86 18.1368421,30.8610526 18.1215789,30.8589474 C18.1542105,30.8805263 18.1915789,30.8968421 18.2242105,30.9173684 C18.2089474,30.9157895 18.1921053,30.9163158 18.1768421,30.9147368 C18.2094737,30.9357895 18.2468421,30.9531579 18.2794737,30.9726316 C18.2642105,30.9715789 18.2468421,30.9715789 18.2315789,30.9705263 C18.2647368,30.9910526 18.3010526,31.0078947 18.3331579,31.0273684 C18.3184211,31.0263158 18.3015789,31.0263158 18.2863158,31.0247368 C18.3194737,31.0457895 18.3568421,31.0626316 18.3889474,31.0831579 C18.3736842,31.0810526 18.3573684,31.0821053 18.3421053,31.08 C18.3752632,31.1015789 18.4115789,31.1178947 18.4447368,31.1384211 C18.4294737,31.1363158 18.4131579,31.1373684 18.3978947,31.1352632 C18.4305263,31.1568421 18.4673684,31.1731579 18.5005263,31.1936842 C18.4852632,31.1915789 18.4678947,31.1926316 18.4531579,31.1905263 C18.4857895,31.2121053 18.5231579,31.2278947 18.5552632,31.2484211 C18.5405263,31.2473684 18.5226316,31.2473684 18.5084211,31.2463158 C18.5410526,31.2668421 18.5778947,31.2836842 18.61,31.3042105 C18.5952632,31.3021053 18.5778947,31.3031579 18.5626316,31.3010526 C18.5957895,31.3226316 18.6326316,31.3389474 18.6652632,31.3594737 C18.65,31.3573684 18.6331579,31.3584211 18.6189474,31.3563158 C18.6515789,31.3768421 18.6878947,31.3942105 18.7205263,31.4142105 C18.7052632,31.4126316 18.6878947,31.4126316 18.6742105,31.4115789 C18.7068421,31.4321053 18.7431579,31.4494737 18.7757895,31.4694737 C18.7615789,31.4673684 18.7436842,31.4684211 18.7289474,31.4663158 C18.7621053,31.4878947 18.7984211,31.5042105 18.8310526,31.5247368 C18.8163158,31.5231579 18.7989474,31.5236842 18.7836842,31.5221053 C18.8168421,31.5426316 18.8536842,31.56 18.8863158,31.5805263 C18.8710526,31.5784211 18.8542105,31.5794737 18.8394737,31.5773684 C18.8726316,31.5978947 18.9089474,31.6152632 18.9415789,31.6357895 C18.9268421,31.6336842 18.9094737,31.6347368 18.8952632,31.6326316 C18.9278947,31.6531579 18.9642105,31.6705263 18.9968421,31.6910526 C18.9815789,31.6889474 18.9642105,31.69 18.9494737,31.6878947 C18.9821053,31.7089474 19.0189474,31.7252632 19.0510526,31.7457895 C19.0368421,31.7447368 19.02,31.7447368 19.0047368,31.7436842 C19.0378947,31.7636842 19.0747368,31.7810526 19.1063158,31.8005263 C19.0910526,31.7994737 19.0742105,31.7994737 19.06,31.7984211 C19.0926316,31.8189474 19.13,31.8352632 19.1626316,31.8557895 C19.1473684,31.8547368 19.1305263,31.8547368 19.1152632,31.8536842 C19.1478947,31.8742105 19.1852632,31.8905263 19.2178947,31.9110526 C19.2026316,31.91 19.1857895,31.91 19.1705263,31.9089474 C19.2031579,31.9294737 19.2405263,31.9463158 19.2731579,31.9668421 C19.2578947,31.9647368 19.2410526,31.9657895 19.2257895,31.9636842 C19.2589474,31.9852632 19.2957895,32.0010526 19.3284211,32.0215789 C19.3131579,32.0205263 19.2963158,32.0205263 19.2810526,32.0194737 C19.3136842,32.04 19.3510526,32.0568421 19.3836842,32.0768421 C19.3684211,32.0757895 19.3515789,32.0757895 19.3363158,32.0747368 C19.3689474,32.0952632 19.4057895,32.1126316 19.4389474,32.1321053 C19.4236842,32.1310526 19.4063158,32.1310526 19.3910526,32.13 C19.4242105,32.1505263 19.4605263,32.1673684 19.4926316,32.1873684 C19.4784211,32.1857895 19.4610526,32.1857895 19.4468421,32.1847368 C19.4794737,32.2052632 19.5163158,32.2226316 19.5484211,32.2431579 C19.5342105,32.2405263 19.5168421,32.2415789 19.5021053,32.2394737 C19.5352632,32.2610526 19.5710526,32.2773684 19.6042105,32.2978947 C19.5894737,32.2963158 19.5726316,32.2968421 19.5573684,32.2952632 C19.59,32.3163158 19.6268421,32.3326316 19.66,32.3531579 C19.6447368,32.3521053 19.6273684,32.3521053 19.6126316,32.3510526 C19.6452632,32.3715789 19.6826316,32.3878947 19.7147368,32.4084211 C19.7,32.4068421 19.6831579,32.4073684 19.6678947,32.4057895 C19.7005263,32.4268421 19.7373684,32.4436842 19.7705263,32.4642105 C19.7552632,32.4621053 19.7384211,32.4631579 19.7231579,32.4610526 C19.7563158,32.4826316 19.7931579,32.4994737 19.8257895,32.5189474 C19.8105263,32.5178947 19.7931579,32.5178947 19.7778947,32.5168421 C19.8105263,32.5373684 19.8473684,32.5536842 19.88,32.5742105 C19.8652632,32.5731579 19.8484211,32.5731579 19.8336842,32.5721053 C19.8663158,32.5926316 19.9026316,32.6089474 19.9347368,32.6294737 C19.92,32.6273684 19.9031579,32.6284211 19.8884211,32.6263158 C19.9215789,32.6478947 19.9584211,32.6636842 19.9905263,32.6842105 C19.9757895,32.6831579 19.9584211,32.6831579 19.9442105,32.6821053 C19.9768421,32.7026316 20.0131579,32.7194737 20.0457895,32.74 C20.0315789,32.7378947 20.0142105,32.7389474 19.9994737,32.7368421 C20.0321053,32.7584211 20.0684211,32.7747368 20.1010526,32.7952632 C20.0868421,32.7931579 20.07,32.7942105 20.0547368,32.7921053 C20.0873684,32.8136842 20.1242105,32.83 20.1573684,32.8505263 C20.1421053,32.8484211 20.1247368,32.8494737 20.1094737,32.8473684 C20.1426316,32.8689474 20.18,32.8852632 20.2121053,32.9057895 C20.1968421,32.9042105 20.1794737,32.9047368 20.1652632,32.9031579 C20.1978947,32.9236842 20.2347368,32.9410526 20.2668421,32.9610526 C20.2526316,32.9589474 20.2347368,32.96 20.2194737,32.9578947 C20.2521053,32.9784211 20.2884211,32.9957895 20.3210526,33.0157895 C20.3068421,33.0142105 20.29,33.0147368 20.2747368,33.0131579 C20.3073684,33.0342105 20.3447368,33.0510526 20.3773684,33.0715789 C20.3621053,33.0694737 20.3452632,33.0705263 20.3310526,33.0684211 C20.3636842,33.09 20.4,33.1063158 20.4326316,33.1263158 C20.4178947,33.1247368 20.4005263,33.1252632 20.3857895,33.1236842 C20.4189474,33.1447368 20.4552632,33.1610526 20.4878947,33.1815789 C20.4731579,33.1805263 20.4557895,33.1805263 20.4405263,33.1789474 C20.4736842,33.1994737 20.5105263,33.2168421 20.5431579,33.2373684 C20.5278947,33.2352632 20.5110526,33.2357895 20.4963158,33.2342105 C20.5294737,33.2552632 20.5657895,33.2721053 20.5984211,33.2926316 C20.5836842,33.2905263 20.5668421,33.2915789 20.5521053,33.2894737 C20.5847368,33.3110526 20.6210526,33.3273684 20.6542105,33.3478947 C20.6394737,33.3457895 20.6215789,33.3468421 20.6063158,33.3447368 C20.6389474,33.3652632 20.6757895,33.3826316 20.7078947,33.4026316 C20.6931579,33.4005263 20.6757895,33.4015789 20.6615789,33.3994737 C20.6947368,33.4210526 20.7315789,33.4368421 20.7642105,33.4573684 C20.7489474,33.4563158 20.7321053,33.4563158 20.7168421,33.4552632 C20.7494737,33.4757895 20.7868421,33.4926316 20.8194737,33.5131579 C20.8042105,33.5115789 20.7868421,33.5121053 20.7721053,33.5105263 C20.8052632,33.5310526 20.8421053,33.5484211 20.8742105,33.5689474 C20.8594737,33.5668421 20.8426316,33.5678947 20.8278947,33.5657895 C20.8610526,33.5863158 20.8968421,33.6031579 20.93,33.6236842 C20.9152632,33.6221053 20.8978947,33.6226316 20.8826316,33.6210526 C20.9157895,33.6421053 20.9526316,33.6578947 20.9852632,33.6784211 C20.97,33.6773684 20.9531579,33.6773684 20.9378947,33.6763158 C20.9705263,33.6968421 21.0078947,33.7136842 21.0405263,33.7342105 C21.0252632,33.7326316 21.0084211,33.7331579 20.9931579,33.7315789 C21.0257895,33.7521053 21.0621053,33.7694737 21.0942105,33.7889474 C21.0794737,33.7878947 21.0626316,33.7878947 21.0478947,33.7868421 C21.0810526,33.8073684 21.1184211,33.8236842 21.15,33.8442105 C21.1352632,33.8426316 21.1189474,33.8431579 21.1036842,33.8415789 C21.1363158,33.8626316 21.1731579,33.8794737 21.2063158,33.9 C21.1910526,33.8973684 21.1742105,33.8984211 21.1589474,33.8963158 C21.1915789,33.9178947 21.2289474,33.9342105 21.2615789,33.9547368 C21.2463158,33.9531579 21.2294737,33.9536842 21.2142105,33.9521053 C21.2468421,33.9731579 21.2842105,33.99 21.3168421,34.01 C21.3015789,34.0089474 21.2842105,34.0089474 21.2689474,34.0078947 C21.3021053,34.0284211 21.3394737,34.0457895 21.3715789,34.0652632 C21.3563158,34.0636842 21.34,34.0642105 21.3252632,34.0626316 C21.3584211,34.0836842 21.3942105,34.1005263 21.4273684,34.1210526 C21.4121053,34.1194737 21.3952632,34.12 21.38,34.1178947 C21.4131579,34.1378947 21.4489474,34.1552632 21.4815789,34.1757895 C21.4663158,34.1736842 21.4494737,34.1747368 21.4352632,34.1726316 C21.4678947,34.1936842 21.5042105,34.2105263 21.5368421,34.2310526 C21.5226316,34.2294737 21.5052632,34.23 21.4905263,34.2284211 C21.5231579,34.2494737 21.5594737,34.2657895 21.5926316,34.2863158 C21.5778947,34.2852632 21.56,34.2852632 21.5452632,34.2842105 C21.5784211,34.3042105 21.6152632,34.3210526 21.6473684,34.3415789 C21.6326316,34.34 21.6152632,34.3405263 21.6010526,34.3389474 C23.0347368,35.2568421 25.0331579,35.6931579 26.8642105,35.6931579 C32.8221053,35.6931579 35.8115789,31.0268421 35.8115789,26.7457895 C35.8115789,26.6042105 35.8157895,26.3589474 35.8115789,26.2194737 C36.4063158,26.1221053 36.9173684,25.4952632 37.3531579,24.8468421 L37.3531579,24.8468421 Z" id="Shape" fill="url(#linearGradient-4)" opacity="0.3" mask="url(#mask-3)"></path>
                                </g>
                            </g>
                            <path d="M20.5263158,8.00473684 C19.9447368,8.26263158 19.0757895,8.60578947 18.4210526,8.68421053 C19.0910526,8.28315789 19.7573684,7.33631579 20,6.57894737 C19.4889474,6.88263158 18.9015789,7.29210526 18.3015789,7.51210526 L17.8947368,7.10526316 C17.3047368,6.47526316 16.7210526,6.05263158 15.7894737,6.05263158 C14.0010526,6.05263158 12.6315789,7.42210526 12.6315789,9.21052632 C12.6315789,9.42 12.6563158,9.57894737 12.6894737,9.71368421 L12.6315789,9.73684211 C9.47368421,9.73684211 7.38631579,9.06526316 5.78947368,7.10526316 C5.51,7.58315789 5.26315789,8.09052632 5.26315789,8.68421053 C5.26315789,9.80842105 5.97263158,10.7336842 6.84210526,11.3157895 C6.31105263,11.2984211 5.69947368,11.0305263 5.26315789,10.7894737 C5.26315789,12.3578947 7.46631579,14.1747368 8.94736842,14.4736842 C8.42105263,15 6.51421053,14.5126316 6.31578947,14.4736842 C6.72842105,15.7615789 8.05736842,16.5521053 9.47368421,16.5789474 C8.36578947,17.4463158 7.02789474,17.9 5.51,17.9 C5.24789474,17.9 4.99052632,17.8847368 4.73684211,17.8557895 C6.17,18.7736842 8.17,19.2105263 10,19.2105263 C15.9589474,19.2105263 18.9473684,14.5436842 18.9473684,10.2631579 C18.9473684,10.1221053 18.9515789,9.87578947 18.9473684,9.73684211 C19.5794737,9.28 20.0905263,8.65315789 20.5263158,8.00473684 L20.5263158,8.00473684 Z" id="Brid_1_" fill="#F26631"></path>
                        </g>
                    </g>
                </g>
            </g>
        </g>
    </g>
</svg>